<?xml version="1.0" encoding="UTF-8" standalone="no"?>
<!-- Creator: CorelDRAW X5 -->
<svg
    xmlns:inkscape="http://www.inkscape.org/namespaces/inkscape"
    xmlns:rdf="http://www.w3.org/1999/02/22-rdf-syntax-ns#"
    xmlns="http://www.w3.org/2000/svg"
    xmlns:cc="http://creativecommons.org/ns#"
    xmlns:dc="http://purl.org/dc/elements/1.1/"
    xmlns:sodipodi="http://sodipodi.sourceforge.net/DTD/sodipodi-0.dtd"
    id="svg4218"
    style="fill-rule:evenodd"
    sodipodi:docname="_svgclean2.svg"
    xml:space="preserve"
    inkscape:export-filename="C:\Documents and Settings\ADMIN\Рабочий стол\План эвакуации\Фото школы.png"
    inkscape:export-xdpi="350"
    version="1.1"
    inkscape:export-ydpi="350"
    inkscape:version="0.48.3.1 r9886"
    viewBox="0 0 554860.12 371804.66"
  >
  <sodipodi:namedview
      id="namedview5361"
      bordercolor="#666666"
      inkscape:pageshadow="2"
      guidetolerance="10"
      pagecolor="#ffffff"
      gridtolerance="10"
      inkscape:window-maximized="0"
      inkscape:zoom="0.275"
      objecttolerance="10"
      borderopacity="1"
      inkscape:current-layer="svg4218"
      inkscape:cx="-16232.427"
      inkscape:cy="-22227.444"
      inkscape:window-y="0"
      units="cm"
      inkscape:window-x="0"
      inkscape:window-width="512"
      showgrid="false"
      inkscape:pageopacity="0"
      inkscape:window-height="452"
  />
  <defs
      id="defs4220"
    >
    <font
        id="FontID1"
        horiz-origin-x="0"
        horiz-origin-y="0"
        vert-origin-x="45"
        horiz-adv-x="722"
        vert-origin-y="90"
        vert-adv-y="90"
        font-weight="400,700"
      >
      <font-face
          id="font-face4223"
          font-family="Times New Roman"
      />
      <missing-glyph
          id="missing-glyph4225"
        >
        <path
            id="path4227"
            d="m0 0z"
        />
      </missing-glyph
      >
      <glyph
          id="glyph4229"
          horiz-adv-x="517"
          unicode="ъ"
        >
        <path
            id="path4231"
            d="m24.835 447.34h291.5v-18.678c-32.836 0-52.506-1.6536-59.34-5.323-6.6616-3.4962-12.662-8.331-18.001-14.174-5.3388-5.827-8.0002-28.158-8.0002-66.837v-90.334h42.505c53.324 0 94.491-4.4883 123.5-13.166 28.993-8.8192 51.167-23.166 66.664-42.994 15.497-19.827 23.166-43.34 23.166-70.333 0-37.497-15.339-67.671-46.175-90.838-30.82-23.166-81.656-34.662-152.49-34.662h-205.66v18.001c26.662 0 44.663 4.9923 53.655 14.993 9.1656 9.8428 13.67 33.844 13.67 72.002v310.5c-38.993 0-66.837-5.6537-83.672-16.819-16.819-11.182-29.497-35.513-38.332-73.01h-22.001l19.008 121.67zm206.16-409.16c17.827-4.3466 35.34-6.5041 52.175-6.5041 38.159 0 65.986 9.4964 83.829 28.158 17.67 18.678 26.489 40.174 26.489 64.175 0 26.993-9.6538 49.828-29.166 68.333-19.654 18.662-47.167 27.828-82.664 27.828-10.331 0-27.324-0.99216-50.663-2.8347v-179.16z"
        />
      </glyph
      >
      <glyph
          id="glyph4233"
          horiz-adv-x="769"
          unicode="ш"
        >
        <path
            id="path4235"
            d="m747.5 18.001v-18.001h-725v18.001c26.993 0 44.994 4.9923 54.159 14.993 9.1656 9.8428 13.67 33.844 13.67 72.002v237.33c0 34.836-1.8268 55.34-5.3388 61.671-3.6537 6.3309-9.1656 12.174-16.662 17.166-7.4963 5.008-22.835 7.4963-45.828 7.4963v18.678h216.32v-18.678c-21.828 0-36.489-2.1576-43.986-6.4884-7.512-4.5041-13.339-9.8428-17.67-16.331-4.1734-6.5041-6.3309-27.67-6.3309-63.514v-246.65c0-30.836 2.819-49.34 8.331-55.167 5.4962-5.8427 24.158-8.8349 55.655-8.8349h52.836c20.835 0 34.505 1.3229 41.009 3.6694 6.4884 2.4883 10.835 6.6616 12.835 12.489 2.1576 5.8427 3.1654 25.166 3.1654 57.671v236.83c0 34.505-1.6693 55.01-5.3388 61.671-3.4962 6.6774-9.1656 12.504-16.835 17.339-7.6695 4.9923-22.835 7.3231-45.671 7.3231v18.678h208.01v-18.678c-17.497-0.33072-30.505-3.1654-38.993-8.6617-8.5042-5.6695-14-12.662-16.678-20.993-2.504-8.5042-3.8269-27.339-3.8269-56.679v-252.5c0-28.001 2.6615-44.663 8.331-50.002 5.4962-5.323 22.505-8.1577 51.167-8.1577h58.663c31.166 0 48.332 3.3229 51.167 10 3.008 6.8349 4.5041 26.993 4.5041 60.837v239.82c0 34.836-1.8426 55.34-5.3388 61.671-3.6694 6.3309-9.1656 12.174-16.662 17.166-7.4963 5.008-22.835 7.4963-45.828 7.4963v18.678h216.16v-18.678c-22.001 0-36.836-2.1576-44.175-6.4884-7.3231-4.5041-12.992-9.8428-17.323-16.331-4.1734-6.5041-6.3467-27.67-6.3467-63.514v-211c0-43.655 1.1811-70.664 3.6694-80.995 2.504-10.504 8.0002-18.331 16.835-23.497 8.8349-5.1655 24.662-8.1735 47.34-8.8349z"
        />
      </glyph
      >
      <glyph
          id="glyph4237"
          horiz-adv-x="503"
          unicode="ч"
        >
        <path
            id="path4239"
            d="m332 246.66v95.669c0 30.835-1.4961 50.835-4.6614 59.842-3.0079 8.8346-9.3386 15.496-19.008 20-9.6693 4.3307-24.158 6.4882-43.669 6.4882v18.677h216.35v-18.677c-22.173 0-36.835-2.1575-44.173-6.4882-7.3386-4.5039-13.165-9.8425-17.339-16.346-4.3307-6.4882-6.3307-27.654-6.3307-63.496v-237.32c0-31.008 1.4961-50.835 4.5039-59.842 3.1654-8.9921 9.4961-15.669 19.165-20.331 9.4961-4.5039 24.331-6.8346 44.173-6.8346v-18h-227.18v18c26.173 1.0079 43.181 2.8346 51.181 5.1654 7.8268 2.5039 14.488 8.6614 19.496 18.835 4.9921 10.173 7.4961 31.008 7.4961 63.008v109.32c-47.827-24.331-98.331-36.661-151.34-36.661-28.992 0-51.496 3.6693-67.323 10.992-16 7.3386-26.173 15.842-30.331 25.512-4.1732 9.4961-6.3465 25.165-6.3465 46.488v81.669c0 29.008-1.3228 48-3.8268 57.008-2.6614 9.1654-8.5039 16.331-17.669 21.496-9.1654 5.3386-22.661 7.8268-40.504 7.8268v18.677h210.5v-18.677c-21.827 0-36.504-2.1575-44-6.4882-7.4961-4.5039-13.339-9.8425-17.669-16.346-4.1575-6.4882-6.3307-27.654-6.3307-63.496v-55.165c0-21.496 1.6693-36 4.6614-43.496 3.1811-7.4961 10.346-13.842 21.512-18.835 11.165-5.0079 27.165-7.4961 47.669-7.4961 35.496 0 69.165 9.6693 100.99 29.323z"
        />
      </glyph
      >
      <glyph
          id="glyph4241"
          horiz-adv-x="746"
          unicode="ю"
        >
        <path
            id="path4243"
            d="m281.33 216.34h-111v-111.34c0-33.497 1.6693-53.828 4.9923-60.837 3.1654-6.9924 8.8349-12.992 16.504-18.331 7.827-5.1655 23.339-7.827 46.505-7.827v-18.001h-216.34v18.001c22.505 0.99216 36.993 2.8347 44.001 5.1655 6.8349 2.504 12.504 8.6617 16.993 18.835 4.5041 10.158 6.8349 30.993 6.8349 62.994v237.33c0 39.009-3.8269 63.167-11.67 72.176-7.827 9.1656-26.489 13.827-56.159 14.158v18.678h216.34v-18.678c-22.505 0-37.67-2.3308-45.498-7.3231-7.8428-4.8348-13.512-10.835-17.008-17.843-3.6694-6.9924-5.4962-27.324-5.4962-61.167v-94.318h112.33c8.5042 62.821 32.489 113.99 72.002 153.33 39.655 39.497 87.168 59.167 142.82 59.167 63.498 0 115.34-22.835 155.34-68.333 40.001-45.671 59.986-99.011 59.986-160.16 0-40.505-9.8271-81.514-29.497-123.17-19.654-41.671-46.49-72.506-80.491-92.507s-71.168-30.001-111.17-30.001c-61.498 0-111.5 22.662-150.16 67.829-38.505 45.34-58.679 99.342-60.175 162.18zm200.67 212.32c-32.001 0-58.332-13.654-78.995-41.167-20.678-27.497-31.009-70.16-31.009-127.66 0-65.167 13.008-121.17 38.836-168.34 26.001-46.994 60.002-70.506 102.33-70.506 72.333 0 108.51 57.844 108.51 173.34 0 67.656-12.835 123.66-38.174 167.99-25.339 44.175-59.167 66.333-101.5 66.333z"
        />
      </glyph
      >
      <glyph
          id="glyph4245"
          horiz-adv-x="671"
          unicode="ы"
        >
        <path
            id="path4247"
            d="m424.33 428.66v18.678h225v-18.678c-19.827 0-34.332-2.0001-43.324-6.3309-9.1656-4.1576-15.497-10.662-18.835-19.497-3.4962-8.8349-5.1655-28.993-5.1655-60.506v-237.33c0-30.662 1.4961-50.332 4.5041-59.325 2.819-9.0082 9.1656-15.843 18.662-20.505 9.6696-4.6616 24.332-7.1656 44.159-7.1656v-18.001h-225v18.001c25.339 0.99216 41.844 2.8347 49.498 5.1655 7.6695 2.504 14.174 8.6617 19.339 18.835 5.1655 10.158 7.827 30.993 7.827 62.994v237.33c0 31.513-1.8268 51.844-5.323 61.01-3.6694 9.1656-9.8428 15.497-18.835 19.323-9.0082 3.6694-26.505 5.6695-52.506 6.0002zm-253.99-180.65l55.671 0.99216c132.82 0 199.33-40.993 199.33-123 0-38.174-16.174-68.664-48.663-91.499-32.348-23.009-79.01-34.505-139.85-34.505h-214.83v18.001c28.993 0 47.498 5.3388 55.671 16 8.1577 10.504 12.158 34.159 12.158 70.994v237.33c0 34.836-1.8268 55.34-5.323 61.671-3.6694 6.3309-9.1656 12.174-16.678 17.166-7.4963 5.008-22.662 7.4963-45.828 7.4963v18.678h233.83v-18.678c-32.174 0-52.002-1.8268-59.498-5.4962-7.4963-3.8269-13.67-8.6617-18.678-14.662-4.819-6.0002-7.3231-28.174-7.3231-66.175v-94.318zm0-209.5c17.323-4.5041 34.505-6.8349 51.828-6.8349 32.505 0 59.01 8.6617 79.341 26.001 20.331 17.166 30.489 38.993 30.489 65.325 0 62.506-43.497 93.83-130.34 93.83-7.4963 0-17.827-0.15748-31.324-0.4882v-177.83z"
        />
      </glyph
      >
      <glyph
          id="glyph4249"
          horiz-adv-x="500"
          unicode="у"
        >
        <path
            id="path4251"
            d="m5.827 447.34h208.51v-18.174h-10.174c-14.662 0-25.67-3.1654-32.993-9.4964-7.3388-6.3309-11.008-14.174-11.008-23.67 0-12.662 5.3388-30.332 16.174-52.663l108.84-225.66 100.16 247c5.4962 13.496 8.1577 26.662 8.1577 39.655 0 5.8427-1.1654 10.174-3.3229 13.166-2.6772 3.5119-6.6774 6.3467-12.174 8.5042-5.6695 2.1733-15.323 3.1654-29.324 3.1654v18.174h145.5v-18.174c-12-1.3229-21.339-3.8269-27.843-7.827-6.5041-3.8426-13.67-11.166-21.497-22.001-2.9922-4.5041-8.5042-17.008-16.662-37.497l-182.01-446.34c-17.67-43.324-40.663-75.987-69.168-98.161s-55.828-33.166-82.333-33.166c-19.166 0-34.993 5.4962-47.324 16.662-12.347 11.008-18.504 23.67-18.504 38.001 0 13.67 4.5041 24.678 13.323 33.009 9.0082 8.331 21.339 12.489 37.009 12.489 10.662 0 25.339-3.6537 43.828-10.819 13.008-4.8348 21.166-7.3388 24.505-7.3388 9.6696 0 20.331 5.1655 32.001 15.166 11.496 10.158 23.166 29.67 34.836 58.663l31.828 77.498-160.67 337.51c-4.9923 10-12.662 22.662-23.497 37.497-8.1735 11.496-14.835 19.166-20.001 22.993-7.4963 5.1655-19.497 9.8428-36.174 13.67v18.174z"
        />
      </glyph
      >
      <glyph
          id="glyph4253"
          horiz-adv-x="648"
          unicode="ф"
        >
        <path
            id="path4255"
            d="m208.5 639.17l131.83 55.167h21.512v-274.84c29.654 27.339 59.655 41.009 90.334 41.009 42.001 0 78.002-23.166 108.16-69.341 30.001-46.332 45.167-102.33 45.167-167.99 0-64.506-15.339-120-46.001-166.84-30.505-46.663-67.671-70.002-111.33-70.002-32.174 0-61.01 14.331-86.333 43.009v-138.18c0-32.662 1.8268-53.324 5.6695-62.333 3.6537-8.9924 10.488-15.323 20.158-18.993 9.8271-3.8426 30.332-5.6695 61.498-5.6695v-18.001h-240.67v18.001c32.505 0 53.671 4.6616 63.167 14 9.6696 9.1656 14.504 33.497 14.504 72.994v138.18c-24.505-28.678-53.167-43.009-86.003-43.009-45.167 0-82.837 23.497-112.84 70.333-29.828 46.836-44.82 104-44.82 171.34 0 60.821 14.331 114.82 42.994 161.83 28.662 47.167 66.002 70.664 112.33 70.664 34.174 0 63.498-15.67 88.334-47.009v121.17c0 41.671-2.6615 68.175-7.827 79.672-5.1655 11.339-14.347 16.993-27.339 16.993-10.835 0-22.505-2.8347-35.166-8.331l-7.3388 16.174zm77.672-269c-18.331 38.332-41.671 57.498-70.333 57.498-27.67 0-49.167-18.001-64.664-54.332-15.497-36.332-23.166-90.334-23.166-161.83 0-63.167 7.6695-111 23.166-143.34 15.497-32.489 36.993-48.663 64.664-48.663 25.339 0 48.836 14.835 70.333 44.505v306.17zm75.672-297.84c6.4884-16.993 16.662-30.001 30.662-39.167 14-8.9924 27.497-13.67 40.159-13.67 25.009 0 45.671 15.843 61.671 47.34 16.174 31.67 24.174 80.995 24.174 147.99 0 142-28.174 212.84-84.333 212.84-23.843 0-48.002-13.166-72.333-39.497v-315.84z"
        />
      </glyph
      >
      <glyph
          id="glyph4257"
          horiz-adv-x="769"
          unicode="щ"
        >
        <path
            id="path4259"
            d="m22.505 0v18.001c26.993 0 44.994 4.9923 54.159 14.993 9.1656 9.8428 13.67 33.844 13.67 72.002v237.33c0 34.836-1.8268 55.34-5.3388 61.671-3.6537 6.3309-9.1656 12.174-16.662 17.166-7.4963 5.008-22.835 7.4963-45.828 7.4963v18.678h216.32v-18.678c-21.828 0-36.489-2.1576-43.986-6.4884-7.512-4.5041-13.339-9.8428-17.67-16.331-4.1734-6.5041-6.3309-27.67-6.3309-63.514v-246.65c0-30.836 2.819-49.34 8.331-55.167 5.4962-5.8427 24.158-8.8349 55.655-8.8349h52.836c20.835 0 34.505 1.3229 41.009 3.6694 6.4884 2.4883 10.835 6.6616 12.835 12.489 2.1576 5.8427 3.1654 25.166 3.1654 57.671v236.83c0 34.505-1.6693 55.01-5.3388 61.671-3.4962 6.6774-9.1656 12.504-16.835 17.339-7.6695 4.9923-22.835 7.3231-45.671 7.3231v18.678h208.01v-18.678c-17.497-0.33072-30.505-3.1654-38.993-8.6617-8.5042-5.6695-14-12.662-16.678-20.993-2.504-8.5042-3.8269-27.339-3.8269-56.679v-252.5c0-28.001 2.6615-44.663 8.331-50.002 5.4962-5.323 22.505-8.1577 51.167-8.1577h58.663c31.166 0 48.332 3.3229 51.167 10 3.008 6.8349 4.5041 26.993 4.5041 60.837v239.82c0 34.836-1.8426 55.34-5.3388 61.671-3.6694 6.3309-9.1656 12.174-16.662 17.166-7.4963 5.008-22.835 7.4963-45.828 7.4963v18.678h216.16v-18.678c-22.001 0-36.836-2.1576-44.175-6.4884-7.3231-4.5041-12.992-9.8428-17.323-16.331-4.1734-6.5041-6.3467-27.67-6.3467-63.514v-211c0-43.655 1.1811-70.664 3.6694-80.995 2.504-10.504 8.0002-18.331 16.835-23.497 8.8349-5.1655 24.662-8.1735 47.34-8.8349v-142h-18.001c-2.3308 40.332-14.678 71.168-37.34 92.334s-64.002 31.67-124.34 31.67h-545.32z"
        />
      </glyph
      >
      <glyph
          id="glyph4261"
          horiz-adv-x="528"
          unicode="ь"
        >
        <path
            id="path4263"
            d="m37.663 0v18c18.841 2.6646 31.672 8.9953 38.334 18.832 6.6709 10.006 10.006 28.337 10.006 55.002v275.83c0 24.832-3.5055 42-10.507 51.836-6.9922 9.6662-19.663 15.997-37.833 19.002v18h233.34v-18c-19.502-3.0047-32.504-9.6662-38.835-20.334-6.3307-10.498-9.5055-29.669-9.5055-57.336v-108.83h35.169c79.332 0 139.33-11.339 179.67-33.997 40.337-22.668 60.501-54 60.501-94.007 0-37.663-17.839-67.833-53.67-90.331-35.83-22.498-88.829-33.666-159.17-33.666h-247.5zm185 221.17v-142.01c0-22.167 3.6756-35.83 11.008-40.999 7.3323-5.3292 16.167-7.8331 26.665-7.8331 25.332 0 47.329 8.6646 66.161 26.003 18.671 17.499 28.006 40.999 28.006 70.668 0 62.835-44.003 94.167-131.84 94.167z"
        />
      </glyph
      >
      <glyph
          id="glyph4265"
          horiz-adv-x="499"
          unicode="х"
        >
        <path
            id="path4267"
            d="m303.67 279.84l79.162-150.5c27.336-52.337 49.002-85.503 65.008-99.506 8.6646-7.4929 20.825-11.66 36-12.331v-17.499h-254.34v17.499c19.833 1.663 32.164 4.337 36.832 7.8331 4.6677 3.6662 7.1622 8.504 7.1622 14.665 0 9.1654-5.3292 23.499-15.666 43.002l-39.496 74.164-33.836-49.332c-15.165-22.328-23.83-35.66-25.833-39.997-2.4945-6.1701-3.8362-11.669-3.8362-16.498 0-7.5024 1.5024-13.833 4.6677-18.832 3.0047-5.0079 7.1717-8.8347 12.671-11.339 5.3292-2.3339 15.165-3.6662 29.499-3.6662v-17.499h-178.67v17.499c22.167 0 42.331 6.1701 60.671 18.331 18.501 12.34 45.166 44.173 80.334 96l37.663 55.673-78.671 145.49c-25.663 47.499-44.825 76.668-57.496 87.336-12.832 10.838-26.995 16.838-42.501 18.17v18h252.83v-18l-13.162-0.50079-25.332-8.8347c-2.674-2.1638-4.0063-6-4.0063-11.168 0-4.8284 0.84095-9.9969 2.5039-15.165 1.0016-2.3339 5.4992-10.998 13.663-26.334l35.669-66.501 18.501 26.504c26.164 35.669 39.166 60.832 39.166 75.166 0 6.8315-2.8346 12.501-8.6646 17.329-5.6693 4.6677-15.836 7.8331-30.501 9.5055v18h161.67v-18c-19.833-0.67087-38.334-6.8315-55.673-18.34-17.329-11.499-36.662-33.997-58.167-67.162l-47.83-73.162z"
        />
      </glyph
      >
      <glyph
          id="glyph4269"
          horiz-adv-x="556"
          unicode="р"
        >
        <path
            id="path4271"
            d="m210.5 46.337v-169.83c0-23.499 1.8331-39.506 5.4992-47.84 3.8362-8.4945 9.6662-14.665 17.329-18.662 7.8331-3.8362 23.169-5.8394 46.006-5.8394v-18h-260.34v18c20.164 0.67087 35.169 6.3402 44.995 17.169 6.5008 7.5024 9.6662 26.835 9.6662 57.997v482c0 32.164-3.6662 52.838-11.159 61.833-7.5024 8.8347-22.006 14.003-43.502 15.336v18h191.5v-60c15.836 23.499 32.164 40.328 48.832 50.835 23.669 15.165 49.663 22.828 77.5 22.828 33.666 0 64.167-10.498 91.663-31.663 27.506-21.165 48.34-50.334 62.674-87.666s21.496-77.339 21.496-120.33c0-46.337-7.3323-88.507-22.167-126.67-14.835-38.334-36.331-67.503-64.498-87.496-28.167-20.003-59.499-30-93.997-30-25.002 0-48.501 5.4992-70.337 16.658-16.167 8.3339-33.336 22.838-51.166 43.342zm0 49.332c27.997-39.666 57.836-59.499 89.83-59.499 17.499 0 32.003 9.1654 43.502 27.827 16.828 27.336 25.332 79.332 25.332 156.17 0 78.832-9.3355 132.66-27.836 161.67-12.331 19.162-28.998 28.828-49.833 28.828-32.835 0-59.83-23.83-80.996-71.329v-243.67z"
        />
      </glyph
      >
      <glyph
          id="glyph4273"
          horiz-adv-x="541"
          unicode="я"
        >
        <path
            id="path4275"
            d="m503 456.5v-18c-15.336 0-27.165-4.1669-35.499-12.17-8.3339-8.1638-12.501-27.666-12.501-58.668v-260.16c0-33.997 3.6662-56.996 10.838-69.166 7.1622-12.17 19.493-19.002 37.162-20.334v-18h-233v18c32.164 1.663 48.331 28.998 48.331 82.167v105.84c-11.669-0.67087-18.331-1.0016-19.994-1.0016-4.8378 0-12.501 0.33071-23.008 1.0016l-77.5-206h-180.66v18c35.329 0.33071 60.662 20.504 75.666 60.671l52.668 142c-69.005 21.496-103.5 60.331-103.5 116.16 0 28.668 9.1654 53.169 27.336 73.332 18.161 20.164 39.666 33.005 64.167 38.334 24.662 5.3386 68.164 8.0032 130.67 8.0032h238.83zm-184.67-37.502c-19.162 4.4976-35.329 6.8315-48.331 6.8315-27.666 0-48.501-8.4945-62.665-25.162-14.173-16.838-21.336-37.833-21.336-63.336 0-31.162 9.8362-56.003 29.329-74.334 19.502-18.501 48.671-27.666 87.336-27.666 3.6662 0 8.8347 0.17008 15.666 0.50079v183.17z"
        />
      </glyph
      >
      <glyph
          id="glyph4277"
          horiz-adv-x="491"
          unicode="т"
        >
        <path
            id="path4279"
            d="m126 0v18c19.502 0 32.995 5.1685 40.337 15.165 7.3323 10.167 10.828 30.17 10.828 60.17v332.5h-45.336c-31.833 0-54-5.6693-66.331-17.169-12.501-11.329-22.167-35.159-29.329-71.329h-18.17v119.17h455.17v-119.17h-18.17c-5.8299 32.665-14.334 55.502-25.833 68.665-11.329 13.172-34.337 19.833-68.835 19.833h-46.328v-332.5c0-31.002 3.6662-51.166 10.998-60.671 7.3323-9.3355 20.665-14.334 40.167-14.665v-18h-239.17z"
        />
      </glyph
      >
      <glyph
          id="glyph4281"
          horiz-adv-x="443"
          unicode="с"
        >
        <path
            id="path4283"
            d="m406.33 117.67l15.005-11.669c-21.496-40.328-48.17-70.498-80.334-90.161-32.003-19.672-66.17-29.499-102.17-29.499-60.992 0-109.66 22.998-145.99 68.825-36.501 45.836-54.671 101.17-54.671 165.51 0 62.164 16.507 116.84 49.673 164.16 40.167 56.835 95.329 85.333 165.67 85.333 47.159 0 84.662-11.83 112.5-35.669 27.836-23.66 41.669-50.164 41.669-79.493 0-18.501-5.4992-33.336-16.838-44.504-11.168-10.998-26.003-16.498-44.164-16.498-19.172 0-34.998 6.3307-47.669 19.002-12.501 12.662-20.164 35.329-23.169 67.833-1.8331 20.495-6.6614 34.828-14.164 43.002-7.5024 8.1638-16.167 12.161-26.334 12.161-15.666 0-28.998-8.3339-39.997-24.832-16.998-25.162-25.332-63.496-25.332-115.33 0-42.832 6.8315-84 20.495-123.17 13.672-39.336 32.334-68.504 56.164-87.666 17.839-14.003 39.005-21.005 63.336-21.005 16.006 0 31.172 3.6662 45.506 11.168 14.334 7.5024 31.162 21.666 50.825 42.501z"
        />
      </glyph
      >
      <glyph
          id="glyph4285"
          horiz-adv-x="250"
          unicode=","
        >
        <path
            id="path4287"
            d="m53.669-166.5v21.496c33.496 11.008 59.496 28.173 78 51.512 18.331 23.323 27.496 48 27.496 74 0 6.1575-1.4961 11.323-4.3307 15.669-2.3307 2.8189-4.6614 4.3307-6.8346 4.3307-3.6693 0-11.496-3.3386-23.496-9.8425-5.8425-2.8346-12-4.3307-18.504-4.3307-16 0-28.661 4.6614-38.173 14.173-9.3228 9.4961-14.158 22.504-14.158 38.992 0 16 6.1575 29.669 18.331 41.008 12.173 11.496 27.165 17.165 44.661 17.165 21.512 0 40.677-9.3386 57.339-28.173 16.835-18.661 25.165-43.496 25.165-74.331 0-33.496-11.669-64.661-34.835-93.496-23.323-28.835-60.158-51.496-110.66-68.173z"
        />
      </glyph
      >
      <glyph
          id="glyph4289"
          horiz-adv-x="250"
          unicode="."
        >
        <path
            id="path4291"
            d="m125.01 94.661c15.323 0 28.158-5.1654 38.488-15.827 10.504-10.504 15.669-23.339 15.669-38.331 0-15.008-5.3386-27.669-15.827-38.331-10.504-10.504-23.339-15.842-38.331-15.842-15.008 0-27.842 5.3386-38.346 15.842-10.488 10.661-15.827 23.323-15.827 38.331 0 15.323 5.3386 28.158 15.827 38.661 10.504 10.331 23.339 15.496 38.346 15.496z"
        />
      </glyph
      >
      <glyph
          id="glyph4293"
          horiz-adv-x="333"
          unicode="-"
        >
        <path
            id="path4295"
            d="m40.504 261.16h252.5v-73.669h-252.5v73.669z"
        />
      </glyph
      >
      <glyph
          id="glyph4297"
          horiz-adv-x="249"
          unicode=" "
      />
      <glyph
          id="glyph4299"
          horiz-adv-x="277"
          unicode=":"
        >
        <path
            id="path4301"
            d="m141.16 461.01c15.008 0 27.669-5.3386 38.331-16 10.504-10.504 15.842-23.339 15.842-38.346 0-14.835-5.3386-27.654-15.842-38.331-10.661-10.504-23.323-15.827-38.331-15.827-14.992 0-27.827 5.3228-38.331 15.827-10.661 10.677-16 23.496-16 38.331 0 15.008 5.3386 27.842 16 38.346 10.504 10.661 23.339 16 38.331 16zm-0.99213-365.84c15.323 0 28.158-5.3386 38.835-16 10.488-10.835 15.827-23.669 15.827-38.661 0-15.008-5.3386-27.669-16.173-38.331-10.661-10.504-23.496-15.842-38.488-15.842-15.008 0-27.842 5.3386-38.346 15.842-10.661 10.661-15.827 23.323-15.827 38.331 0 14.992 5.1654 27.827 15.827 38.661 10.504 10.661 23.339 16 38.346 16z"
        />
      </glyph
      >
      <glyph
          id="glyph4303"
          horiz-adv-x="500"
          unicode="3"
        >
        <path
            id="path4305"
            d="m148 332v17.169c36.999 10.667 62.834 20.666 77.166 30.001 14.332 9.33 26.666 23.499 36.999 42.498 10.5 18.999 15.669 38.332 15.669 57.832 0 27-9.836 50.17-29.504 69.503-19.663 19.5-44.165 29.165-73.497 29.165-45.67 0-84.336-24.168-116.17-72.331l-18.168 6.3299c23.499 54.335 53.5 95.333 90.164 122.67 36.502 27.335 77.333 41.002 122.33 41.002 45.832 0 83.667-14.002 113.5-42.001 29.666-28.004 44.666-60.832 44.666-98.166 0-24.502-6.9986-48.001-20.833-70.501-13.835-22.668-35.499-42.665-65.165-59.834 38.165-18.664 67.167-41.499 87.164-68.667 20.002-27.168 30.001-61.334 30.001-102.33 0-69.001-24.999-127.67-74.834-176-49.998-48.335-117-72.498-201-72.498-55.998 0-96.833 9.33-122.5 27.832-18.664 12.999-27.832 29.833-27.832 50.332 0 15 5.336 27.665 15.999 38.332 10.834 10.5 23.169 15.836 37.166 15.836 10.667 0 20.833-2.3359 30.335-6.836 5.1688-2.6657 23.666-16.83 55.334-42.665 31.835-26.002 61.501-38.834 89.166-38.834 24 0 44.666 9.5017 62.003 28.501 17.164 18.999 25.83 43.166 25.83 72.498 0 44.666-15.664 85.669-46.831 123.33-31.333 37.501-77.003 63.503-137.17 77.834z"
        />
      </glyph
      >
      <glyph
          id="glyph4307"
          horiz-adv-x="500"
          unicode="2"
        >
        <path
            id="path4309"
            d="m458.5 127.5l-46.332-127.5h-390.67v18.001c114.84 104.84 195.83 190.49 242.67 256.83 46.836 66.506 70.333 127.17 70.333 182.18 0 42.001-12.835 76.491-38.663 103.5-25.67 26.993-56.332 40.49-92.176 40.49-32.662 0-61.829-9.4964-87.656-28.489-25.843-19.008-45.009-47.009-57.34-83.672h-18.158c8.1577 60.159 28.993 106.33 62.821 138.67 33.67 32.174 75.672 48.332 126.18 48.332 53.671 0 98.491-17.339 134.49-51.828 36.001-34.505 54.002-75.168 54.002-122 0-33.497-7.827-67.168-23.497-100.66-24.001-52.663-63.167-108.51-117.17-167.5-80.995-88.507-131.66-141.83-151.83-160.16h172.84c35.166 0 59.829 1.3229 73.987 4.0001 14.174 2.4883 27.009 7.827 38.348 15.827 11.323 8.0002 21.324 19.339 29.828 34.001h18.001z"
        />
      </glyph
      >
      <glyph
          id="glyph4311"
          horiz-adv-x="500"
          unicode="1"
        >
        <path
            id="path4313"
            d="m117.17 597.17l161.17 78.664h16.158v-559.17c0-36.993 1.4961-60.159 4.5041-69.325 3.1654-9.0082 9.6696-16 19.339-21.008 9.8271-4.8348 29.654-7.6695 59.655-8.331v-18.001h-249.16v18.001c31.324 0.66144 51.498 3.3387 60.663 8.1735 8.9924 4.6616 15.339 10.992 18.993 18.993 3.5119 8.0002 5.3388 31.828 5.3388 71.498v357.51c0 48.159-1.6693 78.995-4.8348 92.664-2.3308 10.504-6.5041 18.158-12.504 22.993-6.0002 4.8348-13.166 7.3388-21.654 7.3388-12 0-28.836-5.008-50.332-15.166l-7.3388 15.166z"
        />
      </glyph
      >
      <glyph
          id="glyph4315"
          horiz-adv-x="500"
          unicode="0"
        >
        <path
            id="path4317"
            d="m36.174 327.16c0 75.514 11.323 140.51 34.159 195.01 22.835 54.49 52.994 95.153 90.838 121.83 29.324 21.166 59.498 31.828 90.822 31.828 50.679 0 96.334-26.001 136.68-77.672 50.49-64.16 75.656-151 75.656-260.83 0-76.837-10.992-142-33.166-195.66-22.158-53.844-50.332-92.838-84.664-117.01-34.332-24.332-67.498-36.332-99.499-36.332-62.994 0-115.67 37.166-157.67 111.83-35.497 62.837-53.151 138.51-53.151 227zm95.657-12.158c0-91.168 11.166-165.68 33.67-223.17 18.504-48.49 46.332-72.837 82.995-72.837 17.67 0 35.844 8.0002 54.663 23.67 19.008 15.843 33.34 42.332 43.009 79.341 14.993 56.002 22.505 135 22.505 236.83 0 75.498-7.8428 138.51-23.513 189-11.654 37.497-26.82 64.002-45.324 79.672-13.339 10.662-29.497 16-48.332 16-22.174 0-41.844-9.8271-59.167-29.67-23.339-26.993-39.34-69.498-47.844-127.5-8.4885-58.002-12.662-115-12.662-171.33z"
        />
      </glyph
      >
      <glyph
          id="glyph4319"
          horiz-adv-x="722"
          unicode="П"
        >
        <path
            id="path4321"
            d="m514.66 626h-307.16v-505.34c0-43.654 5.6693-71.323 16.835-82.992 11.339-11.842 37.496-18.331 78.835-19.669v-18h-285.16v18c41.165 1.3386 67.339 7.8268 78.661 19.669 11.339 11.669 17.165 39.339 17.165 82.992v420.84c0 43.669-5.8268 71.339-17.165 83.008-11.323 11.669-37.496 18.158-78.661 19.496v18.173h686.17v-18.173c-41.008-1.3386-67.339-7.8268-78.677-19.496-11.323-11.669-17.165-39.339-17.165-83.008v-420.84c0-43.654 5.8425-71.323 17.165-82.992 11.339-11.842 37.669-18.331 78.677-19.669v-18h-284.68v18c40.677 1.3386 66.677 7.8268 78 19.339 11.512 11.496 17.165 39.323 17.165 83.323v505.34z"
        />
      </glyph
      >
      <glyph
          id="glyph4323"
          horiz-adv-x="678"
          unicode="Л"
        >
        <path
            id="path4325"
            d="m470.66 626h-205v-185.5c0-187.17-16.158-308.67-48.332-364.5-32.332-55.828-76.664-83.829-133.33-83.829-24.174 0-42.663 6.0002-55.671 17.827-12.992 11.827-19.497 25.67-19.497 41.34 0 12 4.1576 22.331 12.662 31.166 8.5042 8.8192 18.678 13.166 30.662 13.166 10.174 0 21.67-4.8348 34.678-14.678 14.662-10.662 27.828-16 39.655-16 28.347 0 51.34 23.513 69.341 70.506 17.827 46.994 26.836 136.16 26.836 267.33v138.67c0 43.671-5.6695 71.341-17.166 83.01-11.339 11.654-37.497 18.158-78.506 19.497v18.158h532.68v-18.158c-41.009-1.3386-67.168-7.8428-78.68-19.497-11.323-11.67-16.993-39.34-16.993-83.01v-420.83c0-43.671 5.6695-71.325 16.993-82.995 11.512-11.843 37.67-18.331 78.68-19.67v-18.001h-284.67v18.001c40.993 1.3386 67.168 7.827 78.664 19.67 11.339 11.67 16.993 39.324 16.993 82.995v505.34z"
        />
      </glyph
      >
      <glyph
          id="glyph4327"
          horiz-adv-x="687"
          unicode="Д"
        >
        <path
            id="path4329"
            d="m122 662.17h547.5v-18.17c-40.828-1.3323-66.662-7.3323-77.67-18-11.159-10.828-16.658-33.827-16.658-69.326v-442.34c0-27.997 2.1638-47.66 6.3307-58.668 4.3276-10.998 13.663-20.164 28.167-27.165 14.494-7.0016 34.328-10.498 59.83-10.498v-211.33h-18.161c-3.8362 57.336-24.671 103.83-62.504 139.66-37.663 35.84-89.5 53.67-155.17 53.67h-180.16c-68.173 0-122.67-16.668-163.83-50.003-41.169-33.326-65.169-81.166-71.67-143.33h-18v211.33c80.334 15.997 138 70.337 172.67 162.83 34.668 92.665 51.997 216.67 51.997 371.83 0 37.502-6.5008 62.003-19.332 73.503-12.832 11.669-40.668 17.499-83.329 17.83v18.17zm311.66-43.002h-166.5v-56.665c0-79.503-5.4992-156.83-16.167-232.5-10.828-75.506-25.332-134.84-44.003-177.84-18.491-43.162-43.332-79.493-74.164-109.16h235.83c31.833 0 50.665 2.1638 56.334 6.5008 5.6693 4.4976 8.6646 18.662 8.6646 42.832v526.83z"
        />
      </glyph
      >
      <glyph
          id="glyph4331"
          horiz-adv-x="708"
          unicode="У"
        >
        <path
            id="path4333"
            d="m12.661 662.17h268.68v-18.173c-47.339-1.8268-70.835-14.661-70.835-38 0-16.661 17.323-55.339 52.158-116.33l144.5-253.84 105.5 253.84c22.173 53.496 33.165 89.339 33.165 107.5 0 25.339-20.488 41.008-61.496 46.835v18.173h207.5v-18.173c-48.819-5.8268-85.827-38.992-111.32-99.496l-126.33-300.84c-33.008-77.165-59.669-132-80.173-164.5-20.504-32.661-42.835-56.504-67.165-71.669-24.173-14.992-49.339-22.661-75.339-22.661-22.488 0-41.496 4.8346-56.992 14.504-15.339 9.4961-23.165 22.661-23.165 39.165 0 12.158 4.1575 22.158 12.158 30.158 8.1732 7.8425 19.339 11.842 33.339 11.842 13.669 0 29.827-5.4961 48.835-16.504 12.661-6.8346 22.158-10.331 28.661-10.331 25.842 0 54.677 26.661 86.504 80.158l-240.17 422.35c-16.992 29.654-32.992 50.661-48.158 62.992-15.165 12.331-35.008 20.661-59.842 24.835v18.173z"
        />
      </glyph
      >
      <glyph
          id="glyph4335"
          horiz-adv-x="660"
          unicode="Э"
        >
        <path
            id="path4337"
            d="m55.671 454.66h18.001c8.8349 56.836 35.497 102.51 80.16 136.84 44.505 34.332 90.176 51.498 136.67 51.498 53.167 0 101.34-22.662 144.51-68.002 43.324-45.498 68.333-117.99 75.325-217.49h-257.84v-36.174h257.84c0-62.506-11.496-116.66-34.332-162.67-22.662-45.828-50.836-80.002-84.333-102.51-33.67-22.489-73.672-33.655-120.16-33.655-91.845 0-168.51 41.828-230.01 125.5l-13.166-10.331c62.837-101.85 150.16-152.84 262.17-152.84 97.672 0 177.5 33.34 239.5 99.83 62.002 66.664 92.995 148 92.995 244.5 0 70.002-16.489 131.01-49.828 183.34-33.166 52.159-73.341 92.664-120.84 121.5-47.324 28.836-101.5 43.167-162.34 43.167-42.332 0-89.499-9.3389-141.5-28.174-13.654-4.9923-22.993-7.3231-27.828-7.3231-11.827 0-24.158 11.496-37.166 34.662h-16.662l-11.166-221.68z"
        />
      </glyph
      >
      <glyph
          id="glyph4339"
          horiz-adv-x="666"
          unicode="С"
        >
        <path
            id="path4341"
            d="m602 677.17l15.166-225h-15.166c-20.174 67.325-49.009 115.83-86.333 145.5-37.497 29.654-82.333 44.49-134.84 44.49-44.001 0-83.672-11.166-119.17-33.497-35.497-22.331-63.325-57.829-83.656-106.66-20.331-48.836-30.505-109.67-30.505-182.16 0-59.844 9.4964-111.83 28.836-155.83 19.166-43.844 48.002-77.498 86.664-101.01 38.505-23.497 82.506-35.166 132-35.166 42.994 0 80.821 9.1656 113.83 27.67 32.836 18.331 68.994 54.836 108.33 109.5l15.166-9.6696c-33.166-58.994-72.002-102.16-116.16-129.5-44.348-27.324-96.838-40.993-157.85-40.993-109.66 0-194.65 40.663-254.83 122.16-44.836 60.506-67.325 131.83-67.325 213.83 0 66.002 14.819 126.84 44.332 182.16 29.654 55.34 70.49 98.176 122.34 128.68 51.986 30.332 108.66 45.498 170.16 45.498 47.828 0 95.168-11.67 141.66-35.009 13.67-7.1656 23.513-10.835 29.34-10.835 8.6617 0 16.331 3.1654 22.835 9.3389 8.5042 8.6617 14.504 21.008 18.158 36.505h17.008z"
        />
      </glyph
      >
      <glyph
          id="glyph4343"
          horiz-adv-x="632"
          unicode="м"
        >
        <path
            id="path4345"
            d="m320.33 116.66l139.67 330.68h150.84v-18.677c-22.173 0-36.835-2.1575-44.173-6.4882-7.3228-4.5039-13.165-9.8425-17.323-16.346-4.1732-6.4882-6.3307-27.654-6.3307-63.496v-237.32c0-31.008 1.4961-50.835 4.6614-59.842 2.9921-8.9921 9.3386-15.669 18.992-20.331 9.6693-4.5039 24.346-6.8346 44.173-6.8346v-18h-216.33v18c26.661 0 44.661 5.0079 53.669 15.008 9.1654 9.8268 13.654 33.827 13.654 72v268.99l-158.16-374h-17.008l-161.16 374v-268.99c0-31.008 1.6693-50.835 4.8346-59.842 3.3386-8.9921 9.6693-15.669 19.008-20.331 9.4961-4.5039 24.158-6.8346 44-6.8346v-18h-170.84v18c28.992 0 47.496 5.3386 55.669 16 8.1575 10.504 12.158 34.173 12.158 71.008v237.32c0 34.835-1.8268 55.339-5.3228 61.669-3.6693 6.3307-9.1811 12.173-16.677 17.165-7.4961 5.0079-22.835 7.4961-45.827 7.4961v18.677h157.16l140.66-330.68z"
        />
      </glyph
      >
      <glyph
          id="glyph4347"
          horiz-adv-x="725"
          unicode="ж"
        >
        <path
            id="path4349"
            d="m244.67 0v18c17.83 0.33071 30.662 5.3292 38.334 14.995 7.663 9.5055 11.499 27.175 11.499 53.008v136.17c-12.17 0-22.668-9.1748-31.833-27.336l-96.671-194.84h-160.17v18c13.002 0 22.507 2.1638 28.668 6.1701 6 3.9969 12.832 13.833 20.665 28.998l63.506 128.5c12 24 24.501 40.337 37.663 48.501 13.002 8.3339 33.506 14.665 61.503 18.832-17.329 19.502-33.336 53.169-47.83 100.67-8.1732 27.666-14.674 45.336-19.672 53.169-4.8284 7.8331-10.498 11.669-16.998 11.669-8.1638 0-12.832-10.337-14.164-31.172-1.6724-22.167-5.8394-37.994-12.671-47.329-6.8315-9.5055-18.331-14.164-34.167-14.164-13.332 0-25.663 4.9984-36.662 15.326-11.168 10.167-16.668 26.674-16.668 49.002 0 20.835 7.3323 39.166 21.997 54.832 14.665 15.506 34.337 23.339 59.169 23.339 23.669 0 42.832-8.1732 57.496-24.331 14.674-16.337 28.167-42.841 40.507-79.673 15.997-47.169 29.499-76.829 40.328-89.169 10.998-12.161 29.499-18.161 56.003-18.161v120.5c0 23.83-4.1669 40.328-12.331 49.833-8.0032 9.4961-20.674 14.494-37.502 15.165v18h236.34v-18c-19.833-1.3323-33.166-6.1701-39.836-14.665-6.6709-8.504-9.9969-27.005-9.9969-55.673v-115.16c16.328 0 30.331 3.3354 42.161 10.167 12 6.8315 20.835 15.997 26.665 27.326 5.8394 11.509 16.006 38.003 30.34 79.673 13.002 38.003 27.336 63.336 42.832 75.666 15.666 12.331 33.166 18.501 52.337 18.501 21.496 0 40.328-7.1717 56.665-21.506 16.167-14.334 24.331-33.166 24.331-56.665 0-18.832-4.9984-34.167-15.165-45.997-9.9969-12-22.838-17.83-38.504-17.83-31.002 0-46.668 21.666-47.329 65.329 0 18-4.1669 26.835-12.17 26.835-13.162 0-26.334-22.668-39.666-68.334-13.994-47.169-29.329-79.503-45.827-97.172 29.66-4.1669 50.825-10.998 63.496-20.164 12.662-9.3355 25.833-27.997 39.496-56.003l59.499-119.66c6.841-14.334 13.332-23.499 19.332-27.836 6-4.1669 15.836-6.6614 29.509-7.3323v-18h-160.01l-96.832 194.84c-8.6646 17.83-19.162 26.995-31.162 27.336v-145.5c0-23.169 2.9953-38.003 9.326-44.665 6.1701-6.6709 19.672-11.339 40.507-14.003v-18h-236.34z"
        />
      </glyph
      >
      <glyph
          id="glyph4351"
          horiz-adv-x="508"
          unicode="д"
        >
        <path
            id="path4353"
            d="m92.334 447.34h394.5v-18.678c-22.174 0-36.836-2.1576-44.175-6.4884-7.3231-4.5041-13.166-9.8428-17.323-16.331-4.3308-6.5041-6.3309-27.67-6.3309-63.514v-221.16c0-46.663 4.0001-75.168 11.827-85.83 8.0002-10.504 26.662-16.347 56.002-17.339v-142h-18.504c-1.3229 26.678-8.0002 50.002-19.827 69.845-11.843 19.827-28.332 33.828-49.498 41.986-21.166 8.1735-52.506 12.174-93.846 12.174h-115.15c-35.844 0-63.844-3.1654-84.003-9.4964-20.174-6.3309-37.009-19.67-50.506-39.844-13.67-20.158-21.828-44.994-24.662-74.664h-18.174v142c26.678 0.99216 51.01 11.67 72.837 31.828 21.828 20.174 40.993 59.671 57.498 118.66 16.678 58.836 25.009 116.84 25.009 173.83 0 56.002-25.339 84.837-75.672 86.333v18.678zm107.83-31.844v-26.82c0-159.85-28.993-278.84-86.837-357h166c29.828 0 47.167 2.6615 51.671 7.6695 4.6616 4.9923 6.8349 23.654 6.8349 55.828v320.32h-137.67z"
        />
      </glyph
      >
      <glyph
          id="glyph4355"
          horiz-adv-x="395"
          unicode="з"
        >
        <path
            id="path4357"
            d="m40.993 307.16v140.18h20.505c5.8427-5.3388 12.331-7.8428 19.497-7.8428 5.6695 0 17.67 2.504 36.174 7.8428 30.993 8.6617 56.159 13.166 75.672 13.166 42.994 0 78.821-10 107.66-29.844 28.836-19.827 43.34-46.159 43.34-79.152 0-50.348-38.332-87.011-114.84-109.85 89.168-18.489 133.83-60.333 133.83-125.5 0-34.159-14.331-64.333-42.994-90.491-28.662-26.174-70.333-39.34-125-39.34-35.844 0-67.341 6.5041-94.507 19.339s-56.663 34.505-88.664 65.167l12.662 12.662c53.498-41.34 104.16-62.002 152-62.002 27.324 0 49.671 9.3389 67.325 27.843 17.512 18.489 26.332 42.663 26.332 72.333 0 64.664-41.828 98.995-125.5 103v28.332c39.513 0 68.002 10.504 85.672 31.497 17.843 21.008 26.662 43.497 26.662 67.498 0 21.166-7.4963 39.844-22.662 55.671-15.166 16-35.324 24.001-60.333 24.001-58.002 0-96.334-41.497-115.17-124.51h-17.67z"
        />
      </glyph
      >
      <glyph
          id="glyph4359"
          horiz-adv-x="499"
          unicode="л"
        >
        <path
            id="path4361"
            d="m77.168 447.34h399.84v-18.678c-22.001 0-36.836-2.1576-44.175-6.4884-7.3388-4.5041-12.992-9.8428-17.339-16.331-4.1576-6.5041-6.3309-27.67-6.3309-63.514v-237.33c0-34.489 1.8426-55.167 5.3388-61.829 3.6694-6.6616 9.1656-12.504 16.835-17.497 7.6695-5.008 22.993-7.6695 45.671-7.6695v-18.001h-231.35v18.001c25.009 0 42.332 1.3386 52.002 4.0001 9.4964 2.504 17.166 8.8349 22.678 18.835 5.4962 9.8271 8.331 31.324 8.331 64.16v310.5h-149.01v-188.49c0-71.168-3.1654-121.33-9.4964-150.16-6.3309-28.678-18.835-50.002-37.67-63.844-18.662-13.827-39.986-20.82-64.16-20.82-41.671 0-62.506 17.323-62.506 51.828 0 11.67 3.3387 21.339 10 28.836 6.6774 7.3231 15.512 11.166 26.174 11.166 11.339 0 22.001-4.6616 31.67-14.174 12.835-12.331 22.331-18.489 28.836-18.489 14.662 0 25.324 12.158 31.985 36.82 6.6774 24.505 10 67.671 10 129.17v98.664c0 50.679-3.6537 81.672-10.992 92.68-7.3388 11.166-26.001 17.827-56.332 19.985v18.678z"
        />
      </glyph
      >
      <glyph
          id="glyph4363"
          horiz-adv-x="508"
          unicode="б"
        >
        <path
            id="path4365"
            d="m73.168 319.33c37.497 94.003 100.66 141.17 189.5 141.17 62.159 0 113-23.339 152.67-69.829 39.497-46.679 59.325-99.846 59.325-159.67 0-61.829-20.001-118.16-60.159-168.67-40.001-50.663-94.16-76.002-162.51-76.002-69.656 0-122.82 28.836-159.16 86.664-36.505 57.844-54.663 128.18-54.663 211.17 0 64.506 9.3231 124.66 28.158 180.49 18.993 55.844 38.836 97.499 59.671 125.17 20.835 27.67 44.836 47.844 72.16 60.506 27.497 12.835 75.829 19.497 145.17 20.001 49.671 0.66144 79.829 2.1576 90.334 4.5041 10.331 2.3308 20.331 8.8192 29.67 19.497h19.166c-10.835-31.844-23.843-54.663-39.167-68.333-15.339-13.67-31.67-22.835-49.34-27.67-17.497-4.6616-48.994-7.6695-94.16-9.0082-48.836-1.3229-82.664-4.9923-101.34-10.992-18.662-6.0002-38.159-20.662-58.332-43.828-20.158-23.339-36.001-53.844-47.167-91.672-11.166-37.67-17.827-78.837-19.827-123.5zm173 107.83c-32.662 0-59.325-13.496-80.16-40.49-20.835-27.009-31.166-69.514-31.166-127.34 0-78.491 14-137.83 42.001-178.34 28.001-40.332 60.333-60.49 97.153-60.49 33.844 0 60.333 14.158 79.845 42.159 19.323 28.174 28.993 73.168 28.993 135.17 0 65.671-12.662 120.33-38.159 164-25.339 43.655-58.175 65.325-98.507 65.325z"
        />
      </glyph
      >
      <glyph
          id="glyph4367"
          horiz-adv-x="576"
          unicode="к"
        >
        <path
            id="path4369"
            d="m34.668 456.5h232.5v-18c-17.669-0.67087-29.499-5.4992-35.499-14.665-6-9.1748-9.0048-28.507-9.0048-58.167v-112.17c36.501 0 61.503 5.8299 75.005 17.66 13.502 12 26.334 34.668 38.835 68.173 17.169 47.159 34.668 79.833 52.498 97.994 17.669 18 41.83 27.005 72.501 27.005 25.663 0 48.17-7.1717 67.332-21.666 19.162-14.504 28.838-33.666 28.838-57.336 0-18.331-5.6693-33.836-16.838-46.668-11.329-12.832-25.833-19.332-43.833-19.332-36.671 0-55.502 18.832-56.003 56.665-0.33071 26.334-6.1606 39.506-17.159 39.506-16.668 0-33.336-22.337-50.334-66.841-13.672-36.492-23.008-59.499-28.337-68.825-5.1685-9.5055-14.164-19.833-26.835-31.332 32.835-6.5008 56.665-15.336 71.499-26.334 14.835-11.008 34.337-36.34 58.337-75.666l43.502-69.836c22.828-37.172 46.658-56.665 71.83-58.668v-18h-175.83l-135.67 222.17h-29.339v-127c0-28.668 3.3354-48.331 10.167-59.339 6.841-10.828 18.34-16.828 34.337-17.83v-18h-232.5v18c15.336 0.33071 27.666 4.4976 37.162 12.331 9.3355 7.8331 14.173 27.666 14.173 59.499v269.5c0 30.34-3.6662 51.005-11.008 62.334-7.3323 11.168-20.825 16.838-40.328 16.838v18z"
        />
      </glyph
      >
      <glyph
          id="glyph4371"
          horiz-adv-x="576"
          unicode="н"
        >
        <path
            id="path4373"
            d="m34.167 0v18c18.832 0 32.164 4.8378 39.836 14.504 7.663 9.4961 11.499 27.827 11.499 54.832v280.33c0 28.668-3.8362 47.669-11.339 56.835-7.4929 9.3355-20.835 14.003-39.997 14.003v18h232.5v-18c-16.328-0.67087-27.836-4.8378-34.498-12.671-6.6709-7.8331-9.9969-25.663-9.9969-53.329v-120.5h130.83v120.5c0 22.828-2.3339 39.496-7.3323 50.164-4.8378 10.498-16.998 15.836-36.501 15.836v18h231.84v-18c-18.841 0-32.173-4.6677-39.836-14.003-7.663-9.1654-11.499-24.832-11.499-46.498v-290.66c0-28.498 3.8362-47.169 11.329-55.673 7.5024-8.3339 20.835-12.992 40.006-13.663v-18h-231.84v18c16.167 0.33071 27.666 4.1669 34.167 11.499 6.5008 7.3323 9.6662 25.502 9.6662 54.501v137.17h-130.83v-133.83c0-28.838 3.326-47.669 9.9969-56.334 6.6614-8.6646 18.17-13.002 34.498-13.002v-18h-232.5z"
        />
      </glyph
      >
      <glyph
          id="glyph4375"
          horiz-adv-x="499"
          unicode="о"
        >
        <path
            id="path4377"
            d="m249 470.16c39.666 0 76.668-10.167 110.84-30.662 34.167-20.504 60.17-49.673 77.84-87.506 17.83-37.663 26.665-79.002 26.665-124 0-64.838-16.337-119-49.332-162.5-39.666-52.828-94.507-79.162-164.5-79.162-68.665 0-121.66 24.161-158.66 72.331-37.162 48.161-55.663 104-55.663 167.33 0 65.499 18.992 122.5 56.825 171.17 38.003 48.671 90 73.002 156 73.002zm2.0032-34.668c-16.668 0-30.832-6.1606-42.662-18.832-12-12.501-19.833-37.162-23.509-74.164-3.8268-37.002-5.6599-88.337-5.6599-154 0-34.838 2.3339-67.342 6.8315-97.673 3.6662-23.169 11.329-40.668 22.998-52.668 11.669-12.161 25.002-18.161 39.997-18.161 14.674 0 26.835 4.1669 36.671 12.161 12.671 11.168 21.165 26.674 25.332 46.507 6.5008 30.832 9.8362 93.326 9.8362 187.49 0 55.332-3.1654 93.336-9.3355 114-6.1701 20.665-15.336 35.669-27.336 45.166-8.4945 6.8315-19.502 10.167-33.166 10.167z"
        />
      </glyph
      >
      <glyph
          id="glyph4379"
          horiz-adv-x="499"
          unicode="а"
        >
        <path
            id="path4381"
            d="m285.67 67.332c-55.663-49.162-105.67-73.663-150-73.663-26.003 0-47.669 8.4945-64.829 25.663-17.339 16.998-25.843 38.504-25.843 64.167 0 34.838 14.835 66.17 44.835 93.997 30 27.836 95.169 64.838 195.84 111v45.997c0 34.498-1.8331 56.164-5.6693 65.169-3.6662 8.9953-10.828 16.828-21.165 23.499-10.498 6.6709-22.167 9.9969-35.169 9.9969-21.165 0-38.665-4.8284-52.328-14.164-8.3339-5.8299-12.671-12.671-12.671-20.504 0-6.8315 4.6677-15.326 13.672-25.493 12.331-14.003 18.662-27.506 18.662-40.507 0-15.997-6-29.499-17.83-40.828-12-11.168-27.506-16.838-46.668-16.838-20.504 0-37.673 6.3402-51.506 18.671s-20.825 26.835-20.825 43.332c0 23.499 9.326 45.836 27.827 67.172 18.671 21.326 44.504 37.663 77.67 49.162 33.166 11.329 67.663 16.998 103.5 16.998 43.332 0 77.5-9.1654 102.83-27.496 25.162-18.501 41.499-38.334 49.002-59.84 4.6677-13.663 6.8315-45.166 6.8315-94.328v-177.17c0-20.835 0.8315-34.006 2.4945-39.336 1.6724-5.3292 4.0063-9.3355 7.3418-12 3.1654-2.5039 6.9922-3.8362 11.159-3.8362 8.504 0 17.169 6 26.003 18l14.504-11.66c-16.167-24.17-33.005-41.669-50.504-52.507-17.329-10.828-37.162-16.328-59.329-16.328-26.003 0-46.337 6.1606-61.002 18.331s-23.669 30.671-26.835 55.332zm0 35.669v152.84c-39.336-23.169-68.665-47.84-87.836-74.174-12.832-17.66-19.162-35.329-19.162-53.159 0-15.005 5.3292-28.167 16.167-39.676 8.1638-8.8252 19.502-13.162 34.167-13.162 16.328 0 35.169 9.1654 56.665 27.336z"
        />
      </glyph
      >
      <glyph
          id="glyph4383"
          horiz-adv-x="576"
          unicode="п"
        >
        <path
            id="path4385"
            d="m541.5 456.5v-18c-21.506-2.3339-35.509-8.0032-42-17.339-6.5008-9.326-9.8362-28.828-9.8362-58.828v-272c0-28.668 3.6662-47.66 10.828-57.166 7.1717-9.3355 20.835-14.494 41.008-15.165v-18h-232.34v18c20.164 0 32.504 5.4992 37.002 16.167 4.6677 10.828 6.8315 28.337 6.8315 52.668v339h-130.83v-335.5c0-30 2.9953-49.493 8.8252-58.668 5.8394-8.9953 17.669-13.663 35.669-13.663v-18h-232.5v18c19.833 0.33071 33.336 5.4992 40.498 15.165 7.1717 9.8362 10.838 30.671 10.838 62.504v273c0 30-4.0063 49.002-12 57.336-8.0032 8.3339-21.165 12.501-39.336 12.501v18h507.34z"
        />
      </glyph
      >
      <glyph
          id="glyph4387"
          horiz-adv-x="576"
          unicode="и"
        >
        <path
            id="path4389"
            d="m309.17 0v18c29.169 0 43.833 21.836 43.833 65.499v223.66l-130.83-223.66c0.33071-42.662 15.165-64.498 44.495-65.499v-18h-232.5v18c18.501 0 31.833 5.3292 39.496 15.666 7.8331 10.498 11.839 28.668 11.839 54.671v281.83c0 45.496-17.169 68.334-51.336 68.334v18h232.5v-18c-16.998-0.67087-28.668-5.4992-34.998-14.665-6.3307-9.1748-9.4961-27.005-9.4961-53.67v-222.67l130.83 226.51c-0.33071 24.161-3.8362 40.828-10.668 50.325-6.8315 9.5055-18 14.173-33.166 14.173v18h232.34v-18c-17.509-0.34016-30.671-4.6677-39.005-13.172-8.4945-8.4945-12.832-24.832-12.832-48.832v-290.5c0-27.005 3.8362-45.166 11.499-54.34 7.663-8.9953 21.165-13.663 40.337-13.663v-18h-232.34z"
        />
      </glyph
      >
      <glyph
          id="glyph4391"
          horiz-adv-x="540"
          unicode="в"
        >
        <path
            id="path4393"
            d="m35.669 456.5h252c52.658 0 95.83-9.5055 129.33-28.498 33.506-19.002 50.334-47.339 50.334-84.671 0-50.504-34.828-84.501-104.5-102.17 93.997-10.998 141-50.334 141-118.17 0-40.999-19.002-71.66-56.996-92.164-38.173-20.495-90.34-30.832-156.83-30.832h-254.34v18c22.498 2.3339 36.331 7.5024 41.66 15.666 5.5087 8.1638 8.1732 24.17 8.1732 47.83v272c0 36.832-3.0047 59.83-9.0048 68.835-6.1606 9.1654-19.663 14.494-40.828 16.167v18zm193.33-203.5c77.5 2.1638 116.16 31.002 116.16 86.334 0 56.665-38.665 85.493-116.16 86.495v-172.83zm0-30.832v-149.84c0-15.336 2.4945-26.164 7.3323-32.495 4.8284-6.3402 15.496-9.5055 31.663-9.5055 27.336 0 50.665 9.5055 69.836 28.668 19.332 19.332 28.828 43.673 28.828 73.332 0 31.172-10.658 54-31.994 68.334s-56.504 21.506-105.67 21.506z"
        />
      </glyph
      >
      <glyph
          id="glyph4395"
          horiz-adv-x="576"
          unicode="й"
        >
        <path
            id="path4397"
            d="m291.5 527.33c-51.997 0-93.997 8.1732-125.66 24.501-31.833 16.167-47.669 38.164-47.669 65.84 0 14.665 4.1669 26.164 12.662 34.658 8.504 8.504 18.501 12.671 30.34 12.671 25.663 0 44.665-20.164 57.166-60.501 5.4992-18.17 13.002-31.002 22.668-38.164 9.4961-7.1717 24.331-10.668 44.164-10.668 26.665 0 43.833 3.4961 51.336 10.668 7.3323 7.1622 13.833 19.162 19.002 35.66 13.332 42 32.825 63.005 58.498 63.005 12.161 0 22.328-4.1669 30.832-12.331 8.504-8.3339 12.671-20.003 12.671-34.998 0-27.676-14.835-49.673-44.334-65.84-29.669-16.328-70.167-24.501-121.67-24.501zm17.669-527.33v18c29.169 0 43.833 21.836 43.833 65.499v223.66l-130.83-223.66c0.33071-42.662 15.165-64.498 44.495-65.499v-18h-232.5v18c18.501 0 31.833 5.3292 39.496 15.666 7.8331 10.498 11.839 28.668 11.839 54.671v281.83c0 45.496-17.169 68.334-51.336 68.334v18h232.5v-18c-16.998-0.67087-28.668-5.4992-34.998-14.665-6.3307-9.1748-9.4961-27.005-9.4961-53.67v-222.67l130.83 226.51c-0.33071 24.161-3.8362 40.828-10.668 50.325-6.8315 9.5055-18 14.173-33.166 14.173v18h232.34v-18c-17.509-0.34016-30.671-4.6677-39.005-13.172-8.4945-8.4945-12.832-24.832-12.832-48.832v-290.5c0-27.005 3.8362-45.166 11.499-54.34 7.663-8.9953 21.165-13.663 40.337-13.663v-18h-232.34z"
        />
      </glyph
      >
      <glyph
          id="glyph4399"
          horiz-adv-x="443"
          unicode="е"
        >
        <path
            id="path4401"
            d="m420.33 244.67h-250.33c2.8252-60.501 18.992-108.5 48.331-143.67 22.328-26.995 49.332-40.498 80.996-40.498 19.502 0 37.332 5.4992 53.169 16.337 15.997 10.998 33.005 30.662 51.336 58.828l16.498-10.668c-24.662-50.495-51.997-86.164-81.997-107.17-29.84-20.995-64.498-31.493-104-31.493-67.663 0-119 25.994-153.83 78.161-28.006 42-42 94.007-42 156.17 0 76.167 20.665 136.83 61.833 181.99 41.159 45.005 89.5 67.503 144.83 67.503 46.167 0 86.334-18.832 120.33-56.835 33.997-37.994 52.337-94.167 54.832-168.66zm-120 32.665c0 52.498-2.8346 88.337-8.6646 108-5.6693 19.502-14.504 34.337-26.504 44.334-6.8315 5.8299-15.997 8.8347-27.326 8.8347-17.008 0-30.841-8.3339-41.499-25.002-19.172-28.838-28.838-68.665-28.838-119v-17.169h132.83z"
        />
      </glyph
      >
    </font
    >
    <font
        id="FontID0"
        horiz-origin-x="0"
        horiz-origin-y="0"
        vert-origin-x="45"
        horiz-adv-x="722"
        vert-origin-y="90"
        vert-adv-y="90"
        font-weight="400,700"
      >
      <font-face
          id="font-face4404"
          font-family="Arial"
      />
      <missing-glyph
          id="missing-glyph4406"
        >
        <path
            id="path4408"
            d="m0 0z"
        />
      </missing-glyph
      >
      <glyph
          id="glyph4410"
          horiz-adv-x="822"
          unicode="щ"
        >
        <path
            id="path4412"
            d="m68.835 518.5h87.827v-446.17h200.35v446.17h87.827v-446.17h200.66v446.17h87.339v-446.17h58.173v-219.34h-72.677v147.01h-649.5v518.5z"
        />
      </glyph
      >
      <glyph
          id="glyph4414"
          horiz-adv-x="572"
          unicode="ц"
        >
        <path
            id="path4416"
            d="m67.339 518.5h88v-446.17h243.16v446.17h87.827v-446.17h56.677v-219.34h-72.346v147.01h-403.32v518.5z"
        />
      </glyph
      >
      <glyph
          id="glyph4418"
          horiz-adv-x="500"
          unicode="х"
        >
        <path
            id="path4420"
            d="m7.3386 0l189.5 269.5-175.34 249.01h109.84l79.669-121.5c14.819-23.181 26.992-42.504 36-58.173 14.331 21.496 27.496 40.504 39.654 57.165l87.339 122.5h105.01l-179.18-244.17 192.84-274.33h-107.83l-106.5 161.16-28.331 43.496-136.17-204.66h-106.49z"
        />
      </glyph
      >
      <glyph
          id="glyph4422"
          horiz-adv-x="822"
          unicode="ф"
        >
        <path
            id="path4424"
            d="m367.67 715.83h87.827v-247.5c18.331 20.835 38.331 36.331 60.173 46.504 21.827 10.331 45.165 15.496 70.331 15.496 61.496 0 110.17-25.669 146.17-76.992 36-51.165 54-115.84 54-193.51 0-81.165-19.339-146.66-58.173-196.66-38.661-49.827-86.835-74.835-144.5-74.835-18.835 0-38.158 2.8346-57.669 8.6614-19.496 6.0158-42.992 21.842-70.331 48.016v-243.67h-87.827v243.67c-17.496-19.008-37.008-33.181-58.331-42.504-21.339-9.5118-44.331-14.173-69.165-14.173-54.346 0-101.84 23.842-142.5 71.496-40.661 47.669-61.008 116-61.008 204.84 0 75.165 18.346 138.17 55.165 189.16 36.677 51.008 86.173 76.504 148.35 76.504 26.158 0 49.654-5.1654 70.835-15.496 21.165-10.173 40-25.669 56.661-46.504v247.5zm87.339-458.49c0-78.173 10.819-130.68 32.331-157.51 21.496-26.819 48.331-40.331 80.488-40.331 35.842 0 66.346 16.677 91.669 49.669 25.165 33.008 37.842 84.331 37.842 154 0 65.842-11.669 114.84-35.008 147.01-23.323 32.158-53.165 48.331-89.496 48.331-39.165 0-68.504-16.835-88.173-50.331-19.654-33.512-29.654-83.842-29.654-150.84zm-329.01 9.8268c0-73.339 12.331-126 36.835-158.33 24.661-32.173 55.165-48.331 91.496-48.331 38.173 0 66.677 16 85.496 48.158 18.835 32 28.346 80.173 28.346 144.35 0 68.331-10 119.5-29.842 153.65-19.827 34.346-49.827 51.339-89.827 51.339-36.173 0-65.496-16.661-88.331-50s-34.173-80.331-34.173-140.84z"
        />
      </glyph
      >
      <glyph
          id="glyph4426"
          horiz-adv-x="521"
          unicode="ь"
        >
        <path
            id="path4428"
            d="m64.504 518.5h87.827v-202.5h111.34c72.661 0 128.5-14.173 167.67-42.331 39.323-28.173 58.835-67.008 58.835-116.5 0-43.165-16.346-80.331-49.008-110.99-32.661-30.835-84.992-46.173-156.99-46.173h-219.67v518.5zm87.827-446.17h92.331c55.669 0 95.339 6.8346 119.16 20.504 23.669 13.669 35.512 34.992 35.512 63.827 0 22.504-8.6772 42.504-26.331 60.173-17.512 17.496-56.504 26.331-116.68 26.331h-104v-170.84z"
        />
      </glyph
      >
      <glyph
          id="glyph4430"
          horiz-adv-x="802"
          unicode="ш"
        >
        <path
            id="path4432"
            d="m68.835 518.5h87.827v-445.67h200.35v445.67h87.827v-445.67h200.66v445.67h87.339v-518.5h-664v518.5z"
        />
      </glyph
      >
      <glyph
          id="glyph4434"
          horiz-adv-x="510"
          unicode="э"
        >
        <path
            id="path4436"
            d="m199.67 301.83v-72.331h183.16c-5.4988-56.338-20.162-98.495-43.668-126.66-23.667-28.169-56.499-42.339-98.495-42.339-74.174 0-118 43.004-131.34 129l-85.836-11.33c9.0036-56.831 32.671-102.84 71.001-137.67 38.17-34.826 88.334-52.158 150.17-52.158 73.499-4.3406 130.5 18.994 170.84 69.994 40.335 51 59.661 118 57.667 201 0 84.335-21.008 150.5-63.005 198.67-41.996 48.16-99.331 72.331-171.83 72.331-58 0-104.83-15.499-140.66-46.166-35.833-30.838-57.667-70.498-65.502-119l85.504-13.666c14.331 70.669 55.492 106 123.49 106 39.166 0 71.172-14.331 96.008-43.165 24.825-28.834 40.164-66.338 45.662-112.5h-183.16z"
        />
      </glyph
      >
      <glyph
          id="glyph4438"
          horiz-adv-x="541"
          unicode="я"
        >
        <path
            id="path4440"
            d="m474.17 518.5v-518.5h-87.498v202.17h-50.668c-30.999 0-54.001-3.9982-69.168-12.005-15.167-7.9964-37.162-33.658-66.167-76.832l-76.671-113.33h-108.83l94.668 139.67c28.995 42.671 57.828 66.671 86.501 72.17-50.174 6.9994-87.337 24.996-111.67 54.334-24.171 29.166-36.336 62.995-36.336 100.99 0 45.008 15.832 81.334 47.666 109.34 31.674 27.998 77.668 41.996 137.83 41.996h240.34zm-87.498-72.663h-125c-52.329 0-86.168-8.1677-101.34-24.503-14.996-16.164-22.67-35.34-22.67-57.002 0-30.999 11.169-53.669 33.507-68.161 22.328-14.502 61.665-21.834 118.34-21.834h97.166v171.5z"
        />
      </glyph
      >
      <glyph
          id="glyph4442"
          horiz-adv-x="718"
          unicode="ы"
        >
        <path
            id="path4444"
            d="m559.5 518.5h88.001v-518.5h-88.001v518.5zm-491.67 0h88.001v-202.5h111.34c72.502 0 128.5-14.17 167.66-42.339 39.166-28.159 58.835-66.993 58.835-116.49 0-43.165-16.335-80.337-49.167-111-32.661-30.828-85-46.166-156.83-46.166h-219.84v518.5zm88.001-446.17h92.171c55.663 0 95.494 6.8383 119.16 20.505 23.838 13.666 35.672 34.997 35.672 63.831 0 22.499-8.8324 42.5-26.336 60.165-17.665 17.504-56.499 26.336-116.66 26.336h-104v-170.84z"
        />
      </glyph
      >
      <glyph
          id="glyph4446"
          horiz-adv-x="458"
          unicode="т"
        >
        <path
            id="path4448"
            d="m18.501 518.5h421.5v-72.663h-167v-445.84h-87.498v445.84h-167v72.663z"
        />
      </glyph
      >
      <glyph
          id="glyph4450"
          horiz-adv-x="499"
          unicode="с"
        >
        <path
            id="path4452"
            d="m404.34 190l86.33-11.33c-9.3258-59.5-33.496-106.17-72.502-139.84-38.824-33.668-86.662-50.496-143.33-50.496-70.83 0-127.99 23.164-171 69.501-43.165 46.327-64.838 112.83-64.838 199.5 0 55.995 9.3359 105 27.836 147 18.672 41.996 46.831 73.499 84.839 94.497 37.827 20.998 79.159 31.502 123.66 31.502 56.338 0 102.5-14.331 138.16-42.832 35.833-28.501 58.835-68.836 68.997-121.34l-85.494-13.163c-8.1677 34.836-22.499 61.001-43.165 78.665-20.676 17.504-45.672 26.336-75.01 26.336-44.333 0-80.327-15.842-107.99-47.666-27.665-31.674-41.503-81.838-41.503-150.5 0-69.672 13.334-120.33 40.164-152 26.668-31.502 61.504-47.334 104.51-47.334 34.494 0 63.166 10.665 86.33 31.835s37.837 53.669 44.001 97.67z"
        />
      </glyph
      >
      <glyph
          id="glyph4454"
          horiz-adv-x="556"
          unicode="р"
        >
        <path
            id="path4456"
            d="m65.996-198.66v717.16h80.005v-67.335c18.833 26.336 40.164 46.166 64.002 59.339 23.667 13.163 52.501 19.83 86.33 19.83 44.333 0 83.338-11.501 117.17-34.171 34-22.831 59.5-54.998 76.671-96.491 17.332-41.503 25.994-87.004 25.994-136.5 0-53.004-9.497-100.83-28.662-143.33-19.004-42.5-46.67-75-83.006-97.67-36.326-22.499-74.496-33.829-114.5-33.829-29.327 0-55.502 6.1635-78.826 18.501-23.335 12.327-42.339 27.998-57.335 46.831v-252.33h-87.84zm79.501 454.99c0-66.661 13.505-116 40.506-148 27.001-31.835 59.832-47.838 98.163-47.838 39.005 0 72.502 16.506 100.34 49.671 27.826 33.003 41.825 84.164 41.825 153.5 0 66.157-13.666 115.5-40.828 148.5-27.172 32.832-59.671 49.328-97.337 49.328-37.495 0-70.669-17.494-99.502-52.501-28.834-34.997-43.165-85.997-43.165-152.67z"
        />
      </glyph
      >
      <glyph
          id="glyph4458"
          horiz-adv-x="520"
          unicode="ч"
        >
        <path
            id="path4460"
            d="m33.668 518.5h88.001v-98.163c0-42.168 2.4976-73.005 7.4929-92 5.0053-19.004 17.171-35.672 36.336-49.842 19.165-14.16 43.336-21.159 72.331-21.159 33.174 0 76.168 8.8324 128.84 26.326v234.84h88.001v-518.5h-88.001v209c-54.001-17-104.5-25.329-151.34-25.329-39.328 0-74.164 10.001-104.16 30.002-30.163 20.001-50.668 44.494-61.333 73.499-10.836 28.834-16.164 60.83-16.164 95.665v135.67z"
        />
      </glyph
      >
      <glyph
          id="glyph4462"
          horiz-adv-x="499"
          unicode="у"
        >
        <path
            id="path4464"
            d="m61.998-199.67l-9.8294 82.502c19.336-5.1665 35.994-7.8353 50.335-7.8353 19.498 0 35.158 3.3335 46.831 9.8395 11.834 6.4959 21.331 15.499 28.834 27.333 5.67 8.6612 14.502 30.495 26.829 65.331 1.6718 4.9953 4.3406 11.995 7.8353 21.502l-196.67 519.5h94.668l108-300.17c13.828-38.17 26.497-78.162 37.495-120.17 10.172 40.335 22.166 79.672 36.165 118.17l110.84 302.16h87.83l-197.17-527.33c-21.159-57.002-37.666-96.169-49.328-117.67-15.671-28.995-33.496-50.164-53.669-63.659-20.334-13.505-44.333-20.334-72.331-20.334-17 0-35.833 3.6659-56.67 10.826z"
        />
      </glyph
      >
      <glyph
          id="glyph4466"
          horiz-adv-x="277"
          unicode="/"
        >
        <path
            id="path4468"
            d="m0-12.165l207.5 740.17h70.334l-207-740.17h-70.83z"
        />
      </glyph
      >
      <glyph
          id="glyph4470"
          horiz-adv-x="333"
          unicode=")"
        >
        <path
            id="path4472"
            d="m123.5-210.5h-63.005c97.337 156.33 146 312.67 146 469.33 0 61.162-6.9994 121.83-20.998 182.17-10.998 48.664-26.497 95.665-46.337 140.49-12.659 29.337-38.834 78.172-78.665 146.5h63.005c61.162-81.667 106.5-163.66 135.83-246 25.006-71.001 37.505-145.16 37.505-222.67 0-88.001-16.839-172.83-50.507-255-33.658-81.999-74.667-153.66-122.83-214.83z"
        />
      </glyph
      >
      <glyph
          id="glyph4474"
          horiz-adv-x="333"
          unicode="("
        >
        <path
            id="path4476"
            d="m233.83-210.5c-48.502 61.162-89.502 132.83-123 214.83-33.496 82.17-50.335 167-50.335 255 0 77.507 12.498 151.67 37.666 222.67 29.337 82.331 74.506 164.33 135.67 246h63.005c-39.338-67.668-65.331-116-78.001-145-20.001-44.826-35.501-91.828-47.002-140.66-13.999-60.83-20.998-122-20.998-183.5 0-156.67 48.664-313 146-469.33h-63.005z"
        />
      </glyph
      >
      <glyph
          id="glyph4478"
          horiz-adv-x="277"
          unicode=","
        >
        <path
            id="path4480"
            d="m88.837 0v100.17h100.17v-100.17c0-36.83-6.5059-66.5-19.508-89.17-13.163-22.499-33.829-39.992-61.998-52.501l-24.503 37.666c18.501 8.1677 32.167 20.172 41 35.833 8.8424 15.842 13.666 38.502 14.674 68.171h-49.832z"
        />
      </glyph
      >
      <glyph
          id="glyph4482"
          horiz-adv-x="277"
          unicode="."
        >
        <path
            id="path4484"
            d="m90.831 0v100.17h100.17v-100.17h-100.17z"
        />
      </glyph
      >
      <glyph
          id="glyph4486"
          horiz-adv-x="277"
          unicode=" "
      />
      <glyph
          id="glyph4488"
          horiz-adv-x="556"
          unicode="1"
        >
        <path
            id="path4490"
            d="m372.5 0h-87.83v560c-21.17-20.172-48.835-40.335-83.167-60.507-34.504-20.162-65.331-35.329-92.674-45.33v84.829c49.167 23.174 92.171 51.171 129 84.003 36.669 33.003 62.834 64.838 78.172 95.837h56.499v-718.84z"
        />
      </glyph
      >
      <glyph
          id="glyph4492"
          horiz-adv-x="333"
          unicode="”"
        >
        <path
            id="path4494"
            d="m42.5 621.16v102h94.165v-80.67c0-43.497-4.9953-75-14.996-94.165-13.999-26.336-35.833-46.166-65.502-59.5l-21.502 34.665c17.504 7.1706 30.666 18.34 39.338 33.839 8.6612 15.499 13.334 36.669 14.331 63.831h-45.834zm151.33 0v102h94.336v-80.67c0-43.497-5.1665-75-15.167-94.165-13.999-26.336-35.833-46.166-65.492-59.5l-21.502 34.665c17.665 7.1706 30.666 18.34 39.328 33.839 8.6712 15.499 13.505 36.669 14.331 63.831h-45.834z"
        />
      </glyph
      >
      <glyph
          id="glyph4496"
          horiz-adv-x="333"
          unicode="“"
        >
        <path
            id="path4498"
            d="m134.83 595.66v-102h-94.336v80.498c0 43.668 5.1665 75.171 15.671 94.84 13.666 25.994 35.329 45.662 64.999 58.996l21.331-34.171c-17.826-7.4929-30.999-18.662-39.499-33.496-8.5-14.664-13.163-36.336-14.16-64.666h45.995zm151.34 0v-102h-94.336v80.498c0 43.668 5.3276 75.171 15.671 94.84 13.666 25.994 35.329 45.662 64.999 58.996l21.492-34.171c-17.997-7.4929-31.16-18.662-39.66-33.496-8.3389-14.664-13.173-36.336-14.17-64.666h46.005z"
        />
      </glyph
      >
      <glyph
          id="glyph4500"
          horiz-adv-x="556"
          unicode="5"
        >
        <path
            id="path4502"
            d="m41.503 187.5l92.332 7.8252c6.8282-44.998 22.67-78.665 47.495-101.32 25.006-22.67 54.998-34 90.167-34 42.339 0 78.172 15.993 107.34 47.828 29.337 32.006 44.001 74.335 44.001 127.01 0 50.164-13.999 89.663-42.168 118.66-28.169 29.005-64.999 43.507-110.67 43.507-28.33 0-53.83-6.5059-76.661-19.336-22.831-12.831-40.667-29.498-53.669-50.003l-82.502 10.665 69.34 367.68h355.99v-84.003h-285.67l-38.663-192.34c43.004 30.002 88.162 45.008 135.34 45.008 62.501 0 115.16-21.673 158.17-65.009 42.994-43.326 64.495-98.999 64.495-167 0-64.828-18.994-120.83-56.66-168-46.005-57.838-108.67-86.833-188.01-86.833-65.16 0-118.32 18.168-159.5 54.666-41.171 36.498-64.666 84.829-70.498 145z"
        />
      </glyph
      >
      <glyph
          id="glyph4504"
          horiz-adv-x="556"
          unicode="_"
        >
        <path
            id="path4506"
            d="m-15.165-198.67v63.342h582.49v-63.342h-582.49z"
        />
      </glyph
      >
      <glyph
          id="glyph4508"
          horiz-adv-x="833"
          unicode="М"
        >
        <path
            id="path4510"
            d="m74.161 0v715.83h142.68l169.33-506.83c15.661-47.161 27.165-82.5 34.157-105.99 8.1732 25.996 20.835 64.334 38.173 114.83l171.33 498h127.5v-715.83h-91.334v599.17l-208-599.17h-85.5l-207 609.33v-609.33h-91.334z"
        />
      </glyph
      >
      <glyph
          id="glyph4512"
          horiz-adv-x="677"
          unicode="Д"
        >
        <path
            id="path4514"
            d="m142.17 715.83h435.49v-631.33h64.5v-251.49h-84.496v167h-473.17v-167h-84.496v251.49h55.665c57.673 86.834 86.504 262.5 86.504 526.84v104.49zm340.66-84.496h-249.5v-36.661c0-60.838-5.3386-144-16.335-249.67-10.831-105.66-32.338-192.5-64.169-260.5h330v546.84z"
        />
      </glyph
      >
      <glyph
          id="glyph4516"
          horiz-adv-x="923"
          unicode="Ж"
        >
        <path
            id="path4518"
            d="m510.33 715.83v-313.5c46.5 0 78.508 8.5039 95.834 25.665 17.504 17.008 39.673 57.177 66.673 120.34 19.831 46.83 36.165 79.996 49.169 99.33 12.827 19.335 31.157 35.669 54.827 48.838 23.835 13.157 49.83 19.831 78.165 19.831 30.838 0 50.173-0.33071 57.673-1.0039v-82.004c-3 0-9.1653 0.17716-18.673 0.50787-10.335 0.33071-16.665 0.49606-18.992 0.49606-30.342 0-52.677-7.3346-67.334-22.004-15-14.657-32.173-45.992-51.342-93.826-20.823-51.673-38.823-87-54.165-105.67-15.331-18.661-37.5-34.334-66.496-46.665 46.996-12.992 92.338-55.665 136.33-127.83l147.5-238.33h-117.33l-119.5 194.34c-31.996 51.496-58.83 87.661-80.657 108.83-21.838 21.165-52.334 31.831-91.677 31.831v-335h-97.157v335c-31.334 0-59.008-8.3267-82.842-24.661-24-16.5-51.827-51.838-83.657-106.17l-6-9.8267-119.5-194.34h-117.67l147.34 238.33c45 72.496 90.496 115.17 136.83 127.83-25.831 10.5-46.83 24.331-63 41.834-16.335 17.338-35.669 54.165-58.169 110.5-20.504 51.165-37.996 83.161-52.665 96.165-14.669 13.169-36.496 19.665-65.504 19.665l-37.996-1.0039v82.004c3.496 0.67323 21.661 1.0039 54.661 1.0039 31.169 0 58.334-6.5078 81.165-19.335 23.008-12.838 41.008-28.996 54.012-48.33 12.992-19.335 29.823-52.842 50.327-100.33 27.331-64.169 49.5-104.34 66.673-120.67 16.996-16.169 48.992-24.661 96-25.334v313.5h97.157z"
        />
      </glyph
      >
      <glyph
          id="glyph4520"
          horiz-adv-x="667"
          unicode="Е"
        >
        <path
            id="path4522"
            d="m79.169 0v715.83h517.5v-84.496h-422.83v-219.16h396v-84h-396v-243.67h439.5v-84.496h-534.16z"
        />
      </glyph
      >
      <glyph
          id="glyph4524"
          horiz-adv-x="777"
          unicode="О"
        >
        <path
            id="path4526"
            d="m48.331 348.67c0 118.83 31.835 211.82 95.665 279 63.841 67.164 146.17 100.83 247.18 100.83 65.996 0 125.66-15.832 178.66-47.334 53.004-31.674 93.5-75.664 121.34-132.17 27.826-56.328 41.664-120.5 41.664-192 0-72.663-14.502-137.67-43.829-194.84-29.337-57.335-70.84-100.66-124.51-130.17-53.83-29.498-111.66-44.162-173.83-44.162-67.496 0-127.67 16.164-180.66 48.835-53.165 32.499-93.339 76.994-120.67 133.33-27.333 56.166-41 115.84-41 178.67zm97.67-1.5006c0-86.34 23.164-154.17 69.501-203.84 46.498-49.661 104.67-74.496 174.66-74.496 71.334 0 130 24.996 176 75.161 45.995 50.174 69.168 121.34 69.168 213.51 0 58.161-10.001 109-29.67 152.5-19.669 43.497-48.502 77.165-86.33 101.16-37.998 23.838-80.498 35.833-127.67 35.833-67.164 0-124.83-23.002-173.16-69.168-48.331-45.995-72.502-123-72.502-230.66z"
        />
      </glyph
      >
      <glyph
          id="glyph4528"
          horiz-adv-x="656"
          unicode="Б"
        >
        <path
            id="path4530"
            d="m81.495 715.83h464.34v-84.496h-369.5v-220.67h170.84c63.166 0 113.33-6.0024 150.66-18.168 37.162-12.005 67.164-34.665 89.502-68 22.499-33.335 33.829-72.17 33.829-116.5 0-36.165-8.1677-69.833-24.161-101.34-16.174-31.331-40.174-56.992-72.17-76.832-31.835-19.83-86.168-29.831-163-29.831h-280.34v715.83zm94.84-635.34h189.34c51.161 0 89.492 10.504 114.99 31.331 25.671 20.837 38.341 52.007 38.341 93.671 0 29.67-7.3418 54.495-22.005 74.335-14.502 19.83-34.997 32.993-61.001 39.499-25.994 6.4959-70.498 9.8294-133.33 9.8294h-126.33v-248.67z"
        />
      </glyph
      >
      <glyph
          id="glyph4532"
          horiz-adv-x="541"
          unicode="Г"
        >
        <path
            id="path4534"
            d="m78.665 715.83h462.84v-84.496h-368.17v-631.34h-94.668v715.83z"
        />
      </glyph
      >
      <glyph
          id="glyph4536"
          horiz-adv-x="718"
          unicode="И"
        >
        <path
            id="path4538"
            d="m74.667 715.83h135.33v-476.5l290 476.5h144v-715.83h-135.17v467.33l-289.66-467.33h-144.5v715.83z"
        />
      </glyph
      >
      <glyph
          id="glyph4540"
          horiz-adv-x="610"
          unicode="К"
        >
        <path
            id="path4542"
            d="m75.166 715.83h144.5v-304.67c32.333 3.1674 54.167 11.501 65.502 24.83 11.33 13.334 29 50.502 52.667 111.34 29.997 77.497 60.165 125.67 90.333 144.5 29.997 18.999 78.333 28.33 145 28.33 3.3335 0 10.333 0.17121 20.998 0.50356v-106.83l-20.5 0.49852c-29.498 0-51.166-3.6659-64.833-10.998-13.666-7.3368-24.83-18.501-33.164-33.502-8.5-15.001-21.003-45.667-37.666-92.332-8.8374-24.669-18.334-45.335-28.501-62.003-10.333-16.496-28.501-32.167-54.5-46.831 32.167-9.1697 58.83-27.499 79.834-55.17 20.998-27.665 44.001-66.832 68.997-117.17l97.67-196.33h-169.83l-85.499 185c-1.3344 2.6638-4.0033 7.6641-8.3338 15.167-1.5006 2.6638-7.6691 13.833-18.002 33.663-18.501 35.168-33.834 57.169-45.667 66.001-11.834 8.8324-29.997 13.334-54.5 13.666v-313.5h-144.5v715.83z"
        />
      </glyph
      >
      <glyph
          id="glyph4544"
          horiz-adv-x="722"
          unicode="В"
        >
        <path
            id="path4546"
            d="m73.167 715.83h286.16c56.67 0 99.004-2.3315 126.84-7.1656 27.832-4.668 52.667-14.502 74.667-29.503 22-14.996 40.164-34.831 54.832-59.832 14.669-24.83 22-52.833 22-83.666 0-33.502-8.9985-64.334-27.001-92.332-18.168-28.003-42.666-49.001-73.499-63 43.497-12.669 77.165-34.337 100.5-64.833 23.501-30.672 35.168-66.671 35.168-108 0-32.499-7.503-64.168-22.67-95.001-15.167-30.666-35.833-55.331-61.998-73.665-26.17-18.334-58.503-29.67-97-34-23.999-2.5027-82.17-4.1694-174.34-4.8341h-243.66v715.83zm144.67-119.17v-165.5h94.668c56.333 0 91.33 0.83087 105 2.4976 24.669 2.835 44.167 11.335 58.337 25.5 14.165 14.165 21.164 32.832 21.164 56 0 22.166-5.9973 40.169-18.163 54.001-12.337 13.833-30.5 22.166-54.5 24.996-14.336 1.6668-55.502 2.5027-123.5 2.5027h-83.001zm0-284.67v-191.33h133.67c52.163 0 85.166 1.3344 99.165 4.3356 21.502 3.832 39 13.495 52.501 28.496 13.5 15.167 20.334 35.501 20.334 60.834 0 21.502-5.3326 39.665-15.666 54.666-10.504 15.001-25.5 25.998-45.169 32.832-19.669 6.8332-62.501 10.167-128.16 10.167h-116.67z"
        />
      </glyph
      >
      <glyph
          id="glyph4548"
          horiz-adv-x="722"
          unicode="Н"
        >
        <path
            id="path4550"
            d="m73.167 0v715.83h144.67v-281.67h283.17v281.67h144.5v-715.83h-144.5v313h-283.17v-313h-144.67z"
        />
      </glyph
      >
      <glyph
          id="glyph4552"
          horiz-adv-x="722"
          unicode="А"
        >
        <path
            id="path4554"
            d="m718.33 0h-157.33l-62.501 162.67h-286.16l-59.002-162.67h-153.33l278.83 715.83h152.83l286.66-715.83zm-266.16 283.17l-98.667 265.67-96.668-265.67h195.33z"
        />
      </glyph
      >
      <glyph
          id="glyph4556"
          horiz-adv-x="701"
          unicode="Л"
        >
        <path
            id="path4558"
            d="m124 715.83h501.5v-715.83h-144.5v594.67h-215.34v-305.67c0-87.503-3.0012-148.66-8.8324-183.33-5.8312-34.665-20.167-61.665-42.666-80.997-22.665-19.336-58-29.005-106.34-29.005-16.829 0-47.666 1.5006-92.166 4.8341v111.84l32.167-0.49852c30.334 0 50.668 3.9982 61.001 12.166 10.499 8.1677 15.666 28.164 15.666 60.165l-0.49852 123v408.66z"
        />
      </glyph
      >
      <glyph
          id="glyph4560"
          horiz-adv-x="718"
          unicode="П"
        >
        <path
            id="path4562"
            d="m74.667 715.83h569.34v-715.83h-144.5v595.66h-280.33v-595.66h-144.5v715.83z"
        />
      </glyph
      >
      <glyph
          id="glyph4564"
          horiz-adv-x="1010"
          unicode="Ю"
        >
        <path
            id="path4566"
            d="m79.996 715.83h94.842v-321.33h137.66c6.8386 101.67 40.169 182.5 100.17 243 59.834 60.33 134.01 90.508 222.67 90.508 93.33 0 170.67-32.834 232.17-98.669 61.334-65.669 91.996-154.84 91.996-267.51 0-117.16-30.661-208.83-91.83-275-61.169-66-139.5-99-234.84-99-86.669 0-158.83 28.5-216.5 85.665-57.838 57.165-91.842 136.17-101.83 237h-139.66v-310.5h-94.842v715.83zm327.67-361.33c0-90.496 20.835-160.66 62.504-210.66 41.657-49.996 96.33-75 164.16-75 69.33 0 124.66 25.004 166 75.165 41.327 50.173 61.996 122.34 61.996 216.33 0 89.173-20.327 159.51-61.004 210.67-40.83 51.33-95.822 76.996-165.16 76.996-70.5 0-126.33-25.996-167.16-78-40.83-51.827-61.334-123.66-61.334-215.5z"
        />
      </glyph
      >
      <glyph
          id="glyph4568"
          horiz-adv-x="667"
          unicode="Р"
        >
        <path
            id="path4570"
            d="m77.161 0v715.83h270.01c47.492 0 83.822-2.3268 108.83-6.8267 35.173-5.8346 64.665-16.996 88.5-33.496 23.669-16.335 42.838-39.508 57.33-69 14.504-29.669 21.673-62.173 21.673-97.677 0-60.826-19.335-112.5-58.004-154.66-38.834-42-108.83-63.165-210-63.165h-183.66v-291h-94.677zm94.677 375.5h185.16c61.169 0 104.67 11.338 130.33 34.169 25.665 22.831 38.504 54.838 38.504 96.165 0 30-7.5 55.677-22.665 77.008-15.177 21.331-35.008 35.327-59.834 42.165-16.004 4.1693-45.342 6.3307-88.334 6.3307h-183.16v-255.84z"
        />
      </glyph
      >
      <glyph
          id="glyph4572"
          horiz-adv-x="610"
          unicode="Т"
        >
        <path
            id="path4574"
            d="m259.33 0v631.33h-235.83v84.496h567.33v-84.496h-236.83v-631.33h-94.665z"
        />
      </glyph
      >
      <glyph
          id="glyph4576"
          horiz-adv-x="760"
          unicode="Ф"
        >
        <path
            id="path4578"
            d="m336 629.84v91.828h88.827v-91.828c91.174-4.8341 163-32.338 215.83-82.17 52.672-50.003 79.008-112.16 79.008-186.34 0-72.663-25.5-134.33-76.671-185-51-50.839-123.83-78.837-218.17-84.003v-92.332h-88.827v92.332c-84.668 3.1724-155.16 29.005-211.5 77.336-56.328 48.331-84.496 112.16-84.496 191.66 0 79.672 28.169 143.5 84.335 191.33 56.166 48.009 126.66 73.67 211.66 77.175zm88.827-81.002v-375c61.172 2.9911 109.34 20.666 144.5 53.165 35.168 32.661 52.672 77.326 52.672 134.33 0 56.005-17.171 100.34-51.665 133-34.504 32.832-83.006 50.839-145.51 54.505zm-88.827-0.50356c-59.007-2.6688-106.67-20.001-143.17-52.168-36.498-32.328-54.666-77.165-54.666-134.83 0-57.002 17.997-101.67 54.001-134.33 36.004-32.499 83.832-50.003 143.84-52.672v374z"
        />
      </glyph
      >
      <glyph
          id="glyph4580"
          horiz-adv-x="730"
          unicode="Ц"
        >
        <path
            id="path4582"
            d="m75.166 715.83h144.5v-595.66h280.33v595.66h144.5v-595.66h59.666v-276.34h-120.17v156.17h-508.83v715.83z"
        />
      </glyph
      >
      <glyph
          id="glyph4584"
          horiz-adv-x="622"
          unicode="У"
        >
        <path
            id="path4586"
            d="m0 715.83h161.67l167-371.67 142.5 371.67h150.84l-241.67-544c-26.336-58.835-53.17-103.67-80.503-134.5-27.333-30.666-62.667-46.166-106-46.166-42.666 0-76.002 2.83-100 8.3338v107.5c20.5-1.3344 39-1.9991 55.502-1.9991 33.668 0 57.667 6.1635 72.164 18.334 14.502 12.166 28.335 38.497 41.669 78.832l-263.17 513.67z"
        />
      </glyph
      >
      <glyph
          id="glyph4588"
          horiz-adv-x="711"
          unicode="Э"
        >
        <path
            id="path4590"
            d="m291 417h224.67c-5.8312 53.337-23.667 97.67-53.498 133-29.836 35.334-70.17 53.004-121.34 53.004-38.663 0-71.334-10.67-97.664-32.167-26.336-21.502-44.998-50.003-55.668-85.504l-143 32.671c14.502 63.498 46.836 114.33 96.834 152.66 50.003 38.17 115 57.335 195.17 57.335 104.16 0 185.5-34.499 244-103.67 58.669-69.168 88.001-159.34 88.001-270.33 0-75.498-13.666-140.5-40.833-194.83-27.167-54.334-64.5-96.501-112-126.5-47.5-29.831-104.83-44.832-171.83-44.832-163.17 0-263.67 76.666-301.33 230l145 44.832c7.503-51.665 26.004-89.995 55.502-115 29.332-24.835 64.666-37.334 105.67-37.334 42.334 0 78.499 14.835 108.67 44.499 30.002 29.498 49.5 76.999 58.332 142h-224.67v120.16z"
        />
      </glyph
      >
      <glyph
          id="glyph4592"
          horiz-adv-x="458"
          unicode="з"
        >
        <path
            id="path4594"
            d="m180.67 234.33v68.834c37.157 0.33071 62.326 1.8307 75.992 4.5 13.5 2.5039 26.173 10.335 38.338 23.338 12 12.992 18 29.327 18 48.827 0 23.835-7.8307 42.838-23.669 57-15.838 14.173-36.165 21.165-61.334 21.165-49.5 0-84.165-29.161-104-87.33l-83.504 13.665c25.996 97.334 88.83 146.01 188.5 146.01 55.334 0 98.669-15.165 130.17-45.508 31.323-30.165 47.161-66.33 47.161-108.33 0-42.33-20.669-76.004-61.665-101.16 26.161-14.008 45.661-31.842 58.665-53.338 13.004-21.661 19.5-47.327 19.5-76.996 0-46.5-16.831-84.342-50.834-113.34-33.827-28.831-81.165-43.334-142-43.334-118.16 0-186.66 52.5-205.66 157.66l82.665 17.504c7.5-33.165 22.665-58.83 45.673-76.996 22.831-18.342 49.169-27.342 78.826-27.342 29.504 0 54.177 8.3386 74.008 25.004 19.665 16.831 29.492 38.173 29.492 64.334 0 20.173-6.1653 37.665-18.661 52.665-12.331 15-25.5 24.331-39.496 28.004-14.008 3.8268-39.342 5.6693-76.169 5.6693-2.8346 0-9.6732-0.16535-19.996-0.50787z"
        />
      </glyph
      >
      <glyph
          id="glyph4596"
          horiz-adv-x="583"
          unicode="л"
        >
        <path
            id="path4598"
            d="m108.83 518.5h408.34v-518.5h-87.508v445.84h-232.83v-258.33c0-60.175-1.9941-100.01-5.8312-119.17-3.9982-19.165-14.664-35.994-32.328-50.335-17.504-14.331-43.004-21.502-76.168-21.502-20.505 0-44.172 1.3395-70.84 4.0083v73.167h38.673c18.168 0 31.16 1.9941 38.995 5.66 7.8353 3.8371 13.002 9.6683 15.671 17.836 2.6688 8.1677 3.827 34.665 3.827 79.662v341.67z"
        />
      </glyph
      >
      <glyph
          id="glyph4600"
          horiz-adv-x="669"
          unicode="ж"
        >
        <path
            id="path4602"
            d="m379.34 518.5v-224c27.998 0 47.828 5.3377 59.158 16.003 11.34 10.826 28.008 41.996 49.842 93.832 20.495 49.167 38.824 80.498 55.159 94.165 15.832 13.334 41.332 20.001 76.168 20.001h32.167v-72.663l-23.828 0.49348c-23.506 0-38.502-3.4947-45.008-10.333-6.8282-7.1606-17.161-28.501-31.16-64.002-13.173-33.829-25.168-57.164-36.165-70.165-11.169-13.163-28.34-24.996-51.836-35.662 38.17-10.172 75.161-45.34 111.34-105.5l96.662-160.66h-96.662l-94.175 160.66c-19.165 32.499-35.994 53.84-50.325 64.002-14.341 10.001-31.341 14.996-51.332 14.996v-239.66h-89.834v239.66c-19.508 0-36.336-4.8241-50.668-14.825-14.331-9.8395-31.17-31.341-50.335-64.173l-94.336-160.66h-96.662l96.33 160.66c36.336 60.165 73.67 95.333 111.67 105.5-26.004 11.995-44.172 25.168-54.666 39.328-10.333 13.999-26.004 47.838-46.831 101.17-7.1706 17.997-14.835 28.995-23.002 33.325-8.3389 4.1694-20.998 6.3347-37.505 6.3347-4.3306 0-12.831-0.16114-25.994-0.49348v72.663h12.327c33.839 0 57.667-2.0042 71.505-6.0024 13.828-4.1694 26.165-12.669 37.162-25.994 10.836-13.173 25.006-40.506 42.671-82.17 21.502-51.171 37.827-82.17 48.996-93.339 11.34-10.998 30.999-16.496 59.339-16.496v224h89.834z"
        />
      </glyph
      >
      <glyph
          id="glyph4604"
          horiz-adv-x="531"
          unicode="в"
        >
        <path
            id="path4606"
            d="m66.338 518.5h202.66c49.832 0 86.833-4.1694 111.16-12.337 24.171-8.3288 44.998-23.496 62.501-45.662 17.332-22.166 26.165-48.664 26.165-79.672 0-24.664-5.1665-46.327-15.499-64.666-10.162-18.329-25.661-33.829-46.166-46.166 24.503-8.1677 44.665-23.325 60.84-45.662 16.164-22.338 24.161-48.664 24.161-79.33-3.1623-49.167-20.827-85.675-52.662-109.34-32.006-23.828-78.333-35.662-139.17-35.662h-233.99v518.5zm87.991-218.17h93.671c37.495 0 63.166 1.8329 77.165 5.8412 13.999 3.827 26.497 11.824 37.666 23.657 10.998 11.834 16.506 26.175 16.506 42.671 0 27.333-9.6683 46.498-29.005 57.164-19.336 10.836-52.501 16.174-99.331 16.174h-96.672v-145.51zm0-228h115.67c49.842 0 84.003 5.67 102.5 17.332 18.672 11.501 28.33 31.502 29.337 59.671 0 16.668-5.3377 31.996-16.174 46.166-10.665 14.17-24.664 23.164-41.825 26.829-17.342 3.8371-45.008 5.67-83.167 5.67h-106.34v-155.67z"
        />
      </glyph
      >
      <glyph
          id="glyph4608"
          horiz-adv-x="558"
          unicode="й"
        >
        <path
            id="path4610"
            d="m65.996 518.5h87.84v-395.5l243.66 395.5h94.668v-518.5h-87.83v393l-243.67-393h-94.668v518.5zm305.18 196.34h59.994c-4.8341-40.667-19.669-72.008-44.665-93.671-24.835-21.834-58-32.832-99.331-32.832-41.664 0-75 10.836-99.835 32.499-24.996 21.663-39.831 53.004-44.665 94.004h60.004c4.4917-22.166 13.666-38.673 27.162-49.5 13.505-11.008 31.664-16.335 54.334-16.335 26.497 0 46.337 5.1665 59.832 15.832 13.505 10.504 22.67 27.162 27.172 50.003z"
        />
      </glyph
      >
      <glyph
          id="glyph4612"
          horiz-adv-x="558"
          unicode="и"
        >
        <path
            id="path4614"
            d="m65.996 518.5h87.84v-395.5l243.66 395.5h94.668v-518.5h-87.83v393l-243.67-393h-94.668v518.5z"
        />
      </glyph
      >
      <glyph
          id="glyph4616"
          horiz-adv-x="687"
          unicode="м"
        >
        <path
            id="path4618"
            d="m68.332 518.5h136.66l136.33-415 151.34 415h126.5v-518.5h-87.84v417.5l-153.33-417.5h-78.665l-145 437.5v-437.5h-85.997v518.5z"
        />
      </glyph
      >
      <glyph
          id="glyph4620"
          horiz-adv-x="583"
          unicode="д"
        >
        <path
            id="path4622"
            d="m135.34 518.5h361.33v-446.17h55.995v-219.33h-72.159v147h-408.17v-147h-72.331v219.33h46.337c61.826 84.003 91.496 232.67 88.998 446.17zm73.167-72.663c-6.5059-168.34-32.499-292.84-78.172-373.51h278.84v373.51h-200.67z"
        />
      </glyph
      >
      <glyph
          id="glyph4624"
          horiz-adv-x="556"
          unicode="а"
        >
        <path
            id="path4626"
            d="m404.34 64.002c-32.671-27.665-64.002-47.173-94.004-58.664-30.163-11.34-62.501-17-96.995-17-57.002 0-100.67 13.828-131.34 41.664-30.495 27.836-45.834 63.498-45.834 106.66 0 25.5 5.67 48.664 17.332 69.672 11.501 20.998 26.668 37.827 45.34 50.496 18.833 12.669 39.831 22.338 63.327 28.834 17.171 4.5018 43.165 9.0036 78.001 13.163 71.001 8.5 123.33 18.501 156.84 30.334 0.33235 12.005 0.49348 19.669 0.49348 22.831 0 35.843-8.3288 61.172-24.996 75.674-22.338 20.001-55.834 29.831-99.996 29.831-41.342 0-71.837-7.1706-91.667-21.663-19.669-14.502-34.171-40.174-43.668-77.004l-85.836 11.834c7.8353 36.669 20.666 66.5 38.502 88.998 17.836 22.67 43.829 40.164 77.668 52.34 33.829 12.166 72.995 18.329 117.66 18.329 44.333 0 80.166-5.3377 107.84-15.671 27.665-10.494 47.999-23.496 61.162-39.328 13.002-15.832 21.995-35.672 27.333-59.832 2.83-15.006 4.3306-42.007 4.3306-81.002v-117.17c0-81.838 1.8329-133.5 5.67-155 3.6659-21.663 11.169-42.5 22.166-62.33h-91.828c-9.0036 18.168-15.006 39.499-17.504 64.002zm-7.3318 196.34c-32.006-13.173-79.834-24.171-143.5-33.335-36.165-5.1665-61.837-10.998-76.671-17.504-14.996-6.4959-26.658-16.003-34.665-28.662-8.1677-12.508-12.327-26.336-12.327-41.674 0-23.496 8.9935-42.994 26.668-58.664 17.665-15.499 43.658-23.335 77.83-23.335 33.829 0 64.002 7.3318 90.328 22.166 26.336 14.835 45.834 35.168 58.171 60.84 9.497 19.83 14.17 49.167 14.17 87.83v32.338z"
        />
      </glyph
      >
      <glyph
          id="glyph4628"
          horiz-adv-x="541"
          unicode="п"
        >
        <path
            id="path4630"
            d="m66.338 518.5h409.33v-518.5h-88.001v445.84h-233.34v-445.84h-87.991v518.5z"
        />
      </glyph
      >
      <glyph
          id="glyph4632"
          horiz-adv-x="437"
          unicode="к"
        >
        <path
            id="path4634"
            d="m65.502 518.5h87.83v-224c27.998 0 47.666 5.3377 58.835 16.003 11.169 10.826 27.665 41.996 49.5 93.832 17.332 41 31.331 68 41.996 81.002 10.836 13.002 23.174 21.834 37.172 26.326 13.999 4.673 36.498 6.8383 67.335 6.8383h17.665v-72.663l-24.503 0.49348c-23.002 0-37.837-3.4947-44.333-10.333-6.8383-7.1606-17.332-28.501-31.331-64.002-13.334-33.829-25.5-57.164-36.669-70.165-10.998-13.163-28.169-24.996-51.171-35.662 37.666-10.172 74.838-45.34 111.34-105.5l96.169-160.66h-96.662l-93.842 160.66c-19.165 32.167-35.994 53.498-50.164 63.67-14.331 10.333-31.502 15.328-51.332 15.328v-239.66h-87.83v518.5z"
        />
      </glyph
      >
      <glyph
          id="glyph4636"
          horiz-adv-x="364"
          unicode="г"
        >
        <path
            id="path4638"
            d="m66.338 518.5h298.33v-72.663h-210.34v-445.84h-87.991v518.5z"
        />
      </glyph
      >
      <glyph
          id="glyph4640"
          horiz-adv-x="556"
          unicode="о"
        >
        <path
            id="path4642"
            d="m33.164 259.33c0 95.998 26.668 167.17 80.166 213.34 44.504 38.331 98.838 57.667 163 57.667 71.334 0 129.66-23.335 174.83-70.165 45.33-46.67 67.839-111.16 67.839-193.51 0-66.832-10.001-119.33-30.002-157.49-20.001-38.341-49.167-68-87.337-89.17-38.331-21.17-79.995-31.664-125.34-31.664-72.502 0-131.17 23.164-176 69.833-44.826 46.498-67.164 113.49-67.164 201.16zm90.338 0c0-66.5 14.502-116.16 43.497-149.16 29.005-33.164 65.502-49.671 109.33-49.671 43.668 0 80.005 16.668 109 49.832 28.834 33.174 43.336 83.842 43.336 151.84 0 64.163-14.502 112.83-43.668 145.83-29.166 33.003-65.331 49.5-108.67 49.5-43.829 0-80.327-16.496-109.33-49.328-28.995-32.842-43.497-82.502-43.497-148.84z"
        />
      </glyph
      >
      <glyph
          id="glyph4644"
          horiz-adv-x="552"
          unicode="н"
        >
        <path
            id="path4646"
            d="m66.338 518.5h87.991v-215.83h243.67v215.83h87.83v-518.5h-87.83v230h-243.67v-230h-87.991v518.5z"
        />
      </glyph
      >
      <glyph
          id="glyph4648"
          horiz-adv-x="572"
          unicode="б"
        >
        <path
            id="path4650"
            d="m445.84 732.83l77.658-0.8359c-3.6659-34.836-11.33-59.168-23.325-72.834-11.834-13.666-27.172-22.499-45.834-26.326-18.672-4.0083-55.341-5.8412-110.17-5.8412-72.502 0-122-6.9994-148.34-20.998-26.336-13.999-45.33-36.498-56.831-67.164-11.672-30.838-17.997-70.337-19.336-118.84 22.166 32.842 47.999 57.506 77.668 73.841 29.498 16.496 63.005 24.664 99.996 24.664 68 0 124.34-23.335 169-70.004 44.504-46.659 66.832-110 66.832-189.66 0-60.668-11.169-110.17-33.668-149-22.499-38.673-48.996-68.665-79.834-89.834-30.666-21.17-72.663-31.664-125.67-31.664-61.494 0-109.49 13.999-143.66 42.158-34.161 28.169-60.336 64.173-78.494 108.17-18.34 44.001-27.333 120.5-27.333 229.5 0 137 23.164 229.33 69.501 276.83 46.327 47.495 117.83 71.334 214.16 71.334 59.832 0 93.832 0.99704 102 2.83 8.1677 2.0042 13.334 6.6671 15.671 13.666zm-4.5018-471.67c0 54.172-12.669 98.334-38.341 132.84-25.5 34.494-61.494 51.836-107.99 51.836-48.502 0-86.007-18.34-112.33-54.666-26.336-36.508-39.67-85.171-39.67-146 0-60.336 14.664-106.34 43.829-138.18 29.005-31.996 65.009-47.828 107.67-47.828 43.497 0 78.998 18.329 106.17 55.331 27.162 37.001 40.667 85.836 40.667 146.66z"
        />
      </glyph
      >
      </font>
</defs>
</svg>
