<?xml version="1.0" encoding="UTF-8" standalone="no"?>
<svg
   version="1.1"
   id="Layer_1"
   x="0px"
   y="0px"
   viewBox="0 0 594.40304 1241.9977"
   enable-background="new 0 0 683.707 1700.957"
   xml:space="preserve"
   sodipodi:docname="Water-Cooler-Illustration_01.svg"
   width="594.40302"
   height="1241.9977"
   inkscape:version="1.3.2 (091e20e, 2023-11-25, custom)"
   xmlns:inkscape="http://www.inkscape.org/namespaces/inkscape"
   xmlns:sodipodi="http://sodipodi.sourceforge.net/DTD/sodipodi-0.dtd"
   xmlns="http://www.w3.org/2000/svg"
   xmlns:svg="http://www.w3.org/2000/svg"><defs
   id="defs183" /><sodipodi:namedview
   id="namedview183"
   pagecolor="#ffffff"
   bordercolor="#000000"
   borderopacity="0.25"
   inkscape:showpageshadow="2"
   inkscape:pageopacity="0.0"
   inkscape:pagecheckerboard="0"
   inkscape:deskcolor="#d1d1d1"
   inkscape:zoom="0.4891364"
   inkscape:cx="296.44083"
   inkscape:cy="799.36803"
   inkscape:window-width="1920"
   inkscape:window-height="1028"
   inkscape:window-x="-6"
   inkscape:window-y="-6"
   inkscape:window-maximized="1"
   inkscape:current-layer="XMLID_1_" />
<g
   id="XMLID_1_"
   transform="translate(-44.65,-50.479338)">
	<g
   id="g96"
   style="display:inline">
		
		
		
		
		
		
		
		
		
		
		
		
		
		
		
		
		
		
		
		
		
		
		
		
		
		
		
		
		
		
		
		
		
		
		
		
		
		
		
		
		
		
		
		
		
		
		
		
		
		
		
		
		
		
		
		
		
		
		
		
		
		
		
		
		
		
		
		
		
		
		
		
		
		
		
		
		
		
		
		
		
		
		
		
		
		
		
		
		
		
		
		
		
		<g
   id="g183"
   style="display:inline"><path
     fill="#b7dee8"
     d="m 319.731,847.322 c 5.144,0.511 10.006,-2.035 13.138,-5.967 l 18.107,0.366 c -2.027,2.446 -3.361,5.464 -3.627,8.672 -0.777,6.363 2.835,12.665 8.284,15.851 -39.391,0.198 -78.797,-0.008 -118.195,0.099 -4.595,0.099 -9.008,-1.425 -13.359,-2.713 -0.381,-0.114 -0.77,-0.229 -1.151,-0.335 -9.48,-2.629 -18.922,-4.755 -28.196,-8.116 -9.244,-3.353 -18.282,-7.285 -27.03,-11.766 -15.409,-7.91 -30.863,-17.207 -41.311,-31.412 -3.376,-4.588 -5.959,-9.754 -7.689,-15.165 -0.602,-2.652 -0.876,-5.357 -1.067,-8.055 67.61,-0.008 135.22,-0.015 202.83,-0.023 v 26.238 c -1.181,0 -2.355,0.145 -3.505,0.457 -5.807,1.349 -10.372,6.234 -11.72,11.987 -2.488,9.175 4.813,19.699 14.491,19.882 z"
     id="path1" /><path
     fill="#b7dee8"
     d="m 332.869,841.355 c 1.958,-2.461 3.239,-5.464 3.49,-8.604 0.64,-5.235 -1.707,-10.555 -5.563,-14.037 -2.919,-2.263 -6.622,-3.719 -10.334,-3.719 v -26.238 c 81.563,0 163.126,0.008 244.682,0.046 0.038,1.654 -0.099,3.315 -0.091,4.991 -1.859,7.613 -5.472,14.776 -10.509,20.797 -4.42,5.075 -9.564,9.434 -14.914,13.534 -7.186,5.51 -14.868,10.364 -22.93,14.487 -0.808,0.411 -1.608,0.823 -2.423,1.219 -9.023,4.481 -18.366,8.314 -27.868,11.637 -9.198,3.216 -18.556,6.31 -28.105,8.406 -4.077,0.899 -8.192,1.638 -12.33,2.21 -3.787,0.533 -7.27,0.244 -11.08,0.236 -21.124,-0.046 -42.256,0.099 -63.38,-0.076 5.776,-3.46 9.518,-10.455 8.085,-17.2 -1.303,-7.636 -8.627,-13.664 -16.4,-13.26 -4.771,-0.038 -9.251,2.332 -12.223,5.936 z"
     id="path2" /><path
     fill="#b7dee8"
     d="m 456.924,422.55 c 37.539,0.084 75.078,-0.168 112.609,0.122 5.19,4.572 10.349,9.518 13.367,15.858 2.157,4.618 4.29,9.51 4.1,14.723 -0.114,4.87 0.533,9.93 -1.242,14.586 -1.585,4.367 -3.231,8.733 -5.395,12.856 -0.747,1.478 -1.76,2.835 -3.086,3.841 -1.417,1.059 -2.705,2.309 -3.406,3.97 -1.006,2.035 -2.637,3.681 -4.336,5.152 -3.902,2.18 -8.535,1.082 -12.78,1.273 -53.573,0.008 -107.153,0 -160.726,0 v -21.78 c 6.653,0 12.841,-4.999 14.616,-11.347 1.913,-6.447 -0.16,-14.22 -5.845,-18.114 -2.751,-1.791 -6.028,-3.025 -9.335,-3.025 V 422.55 c 20.483,0 40.975,0 61.459,0 z"
     id="path3" /><path
     fill="#7f96a4"
     d="m 584.089,623.078 c -0.061,1.882 -0.663,3.704 -2.37,4.71 -0.282,-1.951 1.372,-3.27 2.37,-4.71 z"
     id="path4" /><path
     fill="#b7dee8"
     d="m 331.261,422.55 c 21.399,0 42.805,0 64.203,0 v 18.114 c -0.244,0 -0.488,0.008 -0.732,0.023 -4.176,0.518 -8.459,2.248 -11.065,5.693 -4.199,4.931 -4.953,12.406 -1.981,18.129 2.682,4.862 7.788,8.672 13.504,8.619 0.282,0.015 0.556,0.023 0.838,0.023 v 21.78 c -21.383,0 -42.767,0 -64.15,-0.008 v -21.78 c 7.773,0 14.685,-6.843 15.272,-14.51 0.648,-5.632 -1.943,-11.454 -6.394,-14.906 -2.804,-1.806 -6.135,-3.056 -9.495,-3.056 z"
     id="path38" /><path
     fill="#ffffff"
     d="m 340.756,443.727 c 4.45,3.452 7.041,9.274 6.394,14.906 -0.587,7.666 -7.499,14.51 -15.272,14.51 -0.236,0 -0.465,0 -0.701,-0.015 -4.961,0.107 -9.518,-2.721 -12.505,-6.516 -3.848,-5.761 -3.894,-13.908 0.213,-19.547 2.736,-3.765 7.278,-5.898 11.827,-6.386 0.183,-0.008 0.366,-0.008 0.549,-0.008 3.36,0.001 6.691,1.25 9.495,3.056 z"
     id="path65" /><path
     fill="#b7dee8"
     d="m 396.501,757.879 c 5.091,-4.054 7.041,-11.37 5.06,-17.512 -2.012,-7.956 -11.24,-12.772 -19.036,-10.882 -6.333,1.379 -11.553,6.965 -12.383,13.412 -0.655,4.405 0.511,9.061 3.307,12.543 5.204,7.049 16.406,7.91 23.052,2.439 z m -72.32,3.185 c 8.139,-1.76 13.664,-10.615 12.002,-18.716 -1.174,-7.453 -8.2,-13.328 -15.63,-13.328 v -26.268 c 55.867,0 111.741,0 167.615,0 25.476,0.084 50.959,-0.168 76.435,0.122 0.411,1.12 0.831,2.263 1.318,3.376 1.242,1.562 3.01,2.583 4.534,3.864 4.763,3.727 8.398,8.726 11.118,14.091 2.721,5.327 5.502,10.951 5.411,17.093 -0.069,4.755 0.472,9.655 -0.968,14.266 -3.185,9.533 -9.008,18.167 -16.742,24.615 -0.648,-1.006 -1.151,-2.172 -2.103,-2.919 -3.155,-0.777 -6.447,-0.305 -9.655,-0.366 -78.949,0.031 -157.891,0.015 -236.84,0.008 v -15.394 c 1.173,-0.002 2.347,-0.139 3.505,-0.444 z"
     id="path67" /><path
     fill="#b7dee8"
     d="m 393.353,260.178 c -1.638,4.397 -0.602,9.366 1.837,13.26 5.357,8.596 18.991,9.472 25.681,2.035 4.069,-4.29 5.182,-10.882 3.079,-16.354 -2.903,-7.064 -11.065,-11.53 -18.579,-9.731 -5.426,1.302 -10.57,5.204 -12.018,10.79 z m -10.089,53.245 c -8.154,1.379 -14.609,9.579 -13.123,17.901 1.12,10.135 13.519,16.659 22.557,12.079 7.316,-2.774 11.469,-11.698 8.84,-19.074 -2.104,-7.667 -10.623,-12.362 -18.274,-10.906 z m -44.581,-20.301 c -2.667,9.488 5.319,20.416 15.371,19.996 8.657,0.427 15.843,-7.704 15.881,-16.057 0.061,-4.557 -2.042,-8.985 -5.228,-12.178 -3.81,-3.33 -9.251,-4.999 -14.22,-3.65 -5.837,1.288 -10.417,6.135 -11.804,11.889 z m -13.214,20.369 c 2.736,-6.79 -0.069,-15.035 -6.043,-19.12 -3.589,-2.423 -8.154,-3.254 -12.383,-2.439 -2.286,0.373 -4.428,1.311 -6.287,2.644 l -26.885,-4.519 c 5.83,-2.812 9.892,-9.236 9.145,-15.805 -0.602,-7.918 -7.91,-14.456 -15.729,-14.456 v -20.789 c 99.304,-0.008 198.608,-0.023 297.904,0.038 0.549,16.674 -0.107,33.378 0.313,50.06 5.555,3.688 10.829,8.093 14.311,13.869 3.711,6.043 6.325,12.894 7.133,19.951 -0.145,6.051 0.869,12.376 -1.349,18.175 -1.76,5.037 -3.94,9.968 -7.064,14.319 -3.353,4.984 -8.207,8.649 -13.085,12.033 -0.191,9.556 0.008,19.112 -0.069,28.676 -0.091,4.793 0.297,9.61 -0.259,14.395 -4.298,0.45 -8.627,0.404 -12.94,0.335 -62.855,0 -125.709,0 -188.564,0 v -12.627 c 8.893,0 17.093,-8.253 16.224,-17.352 -0.389,-9.465 -10.181,-17.04 -19.44,-14.913 -5.075,0.907 -9.35,4.45 -11.553,9 l -16.994,-8.497 c 8.04,0 15.157,-7.301 15.348,-15.279 0.274,-3.955 -1.029,-7.918 -3.437,-11.05 -2.743,-4.016 -7.735,-5.929 -12.444,-6.112 -3.505,0.13 -7.011,1.41 -9.762,3.597 l -11.286,-13.641 c 6.561,0.001 12.886,-4.282 15.195,-10.493 z"
     id="path68" /><path
     fill="#b7dee8"
     d="m 337.548,675.515 c 5.594,2.256 12.338,0.823 16.605,-3.422 6.668,-6.257 6.226,-17.992 -0.556,-24.005 -3.353,-2.789 -7.819,-4.595 -12.223,-3.94 -7.362,0.975 -13.542,7.445 -13.93,14.906 -0.657,6.905 3.657,13.924 10.104,16.461 z m 56.415,-18.289 c 2.088,3.887 6.203,6.188 10.364,7.247 4.687,1.25 9.678,-0.587 13.397,-3.452 3.986,-3.62 6.417,-9.289 5.296,-14.677 -0.876,-4.008 -3.063,-7.857 -6.478,-10.219 -3.612,-2.606 -8.352,-3.505 -12.688,-2.576 -4.801,1.349 -9.175,4.755 -11.012,9.48 -2.148,4.526 -1.562,10.013 1.121,14.197 z m 0.998,-59.403 c 4.908,-4.146 6.767,-11.294 4.931,-17.39 -2.218,-7.491 -10.41,-12.848 -18.175,-11.05 -6.157,1.326 -11.393,6.5 -12.307,12.818 -1.516,7.369 2.545,15.721 9.838,18.19 5.197,2.302 11.392,0.907 15.713,-2.568 z m -99.128,2.85 c 5.106,2.08 11.019,0.373 15.15,-3.003 4.809,-4.26 6.965,-11.507 4.679,-17.596 -2.301,-7.613 -10.722,-12.597 -18.488,-10.615 -7.552,1.73 -12.97,9.465 -12.284,17.131 0.479,6.303 4.838,12.186 10.943,14.083 z m -32.266,65.72 c 2.157,6.119 8.55,10.471 15.035,10.166 6.051,-0.069 11.56,-4.214 13.953,-9.655 2.98,-6.706 0.869,-15.394 -5.136,-19.722 -3.338,-2.294 -7.506,-3.803 -11.583,-2.987 -4.016,0.823 -7.849,3.003 -10.303,6.325 -3.315,4.496 -4.077,10.707 -1.966,15.873 z m 2.911,-108.189 c 8.329,0.381 16.316,-6.554 16.59,-14.997 0.876,-9.77 -9.099,-18.594 -18.701,-16.422 -8.977,1.555 -15.462,11.896 -12.048,20.553 1.89,6.141 7.88,10.332 14.159,10.866 z m 69.561,-11.4 c 5.632,2.721 12.65,1.273 17.093,-3.003 4.61,-4.306 5.936,-11.423 3.955,-17.299 -2.24,-7.354 -10.516,-12.239 -18.023,-10.41 -4.763,0.998 -8.817,4.466 -10.966,8.787 -3.856,7.811 -0.373,18.678 7.941,21.925 z M 194.776,506.658 c 119.133,0 238.273,-0.008 357.406,0 4.321,-0.038 8.649,-0.152 12.955,0.206 0.556,5.235 0.13,10.509 0.252,15.767 0.099,15.34 -0.198,30.696 0.137,46.028 10.204,5.807 17.299,16.095 20.667,27.198 1.265,4.694 0.648,9.61 0.808,14.411 0.13,4.397 -0.472,9.046 -2.911,12.81 -0.998,1.44 -2.652,2.759 -2.37,4.71 0.099,2.37 -1.684,4.222 -2.759,6.188 -1.494,2.058 -2.667,4.824 -5.312,5.594 -1.821,0.602 -3.582,1.41 -5.121,2.576 -0.701,0.991 -1.25,2.08 -1.867,3.132 -0.655,1.166 -1.402,2.385 -1.311,3.787 0.069,10.128 0.008,20.263 0.061,30.391 -0.061,3.826 -0.091,7.666 -0.312,11.492 -25.384,0.267 -50.776,0.03 -76.168,0.114 -123.736,-0.023 -247.479,0.03 -371.222,-0.031 -0.381,-14.464 -0.008,-28.943 -0.16,-43.414 0.236,-1.905 -1.692,-2.713 -2.949,-3.65 -9.503,-6.188 -15.561,-16.681 -18.068,-27.571 -1.425,-9.183 -1.052,-18.937 2.98,-27.472 3.292,-8.855 10.189,-15.767 18,-20.812 0.114,-19.227 0.015,-38.461 0.038,-57.688 0.046,-1.219 0.145,-2.423 0.274,-3.627 25.642,-0.337 51.301,-0.047 76.952,-0.139 z"
     id="path79" /><path
     fill="#b7dee8"
     d="m 266.242,478.607 c 4.931,5.921 14.342,6.927 20.682,2.736 4.146,-3.193 7.08,-8.261 6.965,-13.588 0.084,-5.144 -2.621,-10.044 -6.554,-13.237 -3.536,-2.431 -8.093,-3.429 -12.307,-2.561 -5.037,0.884 -9.564,4.443 -11.347,9.282 -2.362,5.678 -1.402,12.635 2.561,17.368 z M 155.149,422.55 c 58.701,0 117.41,0 176.112,0 v 18.122 c -0.183,0 -0.366,0 -0.549,0.008 -4.549,0.488 -9.091,2.621 -11.827,6.386 -4.108,5.639 -4.062,13.786 -0.213,19.547 2.987,3.795 7.544,6.622 12.505,6.516 0.236,0.015 0.465,0.015 0.701,0.015 v 21.78 c -70.361,0 -140.722,0.008 -211.083,0.03 -1.989,-0.061 -3.978,-0.442 -5.807,-1.25 -4.755,-3.429 -8.825,-7.758 -11.995,-12.673 -3.17,-4.915 -5.426,-10.41 -6.569,-16.163 -0.785,-5.022 -0.724,-10.158 -0.297,-15.211 1.577,-10.082 6.356,-19.646 13.572,-26.878 15.143,-0.519 30.3,-0.084 45.45,-0.229 z"
     id="path91" /><path
     fill="#b7dee8"
     d="m 283.403,396.724 c 5.784,3.003 13.206,1.227 17.665,-3.3 3.01,-3.239 4.877,-7.704 4.534,-12.155 -0.412,-3.673 -1.905,-7.278 -4.45,-9.983 -3.62,-3.513 -8.87,-5.533 -13.915,-4.542 -6.013,0.968 -11.027,5.769 -12.681,11.56 -2.081,7.225 1.913,15.531 8.847,18.42 z m 35.268,-36.8 c 2.98,3.81 7.552,6.622 12.505,6.531 0.229,0.015 0.45,0.015 0.678,0.015 l 16.994,8.497 c -0.998,2.065 -1.57,4.344 -1.585,6.676 -0.259,7.941 6.074,15.302 13.923,16.384 0.808,0.145 1.623,0.206 2.431,0.206 v 12.627 c -74.065,0 -148.121,0 -222.186,0 -7.903,-0.091 -15.82,0.213 -23.715,-0.175 -0.45,-14.136 0.091,-28.295 -0.251,-42.431 -6.622,-3.711 -12.094,-9.358 -15.851,-15.927 -2.248,-5.152 -4.877,-10.295 -5.418,-15.973 -1.052,-7.461 0.175,-14.99 2.05,-22.214 1.204,-4.031 3.437,-7.643 5.54,-11.256 3.254,-5.51 8.398,-9.533 13.664,-13.001 0.274,-11.827 0.015,-23.662 0.114,-35.497 0.107,-5.06 -0.32,-10.135 0.259,-15.173 7.102,-0.434 14.22,-0.122 21.322,-0.206 42.713,0.008 85.427,0.008 128.14,0 v 20.789 c -0.96,0 -1.928,0.099 -2.896,0.305 -9.198,1.593 -15.683,12.345 -11.858,21.079 2.301,7.019 10.219,11.4 17.405,10.151 1.372,-0.236 2.69,-0.671 3.932,-1.273 l 26.885,4.519 c -3.551,2.561 -6.089,6.569 -6.714,10.897 -1.379,8.436 5.106,17.131 13.557,18.267 0.892,0.168 1.783,0.244 2.675,0.244 l 11.286,13.641 c -1.882,1.494 -3.414,3.422 -4.344,5.685 -2.39,5.319 -1.735,11.774 1.458,16.613 z"
     id="path92" /><path
     fill="#b7dee8"
     d="m 125.428,227.242 c -4.473,-0.099 -9.35,0.815 -13.405,-1.585 -1.654,-1.631 -3.315,-3.269 -4.862,-4.999 -1.547,-1.738 -2.98,-3.559 -4.199,-5.548 -5.296,-8.474 -7.445,-18.67 -7.041,-28.577 0.198,-3.277 0.648,-6.592 1.943,-9.632 0.061,0.351 0.191,1.052 0.259,1.402 6.295,0.518 12.62,0.038 18.922,0.122 16.758,-0.8 33.553,-0.678 50.326,-0.724 7.819,1.082 15.645,2.4 23.563,2.423 18.808,0.061 37.615,0.145 56.43,0.213 12.437,0.472 24.889,0.312 37.333,0.457 28.196,-0.008 56.392,0.488 84.589,0.671 21.086,0.046 42.172,0.229 63.251,0.411 17.253,0.739 34.567,-0.282 51.79,1.067 23.388,0.038 46.775,0.191 70.163,0.366 8.139,-0.663 16.27,-1.44 24.363,-2.568 2.515,-0.389 5.784,-0.274 6.752,-3.216 1.859,3.429 1.151,7.567 1.395,11.324 0.693,11.378 -3.635,22.839 -10.966,31.465 -2.56,2.545 -5.037,5.433 -8.299,7.057 -36.175,-0.305 -72.35,-0.053 -108.525,-0.137 -111.26,0.008 -222.521,0 -333.782,0.008 z"
     id="path93" /><path
     fill="#b7dee8"
     d="m 120.803,776.938 c -1.898,0.32 -3.048,-1.151 -3.963,-2.545 -1.715,-2.157 -4.359,-3.269 -6.348,-5.136 -13.984,-12.391 -18.602,-33.942 -11.317,-51.088 1.928,-5.586 5.662,-10.196 9,-14.974 3.025,-0.358 6.074,-0.511 9.114,-0.511 1.189,0 2.378,0.023 3.566,0.069 66.566,0 133.132,0 199.698,0 v 26.268 c -1.189,0 -2.385,0.145 -3.566,0.465 -9.213,2.019 -14.822,13.184 -11.012,21.78 2.187,6.036 8.36,10.242 14.7,10.242 V 776.9 c -66.626,0 -133.253,0 -199.872,0.038 z"
     id="path94" /></g>
		
		<path
   fill="#385d8a"
   d="m 209.08,879.831 c -6.043,4.466 -12.543,8.306 -18.373,13.054 15.074,0.251 30.147,0.031 45.221,0.107 h 131.074 c 40.481,-0.084 80.969,0.16 121.449,-0.114 -5.822,-4.763 -12.33,-8.611 -18.388,-13.062 -2.187,-1.417 -4.207,-3.604 -6.996,-3.574 -82.074,-0.053 -164.155,0.023 -246.229,-0.038 -3.094,-0.275 -5.396,2.027 -7.758,3.627 z m 277.328,-24.363 c 9.503,-3.323 18.846,-7.156 27.868,-11.637 0.815,-0.396 1.616,-0.808 2.423,-1.219 8.063,-4.123 15.744,-8.977 22.93,-14.487 5.35,-4.1 10.494,-8.459 14.914,-13.534 5.037,-6.02 8.649,-13.184 10.509,-20.797 -0.008,-1.677 0.13,-3.338 0.091,-4.991 -81.556,-0.038 -163.119,-0.046 -244.682,-0.046 -67.61,0.008 -135.22,0.015 -202.83,0.023 0.191,2.698 0.465,5.403 1.067,8.055 1.73,5.411 4.313,10.577 7.689,15.165 10.448,14.205 25.902,23.502 41.311,31.412 8.748,4.481 17.786,8.413 27.03,11.766 9.274,3.361 18.716,5.487 28.196,8.116 0.381,0.107 0.77,0.221 1.151,0.335 4.351,1.288 8.764,2.812 13.359,2.713 39.398,-0.107 78.805,0.099 118.195,-0.099 5.289,0.175 10.593,0.168 15.881,0 21.124,0.175 42.256,0.031 63.38,0.076 3.81,0.008 7.293,0.297 11.08,-0.236 4.138,-0.572 8.253,-1.311 12.33,-2.21 9.552,-2.095 18.91,-5.189 28.108,-8.405 z m -20.331,47.431 h -315.5 c -22.496,-0.602 -45.19,6.836 -62.474,21.353 -20.499,16.803 -33.058,42.79 -33.454,69.302 -0.213,19.57 -0.03,39.139 -0.091,58.709 v 126.67 c 0.015,9.145 -0.229,18.381 1.539,27.404 5.235,31.206 27.869,58.64 57.414,69.911 6.775,2.461 13.77,4.816 21.033,5.091 h 414.621 c 7.064,-0.236 13.869,-2.522 20.477,-4.87 29.819,-11.119 52.795,-38.705 57.993,-70.148 1.715,-8.512 1.486,-17.23 1.516,-25.864 v -182.3 c -0.137,-8.497 -0.732,-17.055 -2.835,-25.316 -3.345,-13.511 -9.899,-26.184 -18.823,-36.846 -16.194,-19.44 -40.648,-31.671 -65.926,-32.883 -7.377,-0.351 -14.769,-0.175 -22.153,-0.213 z M 385.153,63.361 c -30.825,-2.637 -61.239,-2.157 -92.026,0.572 -2.842,0.251 -5.693,0.526 -8.535,0.815 -1.036,-0.617 -3.117,-0.434 -3.902,0.412 -25.994,2.82 -51.812,7.331 -76.953,14.639 -5.921,1.44 -11.545,3.818 -17.405,5.479 -11.69,3.94 -22.923,9.145 -33.797,14.944 -11.019,6.516 -22.054,13.999 -29.118,24.927 -2.416,3.406 -4.138,7.346 -4.755,11.484 -1.737,0.404 -1.677,3.681 -0.541,4.831 -0.053,0.655 -0.168,1.974 -0.221,2.629 51.782,0.168 103.579,0.023 155.369,0.069 h 291.785 c 0.175,-1.783 0.343,-3.612 -0.175,-5.357 -0.442,-4.336 -1.326,-9.061 -4.351,-12.391 -9.152,-13.862 -23.502,-23.266 -38.233,-30.353 -11.919,-6.424 -24.919,-10.334 -37.653,-14.761 -2.766,-1.105 -5.891,-1.791 -8.771,-2.538 -24.173,-6.272 -48.772,-10.776 -73.569,-13.664 -0.8,-0.175 -1.616,-0.251 -2.439,-0.267 -2.545,-0.297 -5.091,-0.564 -7.643,-0.808 -0.701,-0.617 -2.218,-0.754 -3.018,-0.29 -1.351,-0.136 -2.7,-0.258 -4.049,-0.372 z M 97.865,176.9 c -1.296,3.041 -1.745,6.356 -1.943,9.632 -0.404,9.907 1.745,20.103 7.041,28.577 1.219,1.989 2.652,3.81 4.199,5.548 1.547,1.73 3.208,3.368 4.862,4.999 4.054,2.4 8.931,1.486 13.405,1.585 111.261,-0.008 222.521,0 333.782,-0.008 36.175,0.084 72.35,-0.168 108.525,0.137 3.262,-1.623 5.738,-4.511 8.299,-7.057 7.331,-8.627 11.66,-20.088 10.966,-31.465 -0.244,-3.757 0.465,-7.895 -1.395,-11.324 -2.919,-6.836 -6.218,-13.671 -11.278,-19.212 -2.294,-2.225 -4.969,-4.001 -7.339,-6.135 -0.213,1.196 -0.503,2.378 -0.754,3.566 -36.434,0.259 -72.876,0.03 -109.31,0.107 H 122.381 c -3.307,0.023 -6.622,-0.213 -9.922,0.084 -1.075,0.069 -1.981,0.556 -2.797,1.204 -0.815,0.64 -1.547,1.44 -2.271,2.134 -1.334,1.783 -2.484,3.688 -3.749,5.525 -2.607,3.675 -3.933,8.034 -5.777,12.103 z m 1.311,541.268 c -7.285,17.146 -2.667,38.697 11.317,51.088 1.989,1.867 4.633,2.98 6.348,5.136 0.914,1.395 2.065,2.865 3.963,2.545 66.619,-0.038 133.246,-0.038 199.873,-0.038 78.949,0.008 157.891,0.023 236.84,-0.008 3.208,0.061 6.5,-0.411 9.655,0.366 0.953,0.747 1.456,1.913 2.103,2.919 7.735,-6.447 13.557,-15.081 16.742,-24.615 1.44,-4.61 0.899,-9.51 0.968,-14.266 0.091,-6.142 -2.69,-11.766 -5.411,-17.093 -2.721,-5.365 -6.356,-10.364 -11.118,-14.091 -1.524,-1.28 -3.292,-2.301 -4.534,-3.864 -0.488,-1.113 -0.907,-2.256 -1.318,-3.376 -25.476,-0.29 -50.959,-0.038 -76.435,-0.122 H 320.554 120.856 c -1.189,-0.046 -2.378,-0.069 -3.566,-0.069 -3.041,0 -6.089,0.152 -9.114,0.511 -3.338,4.78 -7.072,9.391 -9,14.977 z M 96.531,616.395 c 2.507,10.89 8.566,21.383 18.068,27.571 1.257,0.937 3.185,1.745 2.949,3.65 0.152,14.471 -0.221,28.951 0.16,43.414 123.743,0.061 247.486,0.008 371.222,0.031 25.392,-0.084 50.784,0.152 76.168,-0.114 0.221,-3.826 0.251,-7.666 0.312,-11.492 -0.053,-10.128 0.008,-20.263 -0.061,-30.391 -0.091,-1.402 0.655,-2.622 1.311,-3.787 1.433,-0.404 2.69,-1.181 3.742,-2.225 1.074,-1.166 2.18,-2.309 3.246,-3.483 2.644,-0.77 3.818,-3.536 5.312,-5.594 1.075,-1.966 2.858,-3.818 2.759,-6.188 1.707,-1.006 2.309,-2.827 2.37,-4.71 2.439,-3.765 3.041,-8.413 2.911,-12.81 -0.16,-4.801 0.457,-9.716 -0.808,-14.411 -3.368,-11.103 -10.463,-21.391 -20.667,-27.198 -0.335,-15.333 -0.038,-30.688 -0.137,-46.028 -0.122,-5.258 0.305,-10.532 -0.252,-15.767 -4.306,-0.358 -8.634,-0.244 -12.955,-0.206 -119.133,-0.008 -238.273,0 -357.406,0 -25.651,0.091 -51.309,-0.198 -76.953,0.137 -0.13,1.204 -0.229,2.408 -0.274,3.627 -0.023,19.227 0.076,38.461 -0.038,57.688 -7.811,5.045 -14.708,11.957 -18,20.812 -4.03,8.537 -4.404,18.291 -2.979,27.474 z M 109.7,422.778 c -7.217,7.232 -11.995,16.796 -13.572,26.878 -0.427,5.052 -0.488,10.189 0.297,15.211 1.143,5.754 3.399,11.248 6.569,16.163 3.17,4.915 7.24,9.244 11.995,12.673 1.829,0.808 3.818,1.189 5.807,1.25 70.361,-0.023 140.722,-0.03 211.083,-0.03 21.383,0.008 42.767,0.008 64.15,0.008 53.573,0 107.153,0.008 160.726,0 4.245,-0.191 8.878,0.907 12.78,-1.273 1.699,-1.471 3.33,-3.117 4.336,-5.152 1.387,-1.09 2.606,-2.385 3.406,-3.97 1.326,-1.006 2.339,-2.362 3.086,-3.841 2.164,-4.123 3.81,-8.489 5.395,-12.856 1.776,-4.656 1.128,-9.716 1.242,-14.586 0.19,-5.212 -1.943,-10.105 -4.1,-14.723 -3.018,-6.34 -8.177,-11.286 -13.367,-15.858 -37.531,-0.29 -75.07,-0.038 -112.609,-0.122 h -61.46 -64.203 -176.112 c -15.15,0.145 -30.307,-0.29 -45.449,0.228 z M 88.385,170.72 c 3.33,-7.095 7.064,-14.365 13.161,-19.501 1.349,-1.219 2.827,-2.324 3.925,-3.787 1.334,-5.205 -0.793,-11.126 2.08,-15.958 2.804,-11.957 11.332,-21.46 20.438,-29.233 10.356,-8.421 22.054,-15.02 34.171,-20.545 26.741,-11.644 55.211,-18.701 83.857,-23.776 7.057,-1.577 14.311,-1.806 21.429,-3.048 7.118,-1.196 14.334,-1.501 21.498,-2.233 7.438,-0.861 14.914,-1.166 22.389,-1.402 17.253,-1.166 34.567,-0.655 51.85,-0.594 11.934,0.838 23.921,1.021 35.809,2.477 7.727,0.564 15.424,1.425 23.075,2.667 12.871,1.265 25.529,4.054 38.126,6.912 7.483,1.524 14.982,3.048 22.29,5.296 13.831,4.252 27.602,8.802 40.778,14.822 13.374,6.523 26.703,13.854 37.249,24.538 7.613,7.354 13.908,16.643 15.721,27.236 0.701,3.559 0.511,7.201 0.716,10.806 -0.175,2.225 2.088,3.262 3.49,4.549 8.268,6.157 13.542,15.561 16.476,25.293 3.17,13.024 2.416,27.617 -4.549,39.337 -2.827,5.281 -6.5,10.151 -11.172,13.93 -1.791,1.661 -4.496,3.178 -4.184,6.005 -0.031,15.775 0.084,31.557 -0.053,47.339 0.122,1.745 -0.168,3.848 1.234,5.182 4.481,4.694 10.562,8.192 13.222,14.365 2.507,5.304 5.296,10.585 6.264,16.445 2.073,11.583 1.166,24.15 -4.572,34.613 -2.957,5.632 -6.546,11.118 -11.682,14.997 -1.76,1.631 -4.542,2.987 -4.382,5.761 -0.137,11.698 0.099,23.403 -0.084,35.1 0.015,1.981 -0.122,4.001 0.373,5.936 2.69,3.673 6.897,5.898 9.709,9.488 9.503,11.416 13.351,27.129 10.989,41.723 -1.89,11.408 -7.613,22.549 -16.872,29.705 -1.821,1.638 -4.389,3.262 -4.146,6.066 -0.038,19.333 0.091,38.667 -0.053,58 0.122,1.753 -0.191,3.864 1.204,5.22 2.08,2.248 4.588,4.054 6.714,6.272 5.281,5.266 8.817,12.002 11.385,18.945 5.822,18.328 1.219,39.993 -12.688,53.527 -2.019,2.202 -5.19,3.505 -6.531,6.203 -0.579,12.696 0.381,25.46 -0.526,38.156 0.213,5.106 0.419,10.212 0.442,15.333 0.861,0.579 1.73,1.166 2.614,1.745 1.669,1.745 3.483,3.345 5.403,4.816 2.675,3.422 5.357,6.874 7.422,10.715 6.836,11.538 7.689,25.872 4.61,38.705 -2.934,9.518 -8.055,18.762 -16.095,24.896 -1.516,1.41 -3.78,2.599 -3.955,4.9 -0.549,5.075 -1.021,10.219 -2.812,15.043 -2.019,6.676 -6.302,12.284 -10.349,17.847 -6.836,8.688 -15.561,15.653 -24.653,21.841 -12.841,8.466 -26.908,14.853 -41.182,20.484 -7.278,2.896 -14.891,4.831 -22.191,7.651 8.367,6.279 17.215,11.903 25.681,18.068 2.18,1.517 4.412,3.414 7.24,3.384 9.93,0.13 19.867,-0.152 29.797,0.099 14.83,0.259 29.606,3.772 42.934,10.273 20.614,9.998 37.638,27.106 47.537,47.773 6.127,12.406 9.099,26.131 10.097,39.879 v 203.455 c -1.044,13.74 -3.925,27.48 -10.09,39.894 -13.534,28.547 -40.999,50.136 -72.098,56.019 -3.551,0.564 -7.095,1.143 -10.562,2.103 H 138.162 c -6.051,-1.357 -12.246,-1.989 -18.221,-3.681 -24.211,-6.584 -45.754,-22.481 -59.151,-43.704 -7.026,-10.844 -11.804,-23.09 -14.258,-35.756 -1.052,-5.677 -1.387,-11.438 -1.882,-17.169 V 994.056 c 0.594,-14.769 3.551,-29.583 10.128,-42.904 13.687,-28.737 41.426,-50.448 72.815,-56.156 14.09,-2.972 28.57,-1.707 42.851,-2.012 2.629,0.046 4.77,-1.616 6.805,-3.048 8.992,-6.645 18.602,-12.452 27.366,-19.402 -8.36,-2.858 -16.857,-5.334 -25.003,-8.787 -8.68,-3.094 -16.781,-7.537 -24.927,-11.781 -12.787,-7.209 -25.026,-15.82 -34.529,-27.129 -6.782,-7.765 -11.644,-17.238 -13.557,-27.396 -1.082,-6.028 -0.267,-12.155 -0.602,-18.213 -0.008,-1.936 -1.943,-2.957 -3.14,-4.176 -4.085,-3.33 -7.377,-7.499 -10.242,-11.896 -3.155,-4.816 -4.687,-10.44 -6.218,-15.919 -1.73,-6.226 -1.311,-12.787 -0.617,-19.128 0.983,-9.381 5.487,-18.053 11.256,-25.369 2.073,-2.766 4.969,-4.694 7.461,-7.026 1.867,-1.6 1.631,-4.283 1.73,-6.493 -0.32,-11.698 -0.213,-23.395 -0.13,-35.093 -0.046,-1.303 0.038,-2.652 -0.419,-3.887 -1.379,-1.654 -3.178,-2.865 -4.717,-4.344 -6.523,-6.112 -11.073,-14.106 -13.862,-22.549 -1.6,-5.571 -1.92,-11.431 -1.882,-17.192 0.13,-13.969 6.721,-27.586 17.093,-36.83 1.844,-1.738 3.879,-3.772 3.605,-6.539 0,-17.794 -0.046,-35.596 0.008,-53.397 -0.053,-2.98 0.328,-6.028 -0.343,-8.954 -2.24,-2.888 -5.426,-4.885 -7.743,-7.72 -9.518,-11.035 -14.266,-26.23 -12.269,-40.709 1.616,-10.516 5.738,-20.934 13.252,-28.646 2.126,-2.233 4.877,-3.887 6.615,-6.47 0.61,-1.6 0.48,-3.361 0.533,-5.037 -0.114,-11.698 -0.091,-23.395 -0.008,-35.085 -0.091,-1.41 0.069,-2.926 -0.587,-4.214 -0.975,-1.334 -2.294,-2.347 -3.521,-3.429 -6.485,-5.266 -10.661,-12.78 -13.763,-20.408 -3.368,-9.45 -3.742,-19.89 -1.539,-29.652 2.286,-10.143 7.156,-20.126 15.348,-26.771 1.821,-1.646 4.29,-3.338 4.016,-6.127 -0.023,-16.803 0.008,-33.614 -0.015,-50.41 0.236,-2.591 -2.187,-4.016 -3.795,-5.586 -7.659,-6.599 -12.78,-15.79 -15.5,-25.445 -2.174,-10.548 -1.885,-21.826 1.781,-32.007 z m 7.811,165.633 c 0.541,5.677 3.17,10.821 5.418,15.973 3.757,6.569 9.229,12.216 15.851,15.927 0.343,14.136 -0.198,28.295 0.251,42.431 7.895,0.389 15.813,0.084 23.715,0.175 h 222.186 188.564 c 4.313,0.069 8.642,0.114 12.94,-0.335 0.556,-4.786 0.168,-9.602 0.259,-14.395 0.076,-9.564 -0.122,-19.12 0.069,-28.676 4.877,-3.384 9.731,-7.049 13.085,-12.033 3.124,-4.351 5.304,-9.282 7.064,-14.319 2.218,-5.799 1.204,-12.124 1.349,-18.175 -0.808,-7.057 -3.422,-13.908 -7.133,-19.951 -3.483,-5.776 -8.756,-10.181 -14.311,-13.869 -0.419,-16.681 0.236,-33.386 -0.313,-50.06 -99.296,-0.061 -198.6,-0.046 -297.904,-0.038 -42.713,0.008 -85.427,0.008 -128.14,0 -7.102,0.084 -14.22,-0.229 -21.322,0.206 -0.579,5.037 -0.152,10.113 -0.259,15.173 -0.099,11.835 0.16,23.67 -0.114,35.497 -5.266,3.467 -10.41,7.491 -13.664,13.001 -2.103,3.612 -4.336,7.224 -5.54,11.256 -1.876,7.223 -3.103,14.752 -2.051,22.212 z"
   id="path96"
   style="display:inline"
   sodipodi:nodetypes="cccccccccccccccccccccccccccsccccccccccccccccccccccccccccccccccccccccccccccccccccccccccccccccccccccccccccccccccccccccccccccccccccccccccccccccccccccscccsccccccccccccccccccccccccccccccccccccccccccccccccccccccccccccccccccccccccccccccccccccccccccccccccccccccccccccccccccccccccccccccccccccccccccccccccccccc" />
	</g>
	
</g>
</svg>
