<?xml version="1.0" encoding="UTF-8" standalone="no"?>
<svg
   version="1.1"
   id="Layer_1"
   x="0px"
   y="0px"
   viewBox="0 0 594.40304 1241.9977"
   enable-background="new 0 0 683.707 1700.957"
   xml:space="preserve"
   sodipodi:docname="Water-Cooler-Illustration_02.svg"
   width="594.40302"
   height="1241.9977"
   inkscape:version="1.3.2 (091e20e, 2023-11-25, custom)"
   xmlns:inkscape="http://www.inkscape.org/namespaces/inkscape"
   xmlns:sodipodi="http://sodipodi.sourceforge.net/DTD/sodipodi-0.dtd"
   xmlns="http://www.w3.org/2000/svg"
   xmlns:svg="http://www.w3.org/2000/svg"><defs
   id="defs183" /><sodipodi:namedview
   id="namedview183"
   pagecolor="#ffffff"
   bordercolor="#000000"
   borderopacity="0.25"
   inkscape:showpageshadow="2"
   inkscape:pageopacity="0.0"
   inkscape:pagecheckerboard="0"
   inkscape:deskcolor="#d1d1d1"
   inkscape:zoom="0.5"
   inkscape:cx="314"
   inkscape:cy="598"
   inkscape:window-width="1920"
   inkscape:window-height="1028"
   inkscape:window-x="-6"
   inkscape:window-y="-6"
   inkscape:window-maximized="1"
   inkscape:current-layer="Layer_1" />
<g
   id="cooler"
   transform="translate(-44.65,-50.479338)"
   inkscape:label="cooler">
	
	
<path
   id="path189"
   style="display:none;fill:#ff0000;fill-opacity:1;stroke-width:2"
   d="M 303.16602,7.5351562 C 256.91673,7.3080888 237.77226,8.7918394 203.81836,15.230469 146.84551,26.034156 101.47444,45.915034 81.277344,68.927734 73.570568,77.708898 66.439907,92.825078 68.783203,95.414062 c 0.707188,0.78135 103.565387,1.419922 228.572267,1.419922 h 227.28515 v -5.324218 c 0,-6.777728 -9.46534,-21.272288 -19.73242,-30.21875 C 468.45097,29.523141 387.48647,7.9491424 303.16602,7.5351562 Z m -6.27344,93.6152338 c -260.770746,0.064 -236.414853,-1.640394 -244.097658,17.08984 -7.308004,17.81652 -3.847639,42.66301 7.845703,56.33008 l 5.355469,6.25977 H 295.91211 c 259.6465,0 235.51419,1.88332 244.23242,-19.07813 6.40103,-15.38989 6.38994,-30.10183 -0.0371,-44.30078 -2.7082,-5.98302 -6.25295,-12.11011 -7.875,-13.61719 -2.26207,-2.10169 -57.09509,-2.72729 -235.33984,-2.68359 z m 228.01172,84.80273 -228.01172,0.53321 -228.013674,0.5332 -0.576172,25.85156 c -0.572008,25.62957 -0.628525,25.89601 -6.501953,30.94727 -8.838009,7.60085 -14.441406,21.07769 -14.441406,34.73047 0,14.35048 3.951327,24.43983 13.320313,34.01562 7.131794,7.28926 7.175781,7.44775 7.175781,26.08594 0,10.31336 0.559912,20.24204 1.24414,22.06445 1.124068,2.99391 23.164465,3.31446 228.523441,3.31446 H 524.9043 v -22.51953 -22.51954 l 6.87695,-5.60742 c 20.47494,-16.69757 20.78656,-52.18142 0.61719,-70.28125 L 524.9043,236.375 v -25.21094 z m -81.2168,182.81641 c -34.54777,-0.10328 -82.01885,0.0424 -147.41992,0.0918 -180.20648,0.1362 -233.361752,0.79172 -235.677736,2.90234 -6.196765,5.6473 -10.8125,19.44501 -10.8125,32.32031 0,15.02409 5.467608,29.15007 14.521484,37.51563 l 6.085938,5.62305 h 227.810544 227.8086 l 5.23047,-6.12891 c 13.5995,-15.93543 17.41924,-37.7366 9.68554,-55.2793 -6.24986,-14.17676 6.41089,-16.73507 -97.23242,-17.04492 z M 67.789062,451.55469 v 32.25 32.25 l -5.890624,4.49219 c -8.715672,6.64349 -14.539063,20.64596 -14.539063,34.96289 0,13.76614 4.422181,24.3789 14.113281,33.87109 6.287988,6.15893 6.316406,6.28474 6.316406,28.60937 0,12.33304 0.612259,23.05583 1.361329,23.82813 0.749078,0.77229 103.253429,1.4043 227.787109,1.4043 H 523.36328 V 620.39258 597.5625 l 7.35547,-6.90234 c 9.68123,-9.08278 15.01667,-21.63187 15.07227,-35.45704 0.053,-13.1554 -4.59161,-23.62468 -15.09766,-34.02929 l -7.33008,-7.25781 V 482.73438 451.55469 H 295.57617 Z M 523.0332,648.3418 291.14648,648.91406 59.261719,649.48438 54.576172,659.5918 c -5.662324,12.21506 -6.333556,31.34332 -1.542969,43.99023 1.791752,4.73014 7.061343,12.435 11.708985,17.12109 l 8.449218,8.51954 H 302.43359 531.67578 l 4.18945,-5.05274 c 16.03351,-19.34174 14.00703,-47.4423 -4.85937,-67.39453 z m -455.949216,84.73242 1.777344,6.86328 c 2.915624,11.25421 5.611987,15.42022 18.414063,28.46484 13.845819,14.10816 36.511939,28.03199 63.912109,39.25782 l 18.72266,7.66992 81.13281,1.2539 c 44.6222,0.68909 99.09719,1.47741 121.05664,1.75196 l 39.92773,0.49804 21.59961,-7.83203 c 38.82099,-14.07777 73.69803,-36.97016 86.7793,-56.96093 7.50159,-11.46391 7.80816,-14.7309 1.59375,-16.92579 -2.57437,-0.90923 -105.98414,-2.18886 -229.79883,-2.8457 z m 97.998046,89.61719 -9.56641,9.06836 c -5.26142,4.98717 -10.67726,10.23435 -12.03515,11.66015 l -2.46875,2.5918 153.88281,0.0371 c 90.08307,0.0217 153.5498,-0.39432 153.08203,-1.00391 -0.43948,-0.57273 -5.52986,-5.70058 -11.3125,-11.39453 l -10.51562,-10.35351 -130.53321,-0.30274 z m -81.451171,26.36718 -14.109375,4.91016 C 45.636333,862.27965 26.897856,878.52651 15.695312,900.63672 5.5515666,920.6572 5.3134993,923.92554 5.2871094,1044.1309 c -0.023006,104.7779 0.260331,113.8912 3.9121094,125.7109 5.4232922,17.5533 12.4919702,28.9647 25.7949222,41.6387 12.724292,12.1227 23.644505,18.368 39.755859,22.7383 9.095051,2.4671 47.064,3.0004 222.12695,3.1152 233.05259,0.153 224.52782,0.6036 247.26172,-13.1094 14.19168,-8.5605 29.85099,-25.6731 36.52344,-39.9141 9.53932,-20.3596 10.06712,-28.753 9.36328,-148.9394 -0.65674,-112.14653 -0.67945,-112.68171 -5.50195,-124.71485 -10.56068,-26.35095 -33.40037,-48.00187 -59.84961,-56.73633 l -14.71875,-4.86133 H 296.79297 Z"
   transform="translate(44.65,50.479338)"
   inkscape:label="empty" /><path
   id="path200"
   style="display:none;fill:#2fca2b;fill-opacity:1;stroke-width:2"
   d="M 303.16602,7.5351562 C 256.91673,7.3080888 237.77226,8.7918394 203.81836,15.230469 146.84551,26.034156 101.47444,45.915034 81.277344,68.927734 73.570568,77.708898 66.439907,92.825078 68.783203,95.414062 c 0.707188,0.78135 103.565387,1.419922 228.572267,1.419922 h 227.28515 v -5.324218 c 0,-6.777728 -9.46534,-21.272288 -19.73242,-30.21875 C 468.45097,29.523141 387.48647,7.9491424 303.16602,7.5351562 Z m -6.27344,93.6152338 c -260.770746,0.064 -236.414853,-1.640394 -244.097658,17.08984 -7.308004,17.81652 -3.847639,42.66301 7.845703,56.33008 l 5.355469,6.25977 H 295.91211 c 259.6465,0 235.51419,1.88332 244.23242,-19.07813 6.40103,-15.38989 6.38994,-30.10183 -0.0371,-44.30078 -2.7082,-5.98302 -6.25295,-12.11011 -7.875,-13.61719 -2.26207,-2.10169 -57.09509,-2.72729 -235.33984,-2.68359 z m 228.01172,84.80273 -228.01172,0.53321 -228.013674,0.5332 -0.576172,25.85156 c -0.572008,25.62957 -0.628525,25.89601 -6.501953,30.94727 -8.838009,7.60085 -14.441406,21.07769 -14.441406,34.73047 0,14.35048 3.951327,24.43983 13.320313,34.01562 7.131794,7.28926 7.175781,7.44775 7.175781,26.08594 0,10.31336 0.559912,20.24204 1.24414,22.06445 1.124068,2.99391 23.164465,3.31446 228.523441,3.31446 H 524.9043 v -22.51953 -22.51954 l 6.87695,-5.60742 c 20.47494,-16.69757 20.78656,-52.18142 0.61719,-70.28125 L 524.9043,236.375 v -25.21094 z m -81.2168,182.81641 c -34.54777,-0.10328 -82.01885,0.0424 -147.41992,0.0918 -180.20648,0.1362 -233.361752,0.79172 -235.677736,2.90234 -6.196765,5.6473 -10.8125,19.44501 -10.8125,32.32031 0,15.02409 5.467608,29.15007 14.521484,37.51563 l 6.085938,5.62305 h 227.810544 227.8086 l 5.23047,-6.12891 c 13.5995,-15.93543 17.41924,-37.7366 9.68554,-55.2793 -6.24986,-14.17676 6.41089,-16.73507 -97.23242,-17.04492 z M 67.789062,451.55469 v 32.25 32.25 l -5.890624,4.49219 c -8.715672,6.64349 -14.539063,20.64596 -14.539063,34.96289 0,13.76614 4.422181,24.3789 14.113281,33.87109 6.287988,6.15893 6.316406,6.28474 6.316406,28.60937 0,12.33304 0.612259,23.05583 1.361329,23.82813 0.749078,0.77229 103.253429,1.4043 227.787109,1.4043 H 523.36328 V 620.39258 597.5625 l 7.35547,-6.90234 c 9.68123,-9.08278 15.01667,-21.63187 15.07227,-35.45704 0.053,-13.1554 -4.59161,-23.62468 -15.09766,-34.02929 l -7.33008,-7.25781 V 482.73438 451.55469 H 295.57617 Z M 523.0332,648.3418 291.14648,648.91406 59.261719,649.48438 54.576172,659.5918 c -5.662324,12.21506 -6.333556,31.34332 -1.542969,43.99023 1.791752,4.73014 7.061343,12.435 11.708985,17.12109 l 8.449218,8.51954 H 302.43359 531.67578 l 4.18945,-5.05274 c 16.03351,-19.34174 14.00703,-47.4423 -4.85937,-67.39453 z m -455.949216,84.73242 1.777344,6.86328 c 2.915624,11.25421 5.611987,15.42022 18.414063,28.46484 13.845819,14.10816 36.511939,28.03199 63.912109,39.25782 l 18.72266,7.66992 81.13281,1.2539 c 44.6222,0.68909 99.09719,1.47741 121.05664,1.75196 l 39.92773,0.49804 21.59961,-7.83203 c 38.82099,-14.07777 73.69803,-36.97016 86.7793,-56.96093 7.50159,-11.46391 7.80816,-14.7309 1.59375,-16.92579 -2.57437,-0.90923 -105.98414,-2.18886 -229.79883,-2.8457 z m 97.998046,89.61719 -9.56641,9.06836 c -5.26142,4.98717 -10.67726,10.23435 -12.03515,11.66015 l -2.46875,2.5918 153.88281,0.0371 c 90.08307,0.0217 153.5498,-0.39432 153.08203,-1.00391 -0.43948,-0.57273 -5.52986,-5.70058 -11.3125,-11.39453 l -10.51562,-10.35351 -130.53321,-0.30274 z m -81.451171,26.36718 -14.109375,4.91016 C 45.636333,862.27965 26.897856,878.52651 15.695312,900.63672 5.5515666,920.6572 5.3134993,923.92554 5.2871094,1044.1309 c -0.023006,104.7779 0.260331,113.8912 3.9121094,125.7109 5.4232922,17.5533 12.4919702,28.9647 25.7949222,41.6387 12.724292,12.1227 23.644505,18.368 39.755859,22.7383 9.095051,2.4671 47.064,3.0004 222.12695,3.1152 233.05259,0.153 224.52782,0.6036 247.26172,-13.1094 14.19168,-8.5605 29.85099,-25.6731 36.52344,-39.9141 9.53932,-20.3596 10.06712,-28.753 9.36328,-148.9394 -0.65674,-112.14653 -0.67945,-112.68171 -5.50195,-124.71485 -10.56068,-26.35095 -33.40037,-48.00187 -59.84961,-56.73633 l -14.71875,-4.86133 H 296.79297 Z"
   inkscape:label="non_empty"
   transform="translate(44.65,50.479338)" /><path
   fill="#385d8a"
   d="m 209.08,879.831 c -6.043,4.466 -12.543,8.306 -18.373,13.054 15.074,0.251 30.147,0.031 45.221,0.107 h 131.074 c 40.481,-0.084 80.969,0.16 121.449,-0.114 -5.822,-4.763 -12.33,-8.611 -18.388,-13.062 -2.187,-1.417 -4.207,-3.604 -6.996,-3.574 -82.074,-0.053 -164.155,0.023 -246.229,-0.038 -3.094,-0.275 -5.396,2.027 -7.758,3.627 z m 277.328,-24.363 c 9.503,-3.323 18.846,-7.156 27.868,-11.637 0.815,-0.396 1.616,-0.808 2.423,-1.219 8.063,-4.123 15.744,-8.977 22.93,-14.487 5.35,-4.1 10.494,-8.459 14.914,-13.534 5.037,-6.02 8.649,-13.184 10.509,-20.797 -0.008,-1.677 0.13,-3.338 0.091,-4.991 -81.556,-0.038 -163.119,-0.046 -244.682,-0.046 -67.61,0.008 -135.22,0.015 -202.83,0.023 0.191,2.698 0.465,5.403 1.067,8.055 1.73,5.411 4.313,10.577 7.689,15.165 10.448,14.205 25.902,23.502 41.311,31.412 8.748,4.481 17.786,8.413 27.03,11.766 9.274,3.361 18.716,5.487 28.196,8.116 0.381,0.107 0.77,0.221 1.151,0.335 4.351,1.288 8.764,2.812 13.359,2.713 39.398,-0.107 78.805,0.099 118.195,-0.099 5.289,0.175 10.593,0.168 15.881,0 21.124,0.175 42.256,0.031 63.38,0.076 3.81,0.008 7.293,0.297 11.08,-0.236 4.138,-0.572 8.253,-1.311 12.33,-2.21 9.552,-2.095 18.91,-5.189 28.108,-8.405 z m -20.331,47.431 h -315.5 c -22.496,-0.602 -45.19,6.836 -62.474,21.353 -20.499,16.803 -33.058,42.79 -33.454,69.302 -0.213,19.57 -0.03,39.139 -0.091,58.709 v 126.67 c 0.015,9.145 -0.229,18.381 1.539,27.404 5.235,31.206 27.869,58.64 57.414,69.911 6.775,2.461 13.77,4.816 21.033,5.091 h 414.621 c 7.064,-0.236 13.869,-2.522 20.477,-4.87 29.819,-11.119 52.795,-38.705 57.993,-70.148 1.715,-8.512 1.486,-17.23 1.516,-25.864 v -182.3 c -0.137,-8.497 -0.732,-17.055 -2.835,-25.316 -3.345,-13.511 -9.899,-26.184 -18.823,-36.846 -16.194,-19.44 -40.648,-31.671 -65.926,-32.883 -7.377,-0.351 -14.769,-0.175 -22.153,-0.213 z M 385.153,63.361 c -30.825,-2.637 -61.239,-2.157 -92.026,0.572 -2.842,0.251 -5.693,0.526 -8.535,0.815 -1.036,-0.617 -3.117,-0.434 -3.902,0.412 -25.994,2.82 -51.812,7.331 -76.953,14.639 -5.921,1.44 -11.545,3.818 -17.405,5.479 -11.69,3.94 -22.923,9.145 -33.797,14.944 -11.019,6.516 -22.054,13.999 -29.118,24.927 -2.416,3.406 -4.138,7.346 -4.755,11.484 -1.737,0.404 -1.677,3.681 -0.541,4.831 -0.053,0.655 -0.168,1.974 -0.221,2.629 51.782,0.168 103.579,0.023 155.369,0.069 h 291.785 c 0.175,-1.783 0.343,-3.612 -0.175,-5.357 -0.442,-4.336 -1.326,-9.061 -4.351,-12.391 -9.152,-13.862 -23.502,-23.266 -38.233,-30.353 -11.919,-6.424 -24.919,-10.334 -37.653,-14.761 -2.766,-1.105 -5.891,-1.791 -8.771,-2.538 -24.173,-6.272 -48.772,-10.776 -73.569,-13.664 -0.8,-0.175 -1.616,-0.251 -2.439,-0.267 -2.545,-0.297 -5.091,-0.564 -7.643,-0.808 -0.701,-0.617 -2.218,-0.754 -3.018,-0.29 -1.351,-0.136 -2.7,-0.258 -4.049,-0.372 z M 97.865,176.9 c -1.296,3.041 -1.745,6.356 -1.943,9.632 -0.404,9.907 1.745,20.103 7.041,28.577 1.219,1.989 2.652,3.81 4.199,5.548 1.547,1.73 3.208,3.368 4.862,4.999 4.054,2.4 8.931,1.486 13.405,1.585 111.261,-0.008 222.521,0 333.782,-0.008 36.175,0.084 72.35,-0.168 108.525,0.137 3.262,-1.623 5.738,-4.511 8.299,-7.057 7.331,-8.627 11.66,-20.088 10.966,-31.465 -0.244,-3.757 0.465,-7.895 -1.395,-11.324 -2.919,-6.836 -6.218,-13.671 -11.278,-19.212 -2.294,-2.225 -4.969,-4.001 -7.339,-6.135 -0.213,1.196 -0.503,2.378 -0.754,3.566 -36.434,0.259 -72.876,0.03 -109.31,0.107 H 122.381 c -3.307,0.023 -6.622,-0.213 -9.922,0.084 -1.075,0.069 -1.981,0.556 -2.797,1.204 -0.815,0.64 -1.547,1.44 -2.271,2.134 -1.334,1.783 -2.484,3.688 -3.749,5.525 -2.607,3.675 -3.933,8.034 -5.777,12.103 z m 1.311,541.268 c -7.285,17.146 -2.667,38.697 11.317,51.088 1.989,1.867 4.633,2.98 6.348,5.136 0.914,1.395 2.065,2.865 3.963,2.545 66.619,-0.038 133.246,-0.038 199.873,-0.038 78.949,0.008 157.891,0.023 236.84,-0.008 3.208,0.061 6.5,-0.411 9.655,0.366 0.953,0.747 1.456,1.913 2.103,2.919 7.735,-6.447 13.557,-15.081 16.742,-24.615 1.44,-4.61 0.899,-9.51 0.968,-14.266 0.091,-6.142 -2.69,-11.766 -5.411,-17.093 -2.721,-5.365 -6.356,-10.364 -11.118,-14.091 -1.524,-1.28 -3.292,-2.301 -4.534,-3.864 -0.488,-1.113 -0.907,-2.256 -1.318,-3.376 -25.476,-0.29 -50.959,-0.038 -76.435,-0.122 H 320.554 120.856 c -1.189,-0.046 -2.378,-0.069 -3.566,-0.069 -3.041,0 -6.089,0.152 -9.114,0.511 -3.338,4.78 -7.072,9.391 -9,14.977 z M 96.531,616.395 c 2.507,10.89 8.566,21.383 18.068,27.571 1.257,0.937 3.185,1.745 2.949,3.65 0.152,14.471 -0.221,28.951 0.16,43.414 123.743,0.061 247.486,0.008 371.222,0.031 25.392,-0.084 50.784,0.152 76.168,-0.114 0.221,-3.826 0.251,-7.666 0.312,-11.492 -0.053,-10.128 0.008,-20.263 -0.061,-30.391 -0.091,-1.402 0.655,-2.622 1.311,-3.787 1.433,-0.404 2.69,-1.181 3.742,-2.225 1.074,-1.166 2.18,-2.309 3.246,-3.483 2.644,-0.77 3.818,-3.536 5.312,-5.594 1.075,-1.966 2.858,-3.818 2.759,-6.188 1.707,-1.006 2.309,-2.827 2.37,-4.71 2.439,-3.765 3.041,-8.413 2.911,-12.81 -0.16,-4.801 0.457,-9.716 -0.808,-14.411 -3.368,-11.103 -10.463,-21.391 -20.667,-27.198 -0.335,-15.333 -0.038,-30.688 -0.137,-46.028 -0.122,-5.258 0.305,-10.532 -0.252,-15.767 -4.306,-0.358 -8.634,-0.244 -12.955,-0.206 -119.133,-0.008 -238.273,0 -357.406,0 -25.651,0.091 -51.309,-0.198 -76.953,0.137 -0.13,1.204 -0.229,2.408 -0.274,3.627 -0.023,19.227 0.076,38.461 -0.038,57.688 -7.811,5.045 -14.708,11.957 -18,20.812 -4.03,8.537 -4.404,18.291 -2.979,27.474 z M 109.7,422.778 c -7.217,7.232 -11.995,16.796 -13.572,26.878 -0.427,5.052 -0.488,10.189 0.297,15.211 1.143,5.754 3.399,11.248 6.569,16.163 3.17,4.915 7.24,9.244 11.995,12.673 1.829,0.808 3.818,1.189 5.807,1.25 70.361,-0.023 140.722,-0.03 211.083,-0.03 21.383,0.008 42.767,0.008 64.15,0.008 53.573,0 107.153,0.008 160.726,0 4.245,-0.191 8.878,0.907 12.78,-1.273 1.699,-1.471 3.33,-3.117 4.336,-5.152 1.387,-1.09 2.606,-2.385 3.406,-3.97 1.326,-1.006 2.339,-2.362 3.086,-3.841 2.164,-4.123 3.81,-8.489 5.395,-12.856 1.776,-4.656 1.128,-9.716 1.242,-14.586 0.19,-5.212 -1.943,-10.105 -4.1,-14.723 -3.018,-6.34 -8.177,-11.286 -13.367,-15.858 -37.531,-0.29 -75.07,-0.038 -112.609,-0.122 h -61.46 -64.203 -176.112 c -15.15,0.145 -30.307,-0.29 -45.449,0.228 z M 88.385,170.72 c 3.33,-7.095 7.064,-14.365 13.161,-19.501 1.349,-1.219 2.827,-2.324 3.925,-3.787 1.334,-5.205 -0.793,-11.126 2.08,-15.958 2.804,-11.957 11.332,-21.46 20.438,-29.233 10.356,-8.421 22.054,-15.02 34.171,-20.545 26.741,-11.644 55.211,-18.701 83.857,-23.776 7.057,-1.577 14.311,-1.806 21.429,-3.048 7.118,-1.196 14.334,-1.501 21.498,-2.233 7.438,-0.861 14.914,-1.166 22.389,-1.402 17.253,-1.166 34.567,-0.655 51.85,-0.594 11.934,0.838 23.921,1.021 35.809,2.477 7.727,0.564 15.424,1.425 23.075,2.667 12.871,1.265 25.529,4.054 38.126,6.912 7.483,1.524 14.982,3.048 22.29,5.296 13.831,4.252 27.602,8.802 40.778,14.822 13.374,6.523 26.703,13.854 37.249,24.538 7.613,7.354 13.908,16.643 15.721,27.236 0.701,3.559 0.511,7.201 0.716,10.806 -0.175,2.225 2.088,3.262 3.49,4.549 8.268,6.157 13.542,15.561 16.476,25.293 3.17,13.024 2.416,27.617 -4.549,39.337 -2.827,5.281 -6.5,10.151 -11.172,13.93 -1.791,1.661 -4.496,3.178 -4.184,6.005 -0.031,15.775 0.084,31.557 -0.053,47.339 0.122,1.745 -0.168,3.848 1.234,5.182 4.481,4.694 10.562,8.192 13.222,14.365 2.507,5.304 5.296,10.585 6.264,16.445 2.073,11.583 1.166,24.15 -4.572,34.613 -2.957,5.632 -6.546,11.118 -11.682,14.997 -1.76,1.631 -4.542,2.987 -4.382,5.761 -0.137,11.698 0.099,23.403 -0.084,35.1 0.015,1.981 -0.122,4.001 0.373,5.936 2.69,3.673 6.897,5.898 9.709,9.488 9.503,11.416 13.351,27.129 10.989,41.723 -1.89,11.408 -7.613,22.549 -16.872,29.705 -1.821,1.638 -4.389,3.262 -4.146,6.066 -0.038,19.333 0.091,38.667 -0.053,58 0.122,1.753 -0.191,3.864 1.204,5.22 2.08,2.248 4.588,4.054 6.714,6.272 5.281,5.266 8.817,12.002 11.385,18.945 5.822,18.328 1.219,39.993 -12.688,53.527 -2.019,2.202 -5.19,3.505 -6.531,6.203 -0.579,12.696 0.381,25.46 -0.526,38.156 0.213,5.106 0.419,10.212 0.442,15.333 0.861,0.579 1.73,1.166 2.614,1.745 1.669,1.745 3.483,3.345 5.403,4.816 2.675,3.422 5.357,6.874 7.422,10.715 6.836,11.538 7.689,25.872 4.61,38.705 -2.934,9.518 -8.055,18.762 -16.095,24.896 -1.516,1.41 -3.78,2.599 -3.955,4.9 -0.549,5.075 -1.021,10.219 -2.812,15.043 -2.019,6.676 -6.302,12.284 -10.349,17.847 -6.836,8.688 -15.561,15.653 -24.653,21.841 -12.841,8.466 -26.908,14.853 -41.182,20.484 -7.278,2.896 -14.891,4.831 -22.191,7.651 8.367,6.279 17.215,11.903 25.681,18.068 2.18,1.517 4.412,3.414 7.24,3.384 9.93,0.13 19.867,-0.152 29.797,0.099 14.83,0.259 29.606,3.772 42.934,10.273 20.614,9.998 37.638,27.106 47.537,47.773 6.127,12.406 9.099,26.131 10.097,39.879 v 203.455 c -1.044,13.74 -3.925,27.48 -10.09,39.894 -13.534,28.547 -40.999,50.136 -72.098,56.019 -3.551,0.564 -7.095,1.143 -10.562,2.103 H 138.162 c -6.051,-1.357 -12.246,-1.989 -18.221,-3.681 -24.211,-6.584 -45.754,-22.481 -59.151,-43.704 -7.026,-10.844 -11.804,-23.09 -14.258,-35.756 -1.052,-5.677 -1.387,-11.438 -1.882,-17.169 V 994.056 c 0.594,-14.769 3.551,-29.583 10.128,-42.904 13.687,-28.737 41.426,-50.448 72.815,-56.156 14.09,-2.972 28.57,-1.707 42.851,-2.012 2.629,0.046 4.77,-1.616 6.805,-3.048 8.992,-6.645 18.602,-12.452 27.366,-19.402 -8.36,-2.858 -16.857,-5.334 -25.003,-8.787 -8.68,-3.094 -16.781,-7.537 -24.927,-11.781 -12.787,-7.209 -25.026,-15.82 -34.529,-27.129 -6.782,-7.765 -11.644,-17.238 -13.557,-27.396 -1.082,-6.028 -0.267,-12.155 -0.602,-18.213 -0.008,-1.936 -1.943,-2.957 -3.14,-4.176 -4.085,-3.33 -7.377,-7.499 -10.242,-11.896 -3.155,-4.816 -4.687,-10.44 -6.218,-15.919 -1.73,-6.226 -1.311,-12.787 -0.617,-19.128 0.983,-9.381 5.487,-18.053 11.256,-25.369 2.073,-2.766 4.969,-4.694 7.461,-7.026 1.867,-1.6 1.631,-4.283 1.73,-6.493 -0.32,-11.698 -0.213,-23.395 -0.13,-35.093 -0.046,-1.303 0.038,-2.652 -0.419,-3.887 -1.379,-1.654 -3.178,-2.865 -4.717,-4.344 -6.523,-6.112 -11.073,-14.106 -13.862,-22.549 -1.6,-5.571 -1.92,-11.431 -1.882,-17.192 0.13,-13.969 6.721,-27.586 17.093,-36.83 1.844,-1.738 3.879,-3.772 3.605,-6.539 0,-17.794 -0.046,-35.596 0.008,-53.397 -0.053,-2.98 0.328,-6.028 -0.343,-8.954 -2.24,-2.888 -5.426,-4.885 -7.743,-7.72 -9.518,-11.035 -14.266,-26.23 -12.269,-40.709 1.616,-10.516 5.738,-20.934 13.252,-28.646 2.126,-2.233 4.877,-3.887 6.615,-6.47 0.61,-1.6 0.48,-3.361 0.533,-5.037 -0.114,-11.698 -0.091,-23.395 -0.008,-35.085 -0.091,-1.41 0.069,-2.926 -0.587,-4.214 -0.975,-1.334 -2.294,-2.347 -3.521,-3.429 -6.485,-5.266 -10.661,-12.78 -13.763,-20.408 -3.368,-9.45 -3.742,-19.89 -1.539,-29.652 2.286,-10.143 7.156,-20.126 15.348,-26.771 1.821,-1.646 4.29,-3.338 4.016,-6.127 -0.023,-16.803 0.008,-33.614 -0.015,-50.41 0.236,-2.591 -2.187,-4.016 -3.795,-5.586 -7.659,-6.599 -12.78,-15.79 -15.5,-25.445 -2.174,-10.548 -1.885,-21.826 1.781,-32.007 z m 7.811,165.633 c 0.541,5.677 3.17,10.821 5.418,15.973 3.757,6.569 9.229,12.216 15.851,15.927 0.343,14.136 -0.198,28.295 0.251,42.431 7.895,0.389 15.813,0.084 23.715,0.175 h 222.186 188.564 c 4.313,0.069 8.642,0.114 12.94,-0.335 0.556,-4.786 0.168,-9.602 0.259,-14.395 0.076,-9.564 -0.122,-19.12 0.069,-28.676 4.877,-3.384 9.731,-7.049 13.085,-12.033 3.124,-4.351 5.304,-9.282 7.064,-14.319 2.218,-5.799 1.204,-12.124 1.349,-18.175 -0.808,-7.057 -3.422,-13.908 -7.133,-19.951 -3.483,-5.776 -8.756,-10.181 -14.311,-13.869 -0.419,-16.681 0.236,-33.386 -0.313,-50.06 -99.296,-0.061 -198.6,-0.046 -297.904,-0.038 -42.713,0.008 -85.427,0.008 -128.14,0 -7.102,0.084 -14.22,-0.229 -21.322,0.206 -0.579,5.037 -0.152,10.113 -0.259,15.173 -0.099,11.835 0.16,23.67 -0.114,35.497 -5.266,3.467 -10.41,7.491 -13.664,13.001 -2.103,3.612 -4.336,7.224 -5.54,11.256 -1.876,7.223 -3.103,14.752 -2.051,22.212 z"
   id="path96"
   style="display:inline"
   sodipodi:nodetypes="cccccccccccccccccccccccccccsccccccccccccccccccccccccccccccccccccccccccccccccccccccccccccccccccccccccccccccccccccccccccccccccccccccccccccccccccccccscccsccccccccccccccccccccccccccccccccccccccccccccccccccccccccccccccccccccccccccccccccccccccccccccccccccccccccccccccccccccccccccccccccccccccccccccccccccccc"
   inkscape:label="border" /></g>
</svg>
