<?xml version="1.0" encoding="utf-8"?>
<!-- Generator: Adobe Illustrator 21.0.0, SVG Export Plug-In . SVG Version: 6.00 Build 0)  -->
<svg version="1.1" id="Слой_1" xmlns="http://www.w3.org/2000/svg" xmlns:xlink="http://www.w3.org/1999/xlink" x="0px" y="0px"
	 width="800px" height="600px" viewBox="0 0 800 600" enable-background="new 0 0 800 600" xml:space="preserve">
<g>
	<g>
		<g>
			<polygon fill="#009FE3" points="251.6,214.9 246.9,203.3 251.6,206 256.4,203.3 			"/>
		</g>
	</g>
	<g>
		<g>
			<polygon fill="#009FE3" points="240.5,214.9 235.8,203.3 240.5,206 245.3,203.3 			"/>
		</g>
	</g>
	<g>
		<g>
			<polygon fill="#009FE3" points="229.8,214.9 225.1,203.3 229.8,206 234.5,203.3 			"/>
		</g>
	</g>
	<circle fill="none" stroke="#009FE3" stroke-width="2.5" stroke-miterlimit="10" cx="275.8" cy="211.3" r="24.2"/>
	<circle fill="none" stroke="#009FE3" stroke-width="2.5" stroke-miterlimit="10" cx="275.8" cy="211.3" r="35.3"/>
	<circle fill="none" stroke="#009FE3" stroke-width="2.5" stroke-miterlimit="10" cx="275.8" cy="211.3" r="46"/>
</g>
<g>
	<path fill="#878787" d="M254.7,53.2v-1.5c0.8,0,1.4,0,1.7-0.1c0.3-0.1,0.6-0.2,0.9-0.5s0.4-0.7,0.4-1.1c0-0.5-0.2-1-0.5-1.3
		c-0.4-0.3-0.8-0.5-1.4-0.5c-1.1,0-1.9,0.7-2.3,2l-1.9-0.3c0.6-2.2,2-3.3,4.2-3.3c1.2,0,2.2,0.3,2.9,1c0.7,0.7,1.1,1.5,1.1,2.4
		c0,1-0.5,1.7-1.4,2.3c0.6,0.3,1,0.7,1.3,1.2c0.3,0.5,0.4,1.1,0.4,1.7c0,1-0.4,1.9-1.1,2.5s-1.8,1-3.2,1c-2.7,0-4.2-1.2-4.6-3.5
		l1.9-0.4c0.2,0.7,0.5,1.3,1,1.7c0.5,0.4,1.1,0.6,1.8,0.6s1.2-0.2,1.7-0.6c0.4-0.4,0.7-0.9,0.7-1.4c0-0.5-0.1-0.8-0.4-1.2
		s-0.6-0.5-0.9-0.6c-0.3-0.1-0.9-0.1-1.7-0.1C255.1,53.2,255,53.2,254.7,53.2z"/>
	<path fill="#878787" d="M261.5,52.7c0-2.2,0.6-3.8,1.8-4.8c1-0.9,2.2-1.3,3.7-1.3c1.6,0,2.9,0.5,3.9,1.6c1,1.1,1.5,2.5,1.5,4.4
		c0,1.5-0.2,2.7-0.7,3.5c-0.5,0.9-1.1,1.5-2,2c-0.9,0.5-1.8,0.7-2.8,0.7c-1.6,0-3-0.5-4-1.6C262,56.1,261.5,54.6,261.5,52.7z
		 M263.5,52.7c0,1.5,0.3,2.6,1,3.4c0.7,0.7,1.5,1.1,2.5,1.1c1,0,1.8-0.4,2.4-1.1s1-1.9,1-3.4c0-1.4-0.3-2.5-1-3.3
		c-0.7-0.7-1.5-1.1-2.4-1.1c-1,0-1.8,0.4-2.5,1.1S263.5,51.2,263.5,52.7z"/>
	<path fill="#878787" d="M274.7,46.8h2v4.9h5.5v-4.9h2v11.7h-2v-5.2h-5.5v5.2h-2V46.8z"/>
	<path fill="#878787" d="M294.8,57.1c-0.7,0.6-1.4,1.1-2.1,1.3c-0.7,0.3-1.4,0.4-2.2,0.4c-1.3,0-2.3-0.3-3-0.9c-0.7-0.6-1-1.4-1-2.4
		c0-0.6,0.1-1.1,0.4-1.6c0.3-0.5,0.6-0.9,1-1.1c0.4-0.3,0.9-0.5,1.4-0.6c0.4-0.1,1-0.2,1.8-0.3c1.6-0.2,2.8-0.4,3.5-0.7
		c0-0.3,0-0.4,0-0.5c0-0.8-0.2-1.4-0.6-1.7c-0.5-0.4-1.3-0.7-2.3-0.7c-0.9,0-1.6,0.2-2.1,0.5c-0.4,0.3-0.8,0.9-1,1.7l-1.9-0.3
		c0.2-0.8,0.5-1.5,0.9-2c0.4-0.5,1-0.9,1.7-1.2c0.8-0.3,1.6-0.4,2.6-0.4c1,0,1.8,0.1,2.4,0.4s1.1,0.5,1.4,0.9
		c0.3,0.4,0.5,0.8,0.6,1.3c0.1,0.3,0.1,0.9,0.1,1.8v2.6c0,1.8,0,3,0.1,3.5c0.1,0.5,0.3,1,0.5,1.4h-2.1
		C295,58.1,294.8,57.6,294.8,57.1z M294.6,52.6c-0.7,0.3-1.8,0.5-3.2,0.7c-0.8,0.1-1.4,0.2-1.7,0.4s-0.6,0.4-0.8,0.6
		c-0.2,0.3-0.3,0.6-0.3,0.9c0,0.5,0.2,1,0.6,1.3c0.4,0.4,1,0.5,1.8,0.5c0.8,0,1.4-0.2,2-0.5c0.6-0.3,1-0.8,1.3-1.4
		c0.2-0.4,0.3-1.1,0.3-2V52.6z"/>
	<path fill="#878787" d="M305.2,46.8h2V49c0,1,0.1,1.6,0.2,2.1c0.1,0.4,0.4,0.8,0.8,1.1c0.4,0.3,1,0.5,1.6,0.5
		c0.7,0,1.7-0.2,2.9-0.6v-5.3h2v11.7h-2v-4.7c-1.2,0.4-2.4,0.6-3.4,0.6c-0.9,0-1.7-0.2-2.3-0.7c-0.7-0.5-1.1-1-1.4-1.7
		c-0.2-0.7-0.4-1.4-0.4-2.2V46.8z"/>
	<path fill="#878787" d="M317.6,63l-0.2-1.9c0.4,0.1,0.8,0.2,1.1,0.2c0.4,0,0.8-0.1,1.1-0.2s0.5-0.4,0.6-0.6
		c0.1-0.2,0.3-0.7,0.6-1.5c0-0.1,0.1-0.3,0.2-0.5l-4.4-11.7h2.1l2.4,6.8c0.3,0.9,0.6,1.8,0.8,2.7c0.2-0.9,0.5-1.8,0.8-2.7l2.5-6.8h2
		l-4.4,11.9c-0.5,1.3-0.8,2.2-1.1,2.6c-0.4,0.7-0.8,1.1-1.2,1.4c-0.5,0.3-1,0.5-1.6,0.5C318.5,63.2,318,63.1,317.6,63z"/>
	<path fill="#878787" d="M328.9,46.8h4.6c1.1,0,2,0.1,2.5,0.3c0.5,0.2,1,0.5,1.4,1c0.4,0.5,0.6,1.1,0.6,1.8c0,0.6-0.1,1-0.3,1.5
		c-0.2,0.4-0.6,0.8-1,1c0.5,0.2,1,0.5,1.4,1c0.4,0.5,0.5,1.1,0.5,1.8c-0.1,1.1-0.5,1.9-1.2,2.5s-1.8,0.8-3.1,0.8h-5.3V46.8z
		 M330.9,51.7h2.1c0.8,0,1.4,0,1.7-0.1c0.3-0.1,0.6-0.3,0.8-0.5c0.2-0.3,0.4-0.6,0.4-1c0-0.6-0.2-1-0.7-1.3s-1.2-0.4-2.2-0.4h-2.2
		V51.7z M330.9,56.9h2.6c1.1,0,1.9-0.1,2.3-0.4c0.4-0.3,0.6-0.7,0.7-1.3c0-0.4-0.1-0.7-0.4-1c-0.2-0.3-0.6-0.5-0.9-0.6
		c-0.4-0.1-1-0.1-1.9-0.1h-2.4V56.9z"/>
	<path fill="#878787" d="M348.2,54.2l1.9,0.3c-0.2,1.3-0.8,2.4-1.6,3.1c-0.9,0.8-2,1.1-3.2,1.1c-1.6,0-2.9-0.5-3.9-1.6
		c-1-1-1.5-2.5-1.5-4.5c0-1.3,0.2-2.4,0.6-3.3c0.4-0.9,1.1-1.7,1.9-2.1c0.9-0.5,1.8-0.7,2.8-0.7c1.3,0,2.3,0.3,3.1,1
		c0.8,0.6,1.3,1.6,1.5,2.7l-1.9,0.3c-0.2-0.8-0.5-1.4-1-1.8c-0.5-0.4-1-0.6-1.7-0.6c-1,0-1.8,0.4-2.4,1.1c-0.6,0.7-0.9,1.8-0.9,3.4
		c0,1.6,0.3,2.7,0.9,3.4s1.4,1.1,2.4,1.1c0.8,0,1.4-0.2,1.9-0.7C347.7,55.9,348.1,55.2,348.2,54.2z"/>
	<path fill="#878787" d="M350.8,46.8h9.5v1.6h-3.8v10h-2v-10h-3.8V46.8z"/>
	<path fill="#878787" d="M362.2,46.8h4.6c1.1,0,2,0.1,2.5,0.3c0.5,0.2,1,0.5,1.4,1c0.4,0.5,0.6,1.1,0.6,1.8c0,0.6-0.1,1-0.3,1.5
		c-0.2,0.4-0.6,0.8-1,1c0.5,0.2,1,0.5,1.4,1c0.4,0.5,0.5,1.1,0.5,1.8c-0.1,1.1-0.5,1.9-1.2,2.5s-1.8,0.8-3.1,0.8h-5.3V46.8z
		 M364.1,51.7h2.1c0.8,0,1.4,0,1.7-0.1c0.3-0.1,0.6-0.3,0.8-0.5c0.2-0.3,0.4-0.6,0.4-1c0-0.6-0.2-1-0.7-1.3s-1.2-0.4-2.2-0.4h-2.2
		V51.7z M364.1,56.9h2.6c1.1,0,1.9-0.1,2.3-0.4c0.4-0.3,0.6-0.7,0.7-1.3c0-0.4-0.1-0.7-0.4-1c-0.2-0.3-0.6-0.5-0.9-0.6
		c-0.4-0.1-1-0.1-1.9-0.1h-2.4V56.9z"/>
	<path fill="#878787" d="M374.1,46.8h2v8.9l5.5-8.9h2.1v11.7h-2v-8.8l-5.5,8.8h-2.1V46.8z"/>
	<path fill="#878787" d="M385.6,46.8h9.5v1.6h-3.8v10h-2v-10h-3.8V46.8z"/>
	<path fill="#878787" d="M404.7,54.7l2,0.3c-0.3,1.2-0.9,2.1-1.8,2.8c-0.9,0.7-2,1-3.3,1c-1.7,0-3.1-0.5-4.1-1.6
		c-1-1.1-1.5-2.5-1.5-4.4c0-2,0.5-3.5,1.5-4.6s2.3-1.6,3.9-1.6c1.6,0,2.8,0.5,3.8,1.6c1,1.1,1.5,2.6,1.5,4.5c0,0.1,0,0.3,0,0.5h-8.7
		c0.1,1.3,0.4,2.3,1.1,2.9c0.7,0.7,1.5,1,2.4,1c0.7,0,1.3-0.2,1.9-0.6S404.4,55.6,404.7,54.7z M398.2,51.5h6.5
		c-0.1-1-0.3-1.7-0.7-2.2c-0.6-0.8-1.4-1.1-2.5-1.1c-0.9,0-1.7,0.3-2.3,0.9C398.6,49.7,398.3,50.5,398.2,51.5z"/>
	<path fill="#878787" d="M409.5,46.8h9.2v11.7h-2v-10h-5.2v5.8c0,1.4,0,2.2-0.1,2.7s-0.3,0.8-0.7,1.1s-1,0.5-1.7,0.5
		c-0.5,0-1,0-1.6-0.1v-1.6h0.9c0.4,0,0.7,0,0.9-0.1c0.2-0.1,0.3-0.2,0.4-0.4c0.1-0.2,0.1-0.8,0.1-1.8V46.8z"/>
	<path fill="#878787" d="M421.6,46.8h2v4.6h2.5c1.6,0,2.9,0.3,3.8,1c0.9,0.6,1.3,1.5,1.3,2.6c0,1-0.4,1.8-1.1,2.5
		c-0.7,0.7-1.9,1-3.5,1h-4.9V46.8z M423.6,56.9h2.1c1.3,0,2.1-0.2,2.7-0.5c0.5-0.3,0.8-0.8,0.8-1.4c0-0.5-0.2-1-0.6-1.4
		s-1.3-0.6-2.6-0.6h-2.3V56.9z"/>
	<path fill="#878787" d="M433.4,46.8h2v4.9h5.5v-4.9h2v11.7h-2v-5.2h-5.5v5.2h-2V46.8z"/>
	<path fill="#878787" d="M445,52.7c0-2.2,0.6-3.8,1.8-4.8c1-0.9,2.2-1.3,3.7-1.3c1.6,0,2.9,0.5,3.9,1.6c1,1.1,1.5,2.5,1.5,4.4
		c0,1.5-0.2,2.7-0.7,3.5c-0.5,0.9-1.1,1.5-2,2c-0.9,0.5-1.8,0.7-2.8,0.7c-1.6,0-3-0.5-4-1.6C445.5,56.1,445,54.6,445,52.7z
		 M447.1,52.7c0,1.5,0.3,2.6,1,3.4c0.7,0.7,1.5,1.1,2.5,1.1c1,0,1.8-0.4,2.4-1.1c0.7-0.7,1-1.9,1-3.4c0-1.4-0.3-2.5-1-3.3
		c-0.7-0.7-1.5-1.1-2.4-1.1c-1,0-1.8,0.4-2.5,1.1C447.4,50,447.1,51.2,447.1,52.7z"/>
	<path fill="#878787" d="M465.9,54.2l1.9,0.3c-0.2,1.3-0.8,2.4-1.6,3.1c-0.9,0.8-2,1.1-3.2,1.1c-1.6,0-2.9-0.5-3.9-1.6
		c-1-1-1.5-2.5-1.5-4.5c0-1.3,0.2-2.4,0.6-3.3c0.4-0.9,1.1-1.7,1.9-2.1c0.9-0.5,1.8-0.7,2.8-0.7c1.3,0,2.3,0.3,3.1,1
		c0.8,0.6,1.3,1.6,1.5,2.7l-1.9,0.3c-0.2-0.8-0.5-1.4-1-1.8c-0.5-0.4-1-0.6-1.7-0.6c-1,0-1.8,0.4-2.4,1.1c-0.6,0.7-0.9,1.8-0.9,3.4
		c0,1.6,0.3,2.7,0.9,3.4s1.4,1.1,2.4,1.1c0.8,0,1.4-0.2,1.9-0.7C465.4,55.9,465.8,55.2,465.9,54.2z"/>
	<path fill="#878787" d="M468.5,46.8h9.5v1.6h-3.8v10h-2v-10h-3.8V46.8z"/>
	<path fill="#878787" d="M479.8,46.8h2v8.9l5.5-8.9h2.1v11.7h-2v-8.8l-5.5,8.8h-2.1V46.8z"/>
	<path fill="#878787" d="M500.2,46.8h8.1v10h1.3v4.9H508v-3.3h-9.2v3.3h-1.6v-4.9h1C499.6,55,500.3,51.6,500.2,46.8z M501.9,48.5
		c-0.1,3.8-0.7,6.6-1.8,8.4h6.3v-8.4H501.9z"/>
	<path fill="#878787" d="M519.4,57.1c-0.7,0.6-1.4,1.1-2.1,1.3c-0.7,0.3-1.4,0.4-2.2,0.4c-1.3,0-2.3-0.3-3-0.9c-0.7-0.6-1-1.4-1-2.4
		c0-0.6,0.1-1.1,0.4-1.6c0.3-0.5,0.6-0.9,1-1.1s0.9-0.5,1.4-0.6c0.4-0.1,1-0.2,1.8-0.3c1.6-0.2,2.8-0.4,3.5-0.7c0-0.3,0-0.4,0-0.5
		c0-0.8-0.2-1.4-0.6-1.7c-0.5-0.4-1.3-0.7-2.3-0.7c-0.9,0-1.6,0.2-2.1,0.5c-0.4,0.3-0.8,0.9-1,1.7l-1.9-0.3c0.2-0.8,0.5-1.5,0.9-2
		c0.4-0.5,1-0.9,1.7-1.2c0.8-0.3,1.6-0.4,2.6-0.4c1,0,1.8,0.1,2.4,0.4c0.6,0.2,1.1,0.5,1.4,0.9c0.3,0.4,0.5,0.8,0.6,1.3
		c0.1,0.3,0.1,0.9,0.1,1.8v2.6c0,1.8,0,3,0.1,3.5c0.1,0.5,0.3,1,0.5,1.4h-2.1C519.6,58.1,519.5,57.6,519.4,57.1z M519.2,52.6
		c-0.7,0.3-1.8,0.5-3.2,0.7c-0.8,0.1-1.4,0.2-1.7,0.4s-0.6,0.4-0.8,0.6c-0.2,0.3-0.3,0.6-0.3,0.9c0,0.5,0.2,1,0.6,1.3
		c0.4,0.4,1,0.5,1.8,0.5c0.8,0,1.4-0.2,2-0.5c0.6-0.3,1-0.8,1.3-1.4c0.2-0.4,0.3-1.1,0.3-2V52.6z"/>
	<path fill="#878787" d="M522.7,46.8h9.5v1.6h-3.8v10h-2v-10h-3.8V46.8z"/>
	<path fill="#878787" d="M533.4,46.8h2V49c0,1,0.1,1.6,0.2,2.1c0.1,0.4,0.4,0.8,0.8,1.1c0.4,0.3,1,0.5,1.6,0.5
		c0.7,0,1.7-0.2,2.9-0.6v-5.3h2v11.7h-2v-4.7c-1.2,0.4-2.4,0.6-3.4,0.6c-0.9,0-1.7-0.2-2.3-0.7c-0.7-0.5-1.1-1-1.4-1.7
		c-0.2-0.7-0.4-1.4-0.4-2.2V46.8z"/>
	<path fill="#878787" d="M545.8,46.8h2v8.9l5.5-8.9h2.1v11.7h-2v-8.8l-5.5,8.8h-2.1V46.8z"/>
	<path fill="#878787" d="M558.4,46.8h2v5c0.6,0,1.1-0.1,1.3-0.4s0.6-0.9,1.1-2.1c0.4-0.9,0.7-1.5,0.9-1.8c0.2-0.3,0.5-0.5,0.8-0.6
		c0.3-0.1,0.8-0.2,1.5-0.2h0.4v1.6l-0.5,0c-0.5,0-0.9,0.1-1,0.2c-0.2,0.2-0.4,0.6-0.7,1.4c-0.3,0.8-0.6,1.3-0.8,1.6
		s-0.6,0.6-1.2,0.8c0.8,0.2,1.7,1,2.5,2.4l2.2,3.6h-2.2l-2.1-3.6c-0.4-0.7-0.8-1.2-1.1-1.4c-0.3-0.2-0.7-0.3-1.2-0.3v5.4h-2V46.8z"
		/>
	<path fill="#878787" d="M576.4,57.1c-0.7,0.6-1.4,1.1-2.1,1.3c-0.7,0.3-1.4,0.4-2.2,0.4c-1.3,0-2.3-0.3-3-0.9c-0.7-0.6-1-1.4-1-2.4
		c0-0.6,0.1-1.1,0.4-1.6c0.3-0.5,0.6-0.9,1-1.1s0.9-0.5,1.4-0.6c0.4-0.1,1-0.2,1.8-0.3c1.6-0.2,2.8-0.4,3.5-0.7c0-0.3,0-0.4,0-0.5
		c0-0.8-0.2-1.4-0.6-1.7c-0.5-0.4-1.3-0.7-2.3-0.7c-0.9,0-1.6,0.2-2.1,0.5c-0.4,0.3-0.8,0.9-1,1.7l-1.9-0.3c0.2-0.8,0.5-1.5,0.9-2
		c0.4-0.5,1-0.9,1.7-1.2c0.8-0.3,1.6-0.4,2.6-0.4c1,0,1.8,0.1,2.4,0.4c0.6,0.2,1.1,0.5,1.4,0.9c0.3,0.4,0.5,0.8,0.6,1.3
		c0.1,0.3,0.1,0.9,0.1,1.8v2.6c0,1.8,0,3,0.1,3.5c0.1,0.5,0.3,1,0.5,1.4h-2.1C576.5,58.1,576.4,57.6,576.4,57.1z M576.2,52.6
		c-0.7,0.3-1.8,0.5-3.2,0.7c-0.8,0.1-1.4,0.2-1.7,0.4s-0.6,0.4-0.8,0.6c-0.2,0.3-0.3,0.6-0.3,0.9c0,0.5,0.2,1,0.6,1.3
		c0.4,0.4,1,0.5,1.8,0.5c0.8,0,1.4-0.2,2-0.5c0.6-0.3,1-0.8,1.3-1.4c0.2-0.4,0.3-1.1,0.3-2V52.6z"/>
</g>
<g>
	<g>
		
			<line fill="none" stroke="#E30613" stroke-width="5" stroke-linecap="round" stroke-linejoin="round" x1="578" y1="434.5" x2="623" y2="434.5"/>
		<g>
			<polygon fill="#E30613" points="644.2,434.5 614.3,446.7 621.4,434.5 614.3,422.4 			"/>
		</g>
	</g>
</g>
<g>
	<path fill="#878787" d="M598.9,383l1.9,0.3c-0.2,1.3-0.8,2.4-1.6,3.1c-0.9,0.8-2,1.1-3.2,1.1c-1.6,0-2.9-0.5-3.9-1.6
		c-1-1-1.5-2.5-1.5-4.5c0-1.3,0.2-2.4,0.6-3.3c0.4-0.9,1.1-1.7,1.9-2.1c0.9-0.5,1.8-0.7,2.8-0.7c1.3,0,2.3,0.3,3.1,1
		s1.3,1.6,1.5,2.7l-1.9,0.3c-0.2-0.8-0.5-1.4-1-1.8c-0.5-0.4-1-0.6-1.7-0.6c-1,0-1.8,0.4-2.4,1.1c-0.6,0.7-0.9,1.8-0.9,3.4
		c0,1.6,0.3,2.7,0.9,3.4c0.6,0.7,1.4,1.1,2.4,1.1c0.8,0,1.4-0.2,1.9-0.7C598.5,384.7,598.8,384,598.9,383z"/>
	<path fill="#878787" d="M602.6,375.6h2v8.9l5.5-8.9h2.1v11.7h-2v-8.8l-5.5,8.8h-2.1V375.6z"/>
	<path fill="#878787" d="M615.1,375.6h6.7v1.6h-4.7v10h-2V375.6z"/>
	<path fill="#878787" d="M623.3,375.6h2v4.9h5.5v-4.9h2v11.7h-2v-5.2h-5.5v5.2h-2V375.6z"/>
	<path fill="#878787" d="M643.4,385.8c-0.7,0.6-1.4,1.1-2.1,1.3c-0.7,0.3-1.4,0.4-2.2,0.4c-1.3,0-2.3-0.3-3-0.9
		c-0.7-0.6-1-1.4-1-2.4c0-0.6,0.1-1.1,0.4-1.6s0.6-0.9,1-1.1c0.4-0.3,0.9-0.5,1.4-0.6c0.4-0.1,1-0.2,1.8-0.3
		c1.6-0.2,2.8-0.4,3.5-0.7c0-0.3,0-0.4,0-0.5c0-0.8-0.2-1.4-0.6-1.7c-0.5-0.4-1.3-0.7-2.3-0.7c-0.9,0-1.6,0.2-2.1,0.5
		c-0.4,0.3-0.8,0.9-1,1.7l-1.9-0.3c0.2-0.8,0.5-1.5,0.9-2c0.4-0.5,1-0.9,1.7-1.2c0.8-0.3,1.6-0.4,2.6-0.4c1,0,1.8,0.1,2.4,0.4
		c0.6,0.2,1.1,0.5,1.4,0.9c0.3,0.4,0.5,0.8,0.6,1.3c0.1,0.3,0.1,0.9,0.1,1.8v2.6c0,1.8,0,3,0.1,3.5s0.3,1,0.5,1.4h-2.1
		C643.6,386.8,643.4,386.3,643.4,385.8z M643.2,381.4c-0.7,0.3-1.8,0.5-3.2,0.7c-0.8,0.1-1.4,0.2-1.7,0.4s-0.6,0.4-0.8,0.6
		c-0.2,0.3-0.3,0.6-0.3,0.9c0,0.5,0.2,1,0.6,1.3c0.4,0.4,1,0.5,1.8,0.5c0.8,0,1.4-0.2,2-0.5c0.6-0.3,1-0.8,1.3-1.4
		c0.2-0.4,0.3-1.1,0.3-2V381.4z"/>
	<path fill="#878787" d="M649.2,375.6h9.2v11.7h-2v-10h-5.2v5.8c0,1.4,0,2.2-0.1,2.7c-0.1,0.4-0.3,0.8-0.7,1.1s-1,0.5-1.7,0.5
		c-0.5,0-1,0-1.6-0.1v-1.6h0.9c0.4,0,0.7,0,0.9-0.1s0.3-0.2,0.4-0.4c0.1-0.2,0.1-0.8,0.1-1.8V375.6z"/>
	<path fill="#878787" d="M591.3,398.1h2v4.9h5.5v-4.9h2v11.7h-2v-5.2h-5.5v5.2h-2V398.1z"/>
	<path fill="#878787" d="M611.4,408.3c-0.7,0.6-1.4,1.1-2.1,1.3c-0.7,0.3-1.4,0.4-2.2,0.4c-1.3,0-2.3-0.3-3-0.9s-1-1.4-1-2.4
		c0-0.6,0.1-1.1,0.4-1.6s0.6-0.9,1-1.1c0.4-0.3,0.9-0.5,1.4-0.6c0.4-0.1,1-0.2,1.8-0.3c1.6-0.2,2.8-0.4,3.5-0.7c0-0.3,0-0.4,0-0.5
		c0-0.8-0.2-1.4-0.6-1.7c-0.5-0.4-1.3-0.7-2.3-0.7c-0.9,0-1.6,0.2-2.1,0.5c-0.4,0.3-0.8,0.9-1,1.7l-1.9-0.3c0.2-0.8,0.5-1.5,0.9-2
		c0.4-0.5,1-0.9,1.7-1.2c0.8-0.3,1.6-0.4,2.6-0.4c1,0,1.8,0.1,2.4,0.4c0.6,0.2,1.1,0.5,1.4,0.9s0.5,0.8,0.6,1.3
		c0.1,0.3,0.1,0.9,0.1,1.8v2.6c0,1.8,0,3,0.1,3.5c0.1,0.5,0.3,1,0.5,1.4h-2.1C611.5,409.3,611.4,408.8,611.4,408.3z M611.2,403.9
		c-0.7,0.3-1.8,0.5-3.2,0.7c-0.8,0.1-1.4,0.2-1.7,0.4s-0.6,0.4-0.8,0.6c-0.2,0.3-0.3,0.6-0.3,0.9c0,0.5,0.2,1,0.6,1.3
		c0.4,0.4,1,0.5,1.8,0.5c0.8,0,1.4-0.2,2-0.5c0.6-0.3,1-0.8,1.3-1.4c0.2-0.4,0.3-1.1,0.3-2V403.9z"/>
	<path fill="#878787" d="M630.1,405.5l1.9,0.3c-0.2,1.3-0.8,2.4-1.6,3.1c-0.9,0.8-2,1.1-3.2,1.1c-1.6,0-2.9-0.5-3.9-1.6
		c-1-1-1.5-2.5-1.5-4.5c0-1.3,0.2-2.4,0.6-3.3c0.4-0.9,1.1-1.7,1.9-2.1s1.8-0.7,2.8-0.7c1.3,0,2.3,0.3,3.1,1s1.3,1.6,1.5,2.7
		l-1.9,0.3c-0.2-0.8-0.5-1.4-1-1.8c-0.5-0.4-1-0.6-1.7-0.6c-1,0-1.8,0.4-2.4,1.1c-0.6,0.7-0.9,1.8-0.9,3.4c0,1.6,0.3,2.7,0.9,3.4
		c0.6,0.7,1.4,1.1,2.4,1.1c0.8,0,1.4-0.2,1.9-0.7C629.6,407.2,630,406.5,630.1,405.5z"/>
	<path fill="#878787" d="M633.8,414.2v-16.1h1.8v1.5c0.4-0.6,0.9-1,1.4-1.3c0.5-0.3,1.2-0.4,1.9-0.4c1,0,1.9,0.3,2.6,0.8
		s1.3,1.2,1.7,2.2c0.4,0.9,0.6,2,0.6,3.1c0,1.2-0.2,2.3-0.6,3.2s-1.1,1.7-1.9,2.2c-0.8,0.5-1.7,0.8-2.6,0.8c-0.7,0-1.3-0.1-1.8-0.4
		c-0.5-0.3-1-0.6-1.3-1.1v5.7H633.8z M635.5,404c0,1.5,0.3,2.6,0.9,3.3c0.6,0.7,1.3,1.1,2.2,1.1c0.9,0,1.6-0.4,2.3-1.1
		c0.6-0.7,0.9-1.9,0.9-3.5c0-1.5-0.3-2.6-0.9-3.3c-0.6-0.7-1.3-1.1-2.2-1.1c-0.8,0-1.6,0.4-2.2,1.2S635.5,402.5,635.5,404z"/>
	<path fill="#878787" d="M653.9,408.3c-0.7,0.6-1.4,1.1-2.1,1.3c-0.7,0.3-1.4,0.4-2.2,0.4c-1.3,0-2.3-0.3-3-0.9s-1-1.4-1-2.4
		c0-0.6,0.1-1.1,0.4-1.6s0.6-0.9,1-1.1c0.4-0.3,0.9-0.5,1.4-0.6c0.4-0.1,1-0.2,1.8-0.3c1.6-0.2,2.8-0.4,3.5-0.7c0-0.3,0-0.4,0-0.5
		c0-0.8-0.2-1.4-0.6-1.7c-0.5-0.4-1.3-0.7-2.3-0.7c-0.9,0-1.6,0.2-2.1,0.5c-0.4,0.3-0.8,0.9-1,1.7l-1.9-0.3c0.2-0.8,0.5-1.5,0.9-2
		c0.4-0.5,1-0.9,1.7-1.2c0.8-0.3,1.6-0.4,2.6-0.4c1,0,1.8,0.1,2.4,0.4c0.6,0.2,1.1,0.5,1.4,0.9s0.5,0.8,0.6,1.3
		c0.1,0.3,0.1,0.9,0.1,1.8v2.6c0,1.8,0,3,0.1,3.5c0.1,0.5,0.3,1,0.5,1.4h-2.1C654.1,409.3,653.9,408.8,653.9,408.3z M653.7,403.9
		c-0.7,0.3-1.8,0.5-3.2,0.7c-0.8,0.1-1.4,0.2-1.7,0.4s-0.6,0.4-0.8,0.6c-0.2,0.3-0.3,0.6-0.3,0.9c0,0.5,0.2,1,0.6,1.3
		c0.4,0.4,1,0.5,1.8,0.5c0.8,0,1.4-0.2,2-0.5c0.6-0.3,1-0.8,1.3-1.4c0.2-0.4,0.3-1.1,0.3-2V403.9z"/>
	<path fill="#878787" d="M667.3,393.2l1.7,0c-0.1,0.8-0.3,1.3-0.5,1.6c-0.3,0.3-0.6,0.5-1,0.6s-1.2,0.1-2.5,0.1
		c-1.6,0-2.7,0.2-3.3,0.5c-0.6,0.3-1,0.8-1.3,1.5c-0.3,0.7-0.4,1.6-0.4,2.7c0.5-0.7,1.1-1.3,1.7-1.7c0.7-0.4,1.4-0.6,2.3-0.6
		c1.5,0,2.8,0.5,3.8,1.6c1,1.1,1.5,2.5,1.5,4.3c0,1.4-0.3,2.5-0.8,3.4c-0.5,0.9-1.1,1.5-1.8,2c-0.7,0.5-1.6,0.7-2.8,0.7
		c-1.4,0-2.5-0.3-3.2-1s-1.4-1.4-1.8-2.4s-0.6-2.7-0.6-5.2c0-3.1,0.5-5.2,1.6-6.2s2.6-1.6,4.8-1.6c1.3,0,2.1,0,2.3-0.1
		C667.2,393.5,667.3,393.4,667.3,393.2z M667.2,403.9c0-1.2-0.3-2.2-0.9-3s-1.4-1.2-2.4-1.2c-1.1,0-1.9,0.4-2.5,1.2
		c-0.6,0.8-0.9,1.9-0.9,3.3c0,1.4,0.3,2.4,1,3.1s1.5,1.1,2.4,1.1c1,0,1.8-0.4,2.4-1.2C666.9,406.3,667.2,405.2,667.2,403.9z"/>
	<path fill="#878787" d="M678.8,408.3c-0.7,0.6-1.4,1.1-2.1,1.3c-0.7,0.3-1.4,0.4-2.2,0.4c-1.3,0-2.3-0.3-3-0.9s-1-1.4-1-2.4
		c0-0.6,0.1-1.1,0.4-1.6s0.6-0.9,1-1.1c0.4-0.3,0.9-0.5,1.4-0.6c0.4-0.1,1-0.2,1.8-0.3c1.6-0.2,2.8-0.4,3.5-0.7c0-0.3,0-0.4,0-0.5
		c0-0.8-0.2-1.4-0.6-1.7c-0.5-0.4-1.3-0.7-2.3-0.7c-0.9,0-1.6,0.2-2.1,0.5c-0.4,0.3-0.8,0.9-1,1.7l-1.9-0.3c0.2-0.8,0.5-1.5,0.9-2
		c0.4-0.5,1-0.9,1.7-1.2c0.8-0.3,1.6-0.4,2.6-0.4c1,0,1.8,0.1,2.4,0.4c0.6,0.2,1.1,0.5,1.4,0.9s0.5,0.8,0.6,1.3
		c0.1,0.3,0.1,0.9,0.1,1.8v2.6c0,1.8,0,3,0.1,3.5c0.1,0.5,0.3,1,0.5,1.4h-2.1C679,409.3,678.8,408.8,678.8,408.3z M678.6,403.9
		c-0.7,0.3-1.8,0.5-3.2,0.7c-0.8,0.1-1.4,0.2-1.7,0.4s-0.6,0.4-0.8,0.6c-0.2,0.3-0.3,0.6-0.3,0.9c0,0.5,0.2,1,0.6,1.3
		c0.4,0.4,1,0.5,1.8,0.5c0.8,0,1.4-0.2,2-0.5c0.6-0.3,1-0.8,1.3-1.4c0.2-0.4,0.3-1.1,0.3-2V403.9z"/>
	<path fill="#878787" d="M682.1,398.1h9.5v1.6h-3.8v10h-2v-10h-3.8V398.1z"/>
	<path fill="#878787" d="M693.5,398.1h2v4.6h2.5c1.6,0,2.9,0.3,3.8,1c0.9,0.6,1.3,1.5,1.3,2.6c0,1-0.4,1.8-1.1,2.5s-1.9,1-3.5,1
		h-4.9V398.1z M695.5,408.1h2.1c1.3,0,2.1-0.2,2.7-0.5c0.5-0.3,0.8-0.8,0.8-1.4c0-0.5-0.2-1-0.6-1.4s-1.3-0.6-2.6-0.6h-2.3V408.1z
		 M704.6,398.1h2v11.7h-2V398.1z"/>
	<path fill="#878787" d="M709.7,398.1h4.6c1.1,0,2,0.1,2.5,0.3c0.5,0.2,1,0.5,1.4,1s0.6,1.1,0.6,1.8c0,0.6-0.1,1-0.3,1.5
		c-0.2,0.4-0.6,0.8-1,1c0.5,0.2,1,0.5,1.4,1c0.4,0.5,0.5,1.1,0.5,1.8c-0.1,1.1-0.5,1.9-1.2,2.5c-0.7,0.5-1.8,0.8-3.1,0.8h-5.3V398.1
		z M711.6,403h2.1c0.8,0,1.4,0,1.7-0.1c0.3-0.1,0.6-0.3,0.8-0.5c0.2-0.3,0.4-0.6,0.4-1c0-0.6-0.2-1-0.7-1.3s-1.2-0.4-2.2-0.4h-2.2
		V403z M711.6,408.1h2.6c1.1,0,1.9-0.1,2.3-0.4c0.4-0.3,0.6-0.7,0.7-1.3c0-0.4-0.1-0.7-0.4-1c-0.2-0.3-0.6-0.5-0.9-0.6
		c-0.4-0.1-1-0.1-1.9-0.1h-2.4V408.1z"/>
	<path fill="#878787" d="M729,408.3c-0.7,0.6-1.4,1.1-2.1,1.3c-0.7,0.3-1.4,0.4-2.2,0.4c-1.3,0-2.3-0.3-3-0.9s-1-1.4-1-2.4
		c0-0.6,0.1-1.1,0.4-1.6s0.6-0.9,1-1.1c0.4-0.3,0.9-0.5,1.4-0.6c0.4-0.1,1-0.2,1.8-0.3c1.6-0.2,2.8-0.4,3.5-0.7c0-0.3,0-0.4,0-0.5
		c0-0.8-0.2-1.4-0.6-1.7c-0.5-0.4-1.3-0.7-2.3-0.7c-0.9,0-1.6,0.2-2.1,0.5c-0.4,0.3-0.8,0.9-1,1.7l-1.9-0.3c0.2-0.8,0.5-1.5,0.9-2
		c0.4-0.5,1-0.9,1.7-1.2c0.8-0.3,1.6-0.4,2.6-0.4c1,0,1.8,0.1,2.4,0.4c0.6,0.2,1.1,0.5,1.4,0.9s0.5,0.8,0.6,1.3
		c0.1,0.3,0.1,0.9,0.1,1.8v2.6c0,1.8,0,3,0.1,3.5c0.1,0.5,0.3,1,0.5,1.4h-2.1C729.1,409.3,729,408.8,729,408.3z M728.8,403.9
		c-0.7,0.3-1.8,0.5-3.2,0.7c-0.8,0.1-1.4,0.2-1.7,0.4s-0.6,0.4-0.8,0.6c-0.2,0.3-0.3,0.6-0.3,0.9c0,0.5,0.2,1,0.6,1.3
		c0.4,0.4,1,0.5,1.8,0.5c0.8,0,1.4-0.2,2-0.5c0.6-0.3,1-0.8,1.3-1.4c0.2-0.4,0.3-1.1,0.3-2V403.9z"/>
	<path fill="#878787" d="M733.9,398.1h2v4.9h5.5v-4.9h2v11.7h-2v-5.2h-5.5v5.2h-2V398.1z"/>
	<path fill="#878787" d="M746.3,398.1h2v8.9l5.5-8.9h2.1v11.7h-2v-8.8l-5.5,8.8h-2.1V398.1z"/>
	<path fill="#878787" d="M766.8,406l2,0.3c-0.3,1.2-0.9,2.1-1.8,2.8c-0.9,0.7-2,1-3.3,1c-1.7,0-3.1-0.5-4.1-1.6
		c-1-1.1-1.5-2.5-1.5-4.4c0-2,0.5-3.5,1.5-4.6s2.3-1.6,3.9-1.6c1.6,0,2.8,0.5,3.8,1.6c1,1.1,1.5,2.6,1.5,4.5c0,0.1,0,0.3,0,0.5h-8.7
		c0.1,1.3,0.4,2.3,1.1,2.9c0.7,0.7,1.5,1,2.4,1c0.7,0,1.3-0.2,1.9-0.6S766.5,406.8,766.8,406z M760.3,402.8h6.5
		c-0.1-1-0.3-1.7-0.7-2.2c-0.6-0.8-1.4-1.1-2.5-1.1c-0.9,0-1.7,0.3-2.3,0.9C760.8,401,760.4,401.8,760.3,402.8z"/>
</g>
<rect x="274.1" y="160.8" stroke="#9D9D9C" stroke-width="2.5" stroke-linecap="round" stroke-linejoin="round" stroke-miterlimit="10" width="302.8" height="101"/>
<linearGradient id="SVGID_1_" gradientUnits="userSpaceOnUse" x1="438.3993" y1="261.8044" x2="438.3993" y2="160.8456">
	<stop  offset="0" style="stop-color:#333333"/>
	<stop  offset="0.1293" style="stop-color:#373737"/>
	<stop  offset="0.2552" style="stop-color:#434343"/>
	<stop  offset="0.3549" style="stop-color:#525252"/>
	<stop  offset="0.4015" style="stop-color:#565656"/>
	<stop  offset="0.4544" style="stop-color:#646464"/>
	<stop  offset="0.5104" style="stop-color:#7B7B7B"/>
	<stop  offset="0.5681" style="stop-color:#9A9A9A"/>
	<stop  offset="0.6192" style="stop-color:#BDBDBD"/>
	<stop  offset="0.6574" style="stop-color:#B9B9B9"/>
	<stop  offset="0.6911" style="stop-color:#AEAEAE"/>
	<stop  offset="0.723" style="stop-color:#9D9D9D"/>
	<stop  offset="0.7409" style="stop-color:#8F8F8F"/>
	<stop  offset="0.7968" style="stop-color:#919191"/>
	<stop  offset="0.8181" style="stop-color:#989898"/>
	<stop  offset="0.8335" style="stop-color:#A4A4A4"/>
	<stop  offset="0.846" style="stop-color:#B5B5B5"/>
	<stop  offset="0.8568" style="stop-color:#CBCBCB"/>
	<stop  offset="0.8662" style="stop-color:#E6E6E6"/>
	<stop  offset="0.8731" style="stop-color:#FFFFFF"/>
	<stop  offset="0.9037" style="stop-color:#C7C7C7"/>
	<stop  offset="0.9504" style="stop-color:#787878"/>
	<stop  offset="0.9836" style="stop-color:#464646"/>
	<stop  offset="1" style="stop-color:#333333"/>
</linearGradient>
<path fill="url(#SVGID_1_)" stroke="#9D9D9C" stroke-width="2.5" stroke-linecap="round" stroke-linejoin="round" stroke-miterlimit="10" d="
	M576.9,261.8H301c0,0-2.4-27.9,0-53c2.4-24.5,0-48,0-48h275.9V261.8z"/>
<g>
	<path fill="#FFFFFF" d="M354.3,202.6l4.1,0.7c-0.5,1.5-1.4,2.6-2.5,3.4s-2.6,1.2-4.3,1.2c-2.7,0-4.7-0.9-6-2.7
		c-1-1.4-1.5-3.2-1.5-5.4c0-2.6,0.7-4.6,2-6.1s3.1-2.2,5.1-2.2c2.3,0,4.1,0.8,5.5,2.3s2,3.9,1.9,7h-10.3c0,1.2,0.4,2.2,1,2.8
		s1.4,1,2.4,1c0.6,0,1.2-0.2,1.6-0.5S354.1,203.4,354.3,202.6z M354.6,198.5c0-1.2-0.3-2.1-0.9-2.7s-1.3-0.9-2.1-0.9
		c-0.9,0-1.6,0.3-2.2,1s-0.9,1.5-0.9,2.7H354.6z"/>
	<path fill="#FFFFFF" d="M361.7,192h5.1l3.9,10.8l3.9-10.8h5.1v15.6h-3.5v-10.2l-3.8,10.2h-3.5l-3.6-10.2v10.2h-3.5V192z"/>
	<path fill="#FFFFFF" d="M383.7,192h4.1v6.4c0.7-0.1,1.2-0.3,1.5-0.6s0.6-1.1,1-2.2c0.5-1.5,1.1-2.5,1.7-2.9s1.4-0.6,2.5-0.6
		c0.3,0,0.9,0,1.6,0.1l0,2.7c-1.1,0-1.8,0.1-2.1,0.3c-0.3,0.2-0.6,0.9-1,1.9c-0.5,1.4-1.2,2.3-2.1,2.7c1.3,0.4,2.4,1.5,3.3,3.4
		c0,0.1,0.1,0.2,0.2,0.3l2.3,4.3h-4.4l-2.1-4.5c-0.4-0.9-0.8-1.5-1.1-1.8c-0.3-0.3-0.8-0.4-1.4-0.4v6.6h-4.1V192z"/>
	<path fill="#FFFFFF" d="M397.5,199.6c0-1.4,0.3-2.7,1-4s1.6-2.3,2.9-2.9c1.2-0.7,2.6-1,4.1-1c2.4,0,4.3,0.8,5.8,2.3
		s2.3,3.5,2.3,5.8c0,2.4-0.8,4.3-2.3,5.9c-1.5,1.5-3.4,2.3-5.7,2.3c-1.4,0-2.8-0.3-4.1-1c-1.3-0.6-2.3-1.6-3-2.8
		S397.5,201.4,397.5,199.6z M401.7,199.8c0,1.5,0.4,2.7,1.1,3.5s1.6,1.2,2.7,1.2s2-0.4,2.7-1.2c0.7-0.8,1.1-2,1.1-3.6
		c0-1.5-0.4-2.7-1.1-3.5c-0.7-0.8-1.6-1.2-2.7-1.2s-2,0.4-2.7,1.2S401.7,198.3,401.7,199.8z"/>
	<path fill="#FFFFFF" d="M429.9,196.6l-4.1,0.7c-0.1-0.8-0.4-1.4-0.9-1.8c-0.5-0.4-1.1-0.6-1.9-0.6c-1,0-1.8,0.4-2.5,1.1
		c-0.6,0.7-0.9,1.9-0.9,3.6c0,1.8,0.3,3.1,0.9,3.9s1.5,1.1,2.5,1.1c0.8,0,1.4-0.2,1.9-0.7s0.8-1.2,1.1-2.3l4,0.7
		c-0.4,1.9-1.2,3.3-2.4,4.2s-2.8,1.4-4.8,1.4c-2.3,0-4.1-0.7-5.4-2.2s-2-3.4-2-6c0-2.6,0.7-4.6,2-6s3.2-2.1,5.5-2.1
		c1.9,0,3.4,0.4,4.5,1.2C428.6,193.7,429.4,194.9,429.9,196.6z"/>
	<path fill="#FFFFFF" d="M431.2,192h14.1v3.3h-5v12.2h-4.1v-12.2h-5V192z"/>
	<path fill="#FFFFFF" d="M447.6,192h4.1v5.7h5.9V192h4.1v15.6h-4.1V201h-5.9v6.5h-4.1V192z"/>
	<path fill="#FFFFFF" d="M465.9,192h4.1v6.5h4.1c1.6,0,2.9,0.1,3.7,0.3s1.6,0.7,2.2,1.5s0.9,1.7,0.9,2.7c0,1.5-0.5,2.6-1.6,3.4
		s-2.6,1.1-4.7,1.1h-8.8V192z M470,205h3.8c1,0,1.7-0.2,2.2-0.5s0.7-0.8,0.7-1.5c0-0.8-0.3-1.3-0.9-1.5s-1.6-0.4-3.1-0.4H470V205z
		 M483.3,192h4.1v15.6h-4.1V192z"/>
	<path fill="#FFFFFF" d="M491.4,192h4v9.8l6.3-9.8h4v15.6h-4v-9.9l-6.4,9.9h-4V192z M501.2,185.7h2c-0.1,1.3-0.6,2.4-1.4,3.1
		c-0.8,0.8-1.9,1.1-3.2,1.1s-2.4-0.4-3.2-1.1s-1.3-1.8-1.4-3.1h2c0.1,0.7,0.3,1.2,0.7,1.6s1,0.5,1.8,0.5s1.4-0.2,1.8-0.5
		S501.2,186.4,501.2,185.7z"/>
	<path fill="#FFFFFF" d="M389.8,240.1h-11.8v4.1h-3.3v-7.5h1.7c0.7-0.8,1.3-2,1.7-3.7s0.7-4.5,0.8-8.5h12.6v12.2h1.7v7.5h-3.4V240.1
		z M387.5,236.7l0-8.8h-5c-0.2,4.3-0.8,7.2-2.1,8.8H387.5z"/>
	<path fill="#FFFFFF" d="M399.1,229.3l-3.7-0.7c0.4-1.5,1.1-2.6,2.2-3.3s2.5-1.1,4.6-1.1c1.8,0,3.2,0.2,4.1,0.7s1.5,1,1.9,1.7
		c0.4,0.7,0.5,1.9,0.5,3.7l0,4.8c0,1.4,0.1,2.4,0.2,3c0.1,0.6,0.4,1.3,0.7,2.1h-4.1c-0.1-0.3-0.2-0.7-0.4-1.2
		c-0.1-0.2-0.1-0.4-0.1-0.5c-0.7,0.7-1.5,1.2-2.3,1.5s-1.7,0.5-2.6,0.5c-1.6,0-2.9-0.4-3.8-1.3c-0.9-0.9-1.4-2-1.4-3.3
		c0-0.9,0.2-1.7,0.6-2.4s1-1.2,1.8-1.6c0.8-0.4,1.8-0.7,3.3-1c1.9-0.4,3.3-0.7,4-1v-0.4c0-0.8-0.2-1.4-0.6-1.7s-1.1-0.5-2.2-0.5
		c-0.7,0-1.3,0.1-1.7,0.4S399.4,228.5,399.1,229.3z M404.6,232.6c-0.5,0.2-1.4,0.4-2.5,0.6c-1.1,0.2-1.9,0.5-2.2,0.7
		c-0.5,0.4-0.8,0.9-0.8,1.5c0,0.6,0.2,1.1,0.6,1.5s1,0.6,1.6,0.6c0.7,0,1.5-0.2,2.1-0.7c0.5-0.4,0.8-0.8,1-1.4c0.1-0.4,0.2-1,0.2-2
		V232.6z"/>
	<path fill="#FFFFFF" d="M410.9,224.5h14.1v3.3h-5v12.2h-4.1v-12.2h-5V224.5z"/>
	<path fill="#FFFFFF" d="M426.9,224.5h4.2v3.7c0,0.8,0.1,1.5,0.2,1.9s0.5,0.8,1,1.1s1.1,0.4,1.9,0.4c0.7,0,1.6-0.2,2.5-0.5v-6.6h4.1
		v15.6h-4.1v-6.2c-1.6,0.4-2.8,0.6-3.7,0.6c-1.3,0-2.4-0.3-3.4-0.8s-1.7-1.2-2.1-2.1s-0.6-2-0.6-3.4V224.5z"/>
	<path fill="#FFFFFF" d="M444.7,224.5h4v9.8l6.3-9.8h4v15.6h-4v-9.9l-6.4,9.9h-4V224.5z"/>
	<path fill="#FFFFFF" d="M463.1,224.5h4.1v6.4c0.7-0.1,1.2-0.3,1.5-0.6s0.6-1.1,1-2.2c0.5-1.5,1.1-2.5,1.7-2.9s1.4-0.6,2.5-0.6
		c0.3,0,0.9,0,1.6,0.1l0,2.7c-1.1,0-1.8,0.1-2.1,0.3c-0.3,0.2-0.6,0.9-1,1.9c-0.5,1.4-1.2,2.3-2.1,2.7c1.3,0.4,2.4,1.5,3.3,3.4
		c0,0.1,0.1,0.2,0.2,0.3l2.3,4.3h-4.4l-2.1-4.5c-0.4-0.9-0.8-1.5-1.1-1.8c-0.3-0.3-0.8-0.4-1.4-0.4v6.6h-4.1V224.5z"/>
</g>
<g>
	<path fill="#878787" d="M591.3,152.3h2v4.9h5.5v-4.9h2V164h-2v-5.2h-5.5v5.2h-2V152.3z"/>
	<path fill="#878787" d="M611.7,160.3l2,0.3c-0.3,1.2-0.9,2.1-1.8,2.8c-0.9,0.7-2,1-3.3,1c-1.7,0-3.1-0.5-4.1-1.6
		c-1-1.1-1.5-2.5-1.5-4.4c0-2,0.5-3.5,1.5-4.6s2.3-1.6,3.9-1.6c1.6,0,2.8,0.5,3.8,1.6c1,1.1,1.5,2.6,1.5,4.5c0,0.1,0,0.3,0,0.5h-8.7
		c0.1,1.3,0.4,2.3,1.1,2.9c0.7,0.7,1.5,1,2.4,1c0.7,0,1.3-0.2,1.9-0.6S611.4,161.1,611.7,160.3z M605.2,157.1h6.5
		c-0.1-1-0.3-1.7-0.7-2.2c-0.6-0.8-1.4-1.1-2.5-1.1c-0.9,0-1.7,0.3-2.3,0.9C605.6,155.2,605.3,156,605.2,157.1z"/>
	<path fill="#878787" d="M614.4,152.3h9.5v1.6h-3.8v10h-2v-10h-3.8V152.3z"/>
	<path fill="#878787" d="M598.9,182.2l1.9,0.3c-0.2,1.3-0.8,2.4-1.6,3.1c-0.9,0.8-2,1.1-3.2,1.1c-1.6,0-2.9-0.5-3.9-1.6
		c-1-1-1.5-2.5-1.5-4.5c0-1.3,0.2-2.4,0.6-3.3c0.4-0.9,1.1-1.7,1.9-2.1c0.9-0.5,1.8-0.7,2.8-0.7c1.3,0,2.3,0.3,3.1,1
		c0.8,0.6,1.3,1.6,1.5,2.7l-1.9,0.3c-0.2-0.8-0.5-1.4-1-1.8c-0.5-0.4-1-0.6-1.7-0.6c-1,0-1.8,0.4-2.4,1.1c-0.6,0.7-0.9,1.8-0.9,3.4
		c0,1.6,0.3,2.7,0.9,3.4s1.4,1.1,2.4,1.1c0.8,0,1.4-0.2,1.9-0.7C598.5,184,598.8,183.2,598.9,182.2z"/>
	<path fill="#878787" d="M602.6,174.8h2v8.9l5.5-8.9h2.1v11.7h-2v-8.8l-5.5,8.8h-2.1V174.8z"/>
	<path fill="#878787" d="M615.1,174.8h6.7v1.6h-4.7v10h-2V174.8z"/>
	<path fill="#878787" d="M623.3,174.8h2v4.9h5.5v-4.9h2v11.7h-2v-5.2h-5.5v5.2h-2V174.8z"/>
	<path fill="#878787" d="M643.4,185.1c-0.7,0.6-1.4,1.1-2.1,1.3c-0.7,0.3-1.4,0.4-2.2,0.4c-1.3,0-2.3-0.3-3-0.9
		c-0.7-0.6-1-1.4-1-2.4c0-0.6,0.1-1.1,0.4-1.6c0.3-0.5,0.6-0.9,1-1.1s0.9-0.5,1.4-0.6c0.4-0.1,1-0.2,1.8-0.3
		c1.6-0.2,2.8-0.4,3.5-0.7c0-0.3,0-0.4,0-0.5c0-0.8-0.2-1.4-0.6-1.7c-0.5-0.4-1.3-0.7-2.3-0.7c-0.9,0-1.6,0.2-2.1,0.5
		c-0.4,0.3-0.8,0.9-1,1.7l-1.9-0.3c0.2-0.8,0.5-1.5,0.9-2c0.4-0.5,1-0.9,1.7-1.2c0.8-0.3,1.6-0.4,2.6-0.4c1,0,1.8,0.1,2.4,0.4
		c0.6,0.2,1.1,0.5,1.4,0.9c0.3,0.4,0.5,0.8,0.6,1.3c0.1,0.3,0.1,0.9,0.1,1.8v2.6c0,1.8,0,3,0.1,3.5c0.1,0.5,0.3,1,0.5,1.4h-2.1
		C643.6,186.1,643.4,185.6,643.4,185.1z M643.2,180.7c-0.7,0.3-1.8,0.5-3.2,0.7c-0.8,0.1-1.4,0.2-1.7,0.4s-0.6,0.4-0.8,0.6
		c-0.2,0.3-0.3,0.6-0.3,0.9c0,0.5,0.2,1,0.6,1.3c0.4,0.4,1,0.5,1.8,0.5c0.8,0,1.4-0.2,2-0.5c0.6-0.3,1-0.8,1.3-1.4
		c0.2-0.4,0.3-1.1,0.3-2V180.7z"/>
	<path fill="#878787" d="M649.2,174.8h9.2v11.7h-2v-10h-5.2v5.8c0,1.4,0,2.2-0.1,2.7s-0.3,0.8-0.7,1.1s-1,0.5-1.7,0.5
		c-0.5,0-1,0-1.6-0.1v-1.6h0.9c0.4,0,0.7,0,0.9-0.1c0.2-0.1,0.3-0.2,0.4-0.4c0.1-0.2,0.1-0.8,0.1-1.8V174.8z"/>
	<path fill="#878787" d="M669,185.1c-0.7,0.6-1.4,1.1-2.1,1.3c-0.7,0.3-1.4,0.4-2.2,0.4c-1.3,0-2.3-0.3-3-0.9c-0.7-0.6-1-1.4-1-2.4
		c0-0.6,0.1-1.1,0.4-1.6c0.3-0.5,0.6-0.9,1-1.1s0.9-0.5,1.4-0.6c0.4-0.1,1-0.2,1.8-0.3c1.6-0.2,2.8-0.4,3.5-0.7c0-0.3,0-0.4,0-0.5
		c0-0.8-0.2-1.4-0.6-1.7c-0.5-0.4-1.3-0.7-2.3-0.7c-0.9,0-1.6,0.2-2.1,0.5c-0.4,0.3-0.8,0.9-1,1.7l-1.9-0.3c0.2-0.8,0.5-1.5,0.9-2
		c0.4-0.5,1-0.9,1.7-1.2c0.8-0.3,1.6-0.4,2.6-0.4c1,0,1.8,0.1,2.4,0.4c0.6,0.2,1.1,0.5,1.4,0.9c0.3,0.4,0.5,0.8,0.6,1.3
		c0.1,0.3,0.1,0.9,0.1,1.8v2.6c0,1.8,0,3,0.1,3.5c0.1,0.5,0.3,1,0.5,1.4h-2.1C669.2,186.1,669.1,185.6,669,185.1z M668.9,180.7
		c-0.7,0.3-1.8,0.5-3.2,0.7c-0.8,0.1-1.4,0.2-1.7,0.4s-0.6,0.4-0.8,0.6c-0.2,0.3-0.3,0.6-0.3,0.9c0,0.5,0.2,1,0.6,1.3
		c0.4,0.4,1,0.5,1.8,0.5c0.8,0,1.4-0.2,2-0.5c0.6-0.3,1-0.8,1.3-1.4c0.2-0.4,0.3-1.1,0.3-2V180.7z"/>
</g>
<g>
	<path fill="#878787" d="M289.6,100.2c-0.1-1-0.5-1.9-1-2.5c-0.6-0.6-1.3-1-2.2-1c-1.5,0-2.5,0.8-2.8,2.4l-1.9-0.3
		c0.2-1.1,0.7-2,1.5-2.7c0.8-0.7,1.9-1,3.2-1c1.6,0,2.9,0.5,3.9,1.6c0.9,1.1,1.4,2.6,1.4,4.5c0,1.9-0.4,3.4-1.3,4.5
		c-0.9,1.1-2.2,1.7-3.8,1.6c-1.4,0-2.5-0.4-3.4-1.2c-0.9-0.8-1.4-1.8-1.6-3.1l1.9-0.3c0.3,1.9,1.3,2.9,3,2.9c0.9,0,1.7-0.3,2.2-1
		c0.5-0.6,0.9-1.6,1-2.9h-4.1v-1.6H289.6z"/>
	<path fill="#878787" d="M294.5,95.3h9.2V107h-2v-10h-5.2v5.8c0,1.4,0,2.2-0.1,2.7s-0.3,0.8-0.7,1.1s-1,0.5-1.7,0.5
		c-0.5,0-1,0-1.6-0.1v-1.6h0.9c0.4,0,0.7,0,0.9-0.1c0.2-0.1,0.3-0.2,0.4-0.4c0.1-0.2,0.1-0.8,0.1-1.8V95.3z"/>
	<path fill="#878787" d="M314.7,103.2l2,0.3c-0.3,1.2-0.9,2.1-1.8,2.8c-0.9,0.7-2,1-3.3,1c-1.7,0-3.1-0.5-4.1-1.6
		c-1-1.1-1.5-2.5-1.5-4.4c0-2,0.5-3.5,1.5-4.6s2.3-1.6,3.9-1.6c1.6,0,2.8,0.5,3.8,1.6c1,1.1,1.5,2.6,1.5,4.5c0,0.1,0,0.3,0,0.5H308
		c0.1,1.3,0.4,2.3,1.1,2.9c0.7,0.7,1.5,1,2.4,1c0.7,0,1.3-0.2,1.9-0.6S314.4,104,314.7,103.2z M308.2,100h6.5
		c-0.1-1-0.3-1.7-0.7-2.2c-0.6-0.8-1.4-1.1-2.5-1.1c-0.9,0-1.7,0.3-2.3,0.9C308.6,98.2,308.2,99,308.2,100z"/>
	<path fill="#878787" d="M319.2,95.3h2v5c0.6,0,1.1-0.1,1.3-0.4s0.6-0.9,1.1-2.1c0.4-0.9,0.7-1.5,0.9-1.8c0.2-0.3,0.5-0.5,0.8-0.6
		c0.3-0.1,0.8-0.2,1.5-0.2h0.4v1.6l-0.5,0c-0.5,0-0.9,0.1-1,0.2c-0.2,0.2-0.4,0.6-0.7,1.4c-0.3,0.8-0.6,1.3-0.8,1.6
		s-0.6,0.6-1.2,0.8c0.8,0.2,1.7,1,2.5,2.4l2.2,3.6h-2.2l-2.1-3.6c-0.4-0.7-0.8-1.2-1.1-1.4c-0.3-0.2-0.7-0.3-1.2-0.3v5.4h-2V95.3z"
		/>
	<path fill="#878787" d="M328.2,95.3h9.5v1.6h-3.8v10h-2v-10h-3.8V95.3z"/>
	<path fill="#878787" d="M339.6,111.4V95.3h1.8v1.5c0.4-0.6,0.9-1,1.4-1.3c0.5-0.3,1.2-0.4,1.9-0.4c1,0,1.9,0.3,2.6,0.8
		s1.3,1.2,1.7,2.2c0.4,0.9,0.6,2,0.6,3.1c0,1.2-0.2,2.3-0.6,3.2c-0.4,1-1.1,1.7-1.9,2.2c-0.8,0.5-1.7,0.8-2.6,0.8
		c-0.7,0-1.3-0.1-1.8-0.4c-0.5-0.3-1-0.6-1.3-1.1v5.7H339.6z M341.4,101.2c0,1.5,0.3,2.6,0.9,3.3c0.6,0.7,1.3,1.1,2.2,1.1
		c0.9,0,1.6-0.4,2.3-1.1c0.6-0.7,0.9-1.9,0.9-3.5c0-1.5-0.3-2.6-0.9-3.3s-1.3-1.1-2.2-1.1c-0.8,0-1.6,0.4-2.2,1.2
		C341.7,98.6,341.4,99.7,341.4,101.2z"/>
	<path fill="#878787" d="M351.4,101.1c0-2.2,0.6-3.8,1.8-4.8c1-0.9,2.2-1.3,3.7-1.3c1.6,0,2.9,0.5,3.9,1.6c1,1.1,1.5,2.5,1.5,4.4
		c0,1.5-0.2,2.7-0.7,3.5c-0.5,0.9-1.1,1.5-2,2c-0.9,0.5-1.8,0.7-2.8,0.7c-1.6,0-3-0.5-4-1.6C351.9,104.6,351.4,103.1,351.4,101.1z
		 M353.4,101.1c0,1.5,0.3,2.6,1,3.4c0.7,0.7,1.5,1.1,2.5,1.1c1,0,1.8-0.4,2.4-1.1c0.7-0.7,1-1.9,1-3.4c0-1.4-0.3-2.5-1-3.3
		c-0.7-0.7-1.5-1.1-2.4-1.1c-1,0-1.8,0.4-2.5,1.1C353.7,98.5,353.4,99.6,353.4,101.1z"/>
	<path fill="#878787" d="M365.7,95.3h8.1v10h1.3v4.9h-1.6V107h-9.2v3.3h-1.6v-4.9h1C365.1,103.5,365.7,100.1,365.7,95.3z
		 M367.3,96.9c-0.1,3.8-0.7,6.6-1.8,8.4h6.3v-8.4H367.3z"/>
	<path fill="#878787" d="M377.3,95.3h2v4.6h2.5c1.6,0,2.9,0.3,3.8,1c0.9,0.6,1.3,1.5,1.3,2.6c0,1-0.4,1.8-1.1,2.5
		c-0.7,0.7-1.9,1-3.5,1h-4.9V95.3z M379.3,105.3h2.1c1.3,0,2.1-0.2,2.7-0.5c0.5-0.3,0.8-0.8,0.8-1.4c0-0.5-0.2-1-0.6-1.4
		s-1.3-0.6-2.6-0.6h-2.3V105.3z M388.3,95.3h2V107h-2V95.3z"/>
</g>
<g>
	
		<line fill="none" stroke="#E30613" stroke-width="5" stroke-linecap="round" stroke-linejoin="round" stroke-miterlimit="10" x1="594.1" y1="197.4" x2="621.8" y2="225.2"/>
	
		<line fill="none" stroke="#E30613" stroke-width="5" stroke-linecap="round" stroke-linejoin="round" stroke-miterlimit="10" x1="621.8" y1="197.4" x2="594.1" y2="225.2"/>
</g>
<rect x="274.8" y="162.3" fill="#00628B" stroke="#9D9D9C" stroke-width="1.25" stroke-miterlimit="10" width="11.5" height="35.2"/>
<rect x="274.8" y="229.5" fill="#00628B" stroke="#9D9D9C" stroke-width="1.25" stroke-miterlimit="10" width="11.5" height="31.1"/>
<g>
	<g>
		<polygon fill="#009FE3" points="249.5,413.8 259.9,406.9 258.2,412.1 261.8,416.1 		"/>
	</g>
</g>
<g>
	<g>
		<polygon fill="#009FE3" points="246.5,402.6 256.9,395.7 255.1,400.8 258.8,404.9 		"/>
	</g>
</g>
<g>
	<g>
		<polygon fill="#009FE3" points="243.5,391.4 253.9,384.5 252.1,389.6 255.8,393.7 		"/>
	</g>
</g>
<g>
	<g>
		<polygon fill="#009FE3" points="260.8,457.4 248.7,460.5 252,456.2 250,451.1 		"/>
	</g>
</g>
<g>
	<g>
		<polygon fill="#009FE3" points="260,468.9 247.8,472 251.2,467.7 249.1,462.7 		"/>
	</g>
</g>
<g>
	<g>
		<polygon fill="#009FE3" points="259.1,480.5 247,483.6 250.4,479.3 248.3,474.2 		"/>
	</g>
</g>
<rect x="274.1" y="384.1" stroke="#9D9D9C" stroke-width="2.5" stroke-linecap="round" stroke-linejoin="round" stroke-miterlimit="10" width="302.8" height="101"/>
<linearGradient id="SVGID_2_" gradientUnits="userSpaceOnUse" x1="438.3993" y1="485.0276" x2="438.3993" y2="384.0688">
	<stop  offset="0" style="stop-color:#333333"/>
	<stop  offset="0.1293" style="stop-color:#373737"/>
	<stop  offset="0.2552" style="stop-color:#434343"/>
	<stop  offset="0.3549" style="stop-color:#525252"/>
	<stop  offset="0.4015" style="stop-color:#565656"/>
	<stop  offset="0.4544" style="stop-color:#646464"/>
	<stop  offset="0.5104" style="stop-color:#7B7B7B"/>
	<stop  offset="0.5681" style="stop-color:#9A9A9A"/>
	<stop  offset="0.6192" style="stop-color:#BDBDBD"/>
	<stop  offset="0.6574" style="stop-color:#B9B9B9"/>
	<stop  offset="0.6911" style="stop-color:#AEAEAE"/>
	<stop  offset="0.723" style="stop-color:#9D9D9D"/>
	<stop  offset="0.7409" style="stop-color:#8F8F8F"/>
	<stop  offset="0.7968" style="stop-color:#919191"/>
	<stop  offset="0.8181" style="stop-color:#989898"/>
	<stop  offset="0.8335" style="stop-color:#A4A4A4"/>
	<stop  offset="0.846" style="stop-color:#B5B5B5"/>
	<stop  offset="0.8568" style="stop-color:#CBCBCB"/>
	<stop  offset="0.8662" style="stop-color:#E6E6E6"/>
	<stop  offset="0.8731" style="stop-color:#FFFFFF"/>
	<stop  offset="0.9037" style="stop-color:#C7C7C7"/>
	<stop  offset="0.9504" style="stop-color:#787878"/>
	<stop  offset="0.9836" style="stop-color:#464646"/>
	<stop  offset="1" style="stop-color:#333333"/>
</linearGradient>
<path fill="url(#SVGID_2_)" stroke="#9D9D9C" stroke-width="2.5" stroke-linecap="round" stroke-linejoin="round" stroke-miterlimit="10" d="
	M576.9,485H301c0,0-2.4-27.9,0-53c2.4-24.5,0-48,0-48h275.9V485z"/>
<g>
	<path fill="#FFFFFF" d="M354.3,425.8l4.1,0.7c-0.5,1.5-1.4,2.6-2.5,3.4c-1.1,0.8-2.6,1.2-4.3,1.2c-2.7,0-4.7-0.9-6-2.7
		c-1-1.4-1.5-3.2-1.5-5.4c0-2.6,0.7-4.6,2-6.1c1.3-1.5,3.1-2.2,5.1-2.2c2.3,0,4.1,0.8,5.5,2.3s2,3.9,1.9,7h-10.3
		c0,1.2,0.4,2.2,1,2.8s1.4,1,2.4,1c0.6,0,1.2-0.2,1.6-0.5S354.1,426.6,354.3,425.8z M354.6,421.7c0-1.2-0.3-2.1-0.9-2.7
		s-1.3-0.9-2.1-0.9c-0.9,0-1.6,0.3-2.2,1s-0.9,1.5-0.9,2.7H354.6z"/>
	<path fill="#FFFFFF" d="M361.7,415.2h5.1l3.9,10.8l3.9-10.8h5.1v15.6h-3.5v-10.2l-3.8,10.2h-3.5l-3.6-10.2v10.2h-3.5V415.2z"/>
	<path fill="#FFFFFF" d="M383.7,415.2h4.1v6.4c0.7-0.1,1.2-0.3,1.5-0.6s0.6-1.1,1-2.2c0.5-1.5,1.1-2.5,1.7-2.9s1.4-0.6,2.5-0.6
		c0.3,0,0.9,0,1.6,0.1l0,2.7c-1.1,0-1.8,0.1-2.1,0.3c-0.3,0.2-0.6,0.9-1,1.9c-0.5,1.4-1.2,2.3-2.1,2.7c1.3,0.4,2.4,1.5,3.3,3.4
		c0,0.1,0.1,0.2,0.2,0.3l2.3,4.3h-4.4l-2.1-4.5c-0.4-0.9-0.8-1.5-1.1-1.8c-0.3-0.3-0.8-0.4-1.4-0.4v6.6h-4.1V415.2z"/>
	<path fill="#FFFFFF" d="M397.5,422.8c0-1.4,0.3-2.7,1-4s1.6-2.3,2.9-2.9c1.2-0.7,2.6-1,4.1-1c2.4,0,4.3,0.8,5.8,2.3
		s2.3,3.5,2.3,5.8c0,2.4-0.8,4.3-2.3,5.9c-1.5,1.5-3.4,2.3-5.7,2.3c-1.4,0-2.8-0.3-4.1-1c-1.3-0.6-2.3-1.6-3-2.8
		C397.8,426.1,397.5,424.6,397.5,422.8z M401.7,423c0,1.5,0.4,2.7,1.1,3.5s1.6,1.2,2.7,1.2s2-0.4,2.7-1.2c0.7-0.8,1.1-2,1.1-3.6
		c0-1.5-0.4-2.7-1.1-3.5c-0.7-0.8-1.6-1.2-2.7-1.2s-2,0.4-2.7,1.2S401.7,421.5,401.7,423z"/>
	<path fill="#FFFFFF" d="M429.9,419.8l-4.1,0.7c-0.1-0.8-0.4-1.4-0.9-1.8c-0.5-0.4-1.1-0.6-1.9-0.6c-1,0-1.8,0.4-2.5,1.1
		c-0.6,0.7-0.9,1.9-0.9,3.6c0,1.8,0.3,3.1,0.9,3.9s1.5,1.1,2.5,1.1c0.8,0,1.4-0.2,1.9-0.7c0.5-0.4,0.8-1.2,1.1-2.3l4,0.7
		c-0.4,1.9-1.2,3.3-2.4,4.2s-2.8,1.4-4.8,1.4c-2.3,0-4.1-0.7-5.4-2.2s-2-3.4-2-6c0-2.6,0.7-4.6,2-6s3.2-2.1,5.5-2.1
		c1.9,0,3.4,0.4,4.5,1.2C428.6,416.9,429.4,418.2,429.9,419.8z"/>
	<path fill="#FFFFFF" d="M431.2,415.2h14.1v3.3h-5v12.2h-4.1v-12.2h-5V415.2z"/>
	<path fill="#FFFFFF" d="M447.6,415.2h4.1v5.7h5.9v-5.7h4.1v15.6h-4.1v-6.5h-5.9v6.5h-4.1V415.2z"/>
	<path fill="#FFFFFF" d="M465.9,415.2h4.1v6.5h4.1c1.6,0,2.9,0.1,3.7,0.3s1.6,0.7,2.2,1.5s0.9,1.7,0.9,2.7c0,1.5-0.5,2.6-1.6,3.4
		s-2.6,1.1-4.7,1.1h-8.8V415.2z M470,428.2h3.8c1,0,1.7-0.2,2.2-0.5s0.7-0.8,0.7-1.5c0-0.8-0.3-1.3-0.9-1.5
		c-0.6-0.3-1.6-0.4-3.1-0.4H470V428.2z M483.3,415.2h4.1v15.6h-4.1V415.2z"/>
	<path fill="#FFFFFF" d="M491.4,415.2h4v9.8l6.3-9.8h4v15.6h-4v-9.9l-6.4,9.9h-4V415.2z M501.2,408.9h2c-0.1,1.3-0.6,2.4-1.4,3.1
		c-0.8,0.8-1.9,1.1-3.2,1.1s-2.4-0.4-3.2-1.1s-1.3-1.8-1.4-3.1h2c0.1,0.7,0.3,1.2,0.7,1.6s1,0.5,1.8,0.5s1.4-0.2,1.8-0.5
		S501.2,409.6,501.2,408.9z"/>
	<path fill="#FFFFFF" d="M389.8,463.3h-11.8v4.1h-3.3v-7.5h1.7c0.7-0.8,1.3-2,1.7-3.7s0.7-4.5,0.8-8.5h12.6v12.2h1.7v7.5h-3.4V463.3
		z M387.5,459.9l0-8.8h-5c-0.2,4.3-0.8,7.2-2.1,8.8H387.5z"/>
	<path fill="#FFFFFF" d="M399.1,452.5l-3.7-0.7c0.4-1.5,1.1-2.6,2.2-3.3s2.5-1.1,4.6-1.1c1.8,0,3.2,0.2,4.1,0.7s1.5,1,1.9,1.7
		c0.4,0.7,0.5,1.9,0.5,3.7l0,4.8c0,1.4,0.1,2.4,0.2,3c0.1,0.7,0.4,1.3,0.7,2.1h-4.1c-0.1-0.3-0.2-0.7-0.4-1.2
		c-0.1-0.2-0.1-0.4-0.1-0.5c-0.7,0.7-1.5,1.2-2.3,1.5s-1.7,0.5-2.6,0.5c-1.6,0-2.9-0.4-3.8-1.3c-0.9-0.9-1.4-2-1.4-3.3
		c0-0.9,0.2-1.7,0.6-2.4c0.4-0.7,1-1.2,1.8-1.6c0.8-0.4,1.8-0.7,3.3-1c1.9-0.4,3.3-0.7,4-1v-0.4c0-0.8-0.2-1.4-0.6-1.7
		c-0.4-0.3-1.1-0.5-2.2-0.5c-0.7,0-1.3,0.1-1.7,0.4S399.4,451.8,399.1,452.5z M404.6,455.8c-0.5,0.2-1.4,0.4-2.5,0.6
		c-1.1,0.2-1.9,0.5-2.2,0.7c-0.5,0.4-0.8,0.9-0.8,1.5c0,0.6,0.2,1.1,0.6,1.5s1,0.6,1.6,0.6c0.7,0,1.5-0.2,2.1-0.7
		c0.5-0.4,0.8-0.8,1-1.4c0.1-0.4,0.2-1,0.2-2V455.8z"/>
	<path fill="#FFFFFF" d="M410.9,447.7h14.1v3.3h-5v12.2h-4.1v-12.2h-5V447.7z"/>
	<path fill="#FFFFFF" d="M426.9,447.7h4.2v3.7c0,0.8,0.1,1.5,0.2,1.9c0.2,0.4,0.5,0.8,1,1.1s1.1,0.4,1.9,0.4c0.7,0,1.6-0.2,2.5-0.5
		v-6.6h4.1v15.6h-4.1v-6.2c-1.6,0.4-2.8,0.6-3.7,0.6c-1.3,0-2.4-0.3-3.4-0.8c-1-0.5-1.7-1.2-2.1-2.1s-0.6-2-0.6-3.4V447.7z"/>
	<path fill="#FFFFFF" d="M444.7,447.7h4v9.8l6.3-9.8h4v15.6h-4v-9.9l-6.4,9.9h-4V447.7z"/>
	<path fill="#FFFFFF" d="M463.1,447.7h4.1v6.4c0.7-0.1,1.2-0.3,1.5-0.6s0.6-1.1,1-2.2c0.5-1.5,1.1-2.5,1.7-2.9s1.4-0.6,2.5-0.6
		c0.3,0,0.9,0,1.6,0.1l0,2.7c-1.1,0-1.8,0.1-2.1,0.3c-0.3,0.2-0.6,0.9-1,1.9c-0.5,1.4-1.2,2.3-2.1,2.7c1.3,0.4,2.4,1.5,3.3,3.4
		c0,0.1,0.1,0.2,0.2,0.3l2.3,4.3h-4.4l-2.1-4.5c-0.4-0.9-0.8-1.5-1.1-1.8c-0.3-0.3-0.8-0.4-1.4-0.4v6.6h-4.1V447.7z"/>
</g>
<rect x="274.8" y="385.5" fill="#00628B" stroke="#9D9D9C" stroke-width="1.25" stroke-miterlimit="10" width="11.5" height="35.2"/>
<rect x="274.8" y="452.7" fill="#00628B" stroke="#9D9D9C" stroke-width="1.25" stroke-miterlimit="10" width="11.5" height="31.1"/>
<g>
	<g>
		<polyline fill="none" stroke="#9D9D9C" stroke-width="1.875" stroke-miterlimit="10" points="280.6,177.5 280.6,116.4 
			397.9,116.4 		"/>
		<g>
			<g>
				<circle fill="#FFFFFF" cx="280.6" cy="177.5" r="2.8"/>
				<path fill="#9D9D9C" d="M283.7,177.5c0-1.8-1.4-3.2-3.2-3.2s-3.2,1.4-3.2,3.2c0,1.8,1.4,3.2,3.2,3.2S283.7,179.3,283.7,177.5
					C283.7,175.7,283.7,179.3,283.7,177.5z M278.1,177.5c0-1.3,1.1-2.4,2.4-2.4s2.4,1.1,2.4,2.4c0,1.3-1.1,2.4-2.4,2.4
					S278.1,178.8,278.1,177.5C278.1,176.1,278.1,178.8,278.1,177.5z"/>
			</g>
		</g>
	</g>
</g>
<g>
	<g>
		<polyline fill="none" stroke="#9D9D9C" stroke-width="1.875" stroke-miterlimit="10" points="251.5,179.1 251.5,67.7 584.7,67.7 
					"/>
		<g>
			<g>
				<circle fill="#FFFFFF" cx="251.5" cy="179.1" r="2.8"/>
				<path fill="#9D9D9C" d="M254.7,179.1c0-1.8-1.4-3.2-3.2-3.2s-3.2,1.4-3.2,3.2c0,1.8,1.4,3.2,3.2,3.2S254.7,180.9,254.7,179.1
					C254.7,177.4,254.7,180.9,254.7,179.1z M249.1,179.1c0-1.3,1.1-2.4,2.4-2.4s2.4,1.1,2.4,2.4c0,1.3-1.1,2.4-2.4,2.4
					S249.1,180.5,249.1,179.1C249.1,177.8,249.1,180.5,249.1,179.1z"/>
			</g>
		</g>
	</g>
</g>
<g>
	<path fill="#878787" d="M36,123h2v5c0.6,0,1.1-0.1,1.3-0.4c0.3-0.2,0.6-0.9,1.1-2.1c0.4-0.9,0.7-1.5,0.9-1.8s0.5-0.5,0.8-0.6
		s0.8-0.2,1.5-0.2h0.4v1.6l-0.5,0c-0.5,0-0.9,0.1-1,0.2c-0.2,0.2-0.4,0.6-0.7,1.4c-0.3,0.8-0.6,1.3-0.8,1.6s-0.6,0.6-1.2,0.8
		c0.8,0.2,1.7,1,2.5,2.4l2.2,3.6h-2.2l-2.1-3.6c-0.4-0.7-0.8-1.2-1.1-1.4c-0.3-0.2-0.7-0.3-1.2-0.3v5.4h-2V123z"/>
	<path fill="#878787" d="M45.4,128.8c0-2.2,0.6-3.8,1.8-4.8c1-0.9,2.2-1.3,3.7-1.3c1.6,0,2.9,0.5,3.9,1.6c1,1.1,1.5,2.5,1.5,4.4
		c0,1.5-0.2,2.7-0.7,3.5c-0.5,0.9-1.1,1.5-2,2c-0.9,0.5-1.8,0.7-2.8,0.7c-1.6,0-3-0.5-4-1.6C45.9,132.3,45.4,130.8,45.4,128.8z
		 M47.4,128.8c0,1.5,0.3,2.6,1,3.4c0.7,0.7,1.5,1.1,2.5,1.1c1,0,1.8-0.4,2.4-1.1s1-1.9,1-3.4c0-1.4-0.3-2.5-1-3.3
		c-0.7-0.7-1.5-1.1-2.4-1.1c-1,0-1.8,0.4-2.5,1.1S47.4,127.3,47.4,128.8z"/>
	<path fill="#878787" d="M58.7,123h2v4.9h5.5V123h2v11.7h-2v-5.2h-5.5v5.2h-2V123z"/>
	<path fill="#878787" d="M70,123h9.5v1.6h-3.8v10h-2v-10H70V123z"/>
	<path fill="#878787" d="M81.4,139.1V123h1.8v1.5c0.4-0.6,0.9-1,1.4-1.3c0.5-0.3,1.2-0.4,1.9-0.4c1,0,1.9,0.3,2.6,0.8
		c0.8,0.5,1.3,1.2,1.7,2.2c0.4,0.9,0.6,2,0.6,3.1c0,1.2-0.2,2.3-0.6,3.2c-0.4,1-1.1,1.7-1.9,2.2c-0.8,0.5-1.7,0.8-2.6,0.8
		c-0.7,0-1.3-0.1-1.8-0.4c-0.5-0.3-1-0.6-1.3-1.1v5.7H81.4z M83.2,128.9c0,1.5,0.3,2.6,0.9,3.3s1.3,1.1,2.2,1.1
		c0.9,0,1.6-0.4,2.3-1.1c0.6-0.7,0.9-1.9,0.9-3.5c0-1.5-0.3-2.6-0.9-3.3c-0.6-0.7-1.3-1.1-2.2-1.1c-0.8,0-1.6,0.4-2.2,1.2
		C83.5,126.2,83.2,127.4,83.2,128.9z"/>
	<path fill="#878787" d="M93.2,128.8c0-2.2,0.6-3.8,1.8-4.8c1-0.9,2.2-1.3,3.7-1.3c1.6,0,2.9,0.5,3.9,1.6c1,1.1,1.5,2.5,1.5,4.4
		c0,1.5-0.2,2.7-0.7,3.5c-0.5,0.9-1.1,1.5-2,2c-0.9,0.5-1.8,0.7-2.8,0.7c-1.6,0-3-0.5-4-1.6C93.7,132.3,93.2,130.8,93.2,128.8z
		 M95.2,128.8c0,1.5,0.3,2.6,1,3.4c0.7,0.7,1.5,1.1,2.5,1.1c1,0,1.8-0.4,2.4-1.1s1-1.9,1-3.4c0-1.4-0.3-2.5-1-3.3
		c-0.7-0.7-1.5-1.1-2.4-1.1c-1,0-1.8,0.4-2.5,1.1S95.2,127.3,95.2,128.8z"/>
	<path fill="#878787" d="M106.9,123h9.2v11.7h-2v-10h-5.2v5.8c0,1.4,0,2.2-0.1,2.7s-0.3,0.8-0.7,1.1s-1,0.5-1.7,0.5
		c-0.5,0-1,0-1.6-0.1V133h0.9c0.4,0,0.7,0,0.9-0.1c0.2-0.1,0.3-0.2,0.4-0.4c0.1-0.2,0.1-0.8,0.1-1.8V123z"/>
	<path fill="#878787" d="M119,123h2v8.9l5.5-8.9h2.1v11.7h-2v-8.8l-5.5,8.8H119V123z"/>
	<path fill="#878787" d="M131.6,139.1V123h1.8v1.5c0.4-0.6,0.9-1,1.4-1.3c0.5-0.3,1.2-0.4,1.9-0.4c1,0,1.9,0.3,2.6,0.8
		c0.8,0.5,1.3,1.2,1.7,2.2c0.4,0.9,0.6,2,0.6,3.1c0,1.2-0.2,2.3-0.6,3.2c-0.4,1-1.1,1.7-1.9,2.2c-0.8,0.5-1.7,0.8-2.6,0.8
		c-0.7,0-1.3-0.1-1.8-0.4c-0.5-0.3-1-0.6-1.3-1.1v5.7H131.6z M133.4,128.9c0,1.5,0.3,2.6,0.9,3.3s1.3,1.1,2.2,1.1
		c0.9,0,1.6-0.4,2.3-1.1c0.6-0.7,0.9-1.9,0.9-3.5c0-1.5-0.3-2.6-0.9-3.3c-0.6-0.7-1.3-1.1-2.2-1.1c-0.8,0-1.6,0.4-2.2,1.2
		C133.7,126.2,133.4,127.4,133.4,128.9z"/>
	<path fill="#878787" d="M143.8,139.1l-0.2-1.9c0.4,0.1,0.8,0.2,1.1,0.2c0.4,0,0.8-0.1,1.1-0.2s0.5-0.4,0.6-0.6
		c0.1-0.2,0.3-0.7,0.6-1.5c0-0.1,0.1-0.3,0.2-0.5l-4.4-11.7h2.1l2.4,6.8c0.3,0.9,0.6,1.8,0.8,2.7c0.2-0.9,0.5-1.8,0.8-2.7l2.5-6.8h2
		l-4.4,11.9c-0.5,1.3-0.8,2.2-1.1,2.6c-0.4,0.7-0.8,1.1-1.2,1.4c-0.5,0.3-1,0.5-1.6,0.5C144.7,139.4,144.3,139.3,143.8,139.1z"/>
	<path fill="#878787" d="M162.9,130.9l2,0.3c-0.3,1.2-0.9,2.1-1.8,2.8s-2,1-3.3,1c-1.7,0-3.1-0.5-4.1-1.6c-1-1.1-1.5-2.5-1.5-4.4
		c0-2,0.5-3.5,1.5-4.6s2.3-1.6,3.9-1.6c1.6,0,2.8,0.5,3.8,1.6c1,1.1,1.5,2.6,1.5,4.5c0,0.1,0,0.3,0,0.5h-8.7
		c0.1,1.3,0.4,2.3,1.1,2.9c0.7,0.7,1.5,1,2.4,1c0.7,0,1.3-0.2,1.9-0.6C162.2,132.3,162.6,131.7,162.9,130.9z M156.4,127.7h6.5
		c-0.1-1-0.3-1.7-0.7-2.2c-0.6-0.8-1.4-1.1-2.5-1.1c-0.9,0-1.7,0.3-2.3,0.9C156.8,125.9,156.4,126.7,156.4,127.7z"/>
	<path fill="#878787" d="M167.4,123h3.1l3.1,9.3l3.4-9.3h2.8v11.7h-2v-9.4l-3.4,9.4h-1.8l-3.3-9.8v9.8h-1.9V123z"/>
	<path fill="#878787" d="M182.9,123h2v4.6h2.5c1.6,0,2.9,0.3,3.8,1c0.9,0.6,1.3,1.5,1.3,2.6c0,1-0.4,1.8-1.1,2.5
		c-0.7,0.7-1.9,1-3.5,1h-4.9V123z M184.9,133h2.1c1.3,0,2.1-0.2,2.7-0.5s0.8-0.8,0.8-1.4c0-0.5-0.2-1-0.6-1.4s-1.3-0.6-2.6-0.6h-2.3
		V133z M194,123h2v11.7h-2V123z"/>
	<path fill="#878787" d="M199,123h2v8.9l5.5-8.9h2.1v11.7h-2v-8.8l-5.5,8.8H199V123z M205.9,118.6h1.4c-0.1,0.9-0.4,1.6-1,2.1
		c-0.6,0.5-1.3,0.7-2.2,0.7c-0.9,0-1.7-0.2-2.2-0.7c-0.6-0.5-0.9-1.2-1-2.1h1.4c0.1,0.5,0.3,0.9,0.6,1.1c0.3,0.2,0.7,0.4,1.2,0.4
		c0.6,0,1-0.1,1.3-0.4C205.6,119.4,205.8,119.1,205.9,118.6z"/>
	<path fill="#878787" d="M87.3,151.3c0-2.2,0.6-3.8,1.8-4.8c1-0.9,2.2-1.3,3.7-1.3c1.6,0,2.9,0.5,3.9,1.6c1,1.1,1.5,2.5,1.5,4.4
		c0,1.5-0.2,2.7-0.7,3.5c-0.5,0.9-1.1,1.5-2,2c-0.9,0.5-1.8,0.7-2.8,0.7c-1.6,0-3-0.5-4-1.6C87.8,154.8,87.3,153.3,87.3,151.3z
		 M89.3,151.3c0,1.5,0.3,2.6,1,3.4c0.7,0.7,1.5,1.1,2.5,1.1c1,0,1.8-0.4,2.4-1.1s1-1.9,1-3.4c0-1.4-0.3-2.5-1-3.3
		c-0.7-0.7-1.5-1.1-2.4-1.1c-1,0-1.8,0.4-2.5,1.1S89.3,149.8,89.3,151.3z"/>
	<path fill="#878787" d="M109.1,140.7l1.7,0c-0.1,0.8-0.3,1.3-0.5,1.6c-0.3,0.3-0.6,0.5-1,0.6c-0.4,0.1-1.2,0.1-2.5,0.1
		c-1.6,0-2.7,0.2-3.3,0.5c-0.6,0.3-1,0.8-1.3,1.5c-0.3,0.7-0.4,1.6-0.4,2.7c0.5-0.7,1.1-1.3,1.7-1.7c0.7-0.4,1.4-0.6,2.3-0.6
		c1.5,0,2.8,0.5,3.8,1.6c1,1.1,1.5,2.5,1.5,4.3c0,1.4-0.3,2.5-0.8,3.4c-0.5,0.9-1.1,1.5-1.8,2c-0.7,0.5-1.6,0.7-2.8,0.7
		c-1.4,0-2.5-0.3-3.2-1c-0.8-0.6-1.4-1.4-1.8-2.4c-0.4-1-0.6-2.7-0.6-5.2c0-3.1,0.5-5.2,1.6-6.2c1-1.1,2.6-1.6,4.8-1.6
		c1.3,0,2.1,0,2.3-0.1S109,140.8,109.1,140.7z M109,151.3c0-1.2-0.3-2.2-0.9-3c-0.6-0.8-1.4-1.2-2.4-1.2c-1.1,0-1.9,0.4-2.5,1.2
		s-0.9,1.9-0.9,3.3c0,1.4,0.3,2.4,1,3.1c0.7,0.7,1.5,1.1,2.4,1.1c1,0,1.8-0.4,2.4-1.2C108.7,153.7,109,152.6,109,151.3z"/>
	<path fill="#878787" d="M111.6,145.5h5.2v4.6h2.5c1.8,0,3.1,0.3,3.9,1c0.8,0.7,1.2,1.5,1.2,2.5c0,1-0.4,1.9-1.2,2.5
		c-0.8,0.7-1.9,1-3.5,1h-5v-10h-3.2V145.5z M116.8,155.5h2.1c1.3,0,2.2-0.2,2.7-0.5c0.5-0.3,0.8-0.8,0.8-1.5c0-0.6-0.2-1.1-0.7-1.4
		c-0.5-0.3-1.3-0.5-2.5-0.5h-2.3V155.5z"/>
	<path fill="#878787" d="M134.7,153.4l2,0.3c-0.3,1.2-0.9,2.1-1.8,2.8s-2,1-3.3,1c-1.7,0-3.1-0.5-4.1-1.6c-1-1.1-1.5-2.5-1.5-4.4
		c0-2,0.5-3.5,1.5-4.6s2.3-1.6,3.9-1.6c1.6,0,2.8,0.5,3.8,1.6c1,1.1,1.5,2.6,1.5,4.5c0,0.1,0,0.3,0,0.5h-8.7
		c0.1,1.3,0.4,2.3,1.1,2.9c0.7,0.7,1.5,1,2.4,1c0.7,0,1.3-0.2,1.9-0.6C134,154.8,134.4,154.2,134.7,153.4z M128.2,150.2h6.5
		c-0.1-1-0.3-1.7-0.7-2.2c-0.6-0.8-1.4-1.1-2.5-1.1c-0.9,0-1.7,0.3-2.3,0.9C128.6,148.4,128.3,149.2,128.2,150.2z"/>
	<path fill="#878787" d="M139.2,145.5h2v5c0.6,0,1.1-0.1,1.3-0.4c0.3-0.2,0.6-0.9,1.1-2.1c0.4-0.9,0.7-1.5,0.9-1.8s0.5-0.5,0.8-0.6
		s0.8-0.2,1.5-0.2h0.4v1.6l-0.5,0c-0.5,0-0.9,0.1-1,0.2c-0.2,0.2-0.4,0.6-0.7,1.4c-0.3,0.8-0.6,1.3-0.8,1.6s-0.6,0.6-1.2,0.8
		c0.8,0.2,1.7,1,2.5,2.4l2.2,3.6h-2.2l-2.1-3.6c-0.4-0.7-0.8-1.2-1.1-1.4c-0.3-0.2-0.7-0.3-1.2-0.3v5.4h-2V145.5z"/>
	<path fill="#878787" d="M148.3,145.5h9.5v1.6H154v10h-2v-10h-3.8V145.5z"/>
</g>
<rect x="77.2" y="191.6" transform="matrix(4.489837e-11 -1 1 4.489837e-11 -91.3061 336.38)" fill="#009640" width="90.7" height="44.4"/>
<g>
	<defs>
		<rect id="SVGID_3_" x="208.6" y="377" width="65.5" height="115.1"/>
	</defs>
	<clipPath id="SVGID_4_">
		<use xlink:href="#SVGID_3_"  overflow="visible"/>
	</clipPath>
	
		<ellipse clip-path="url(#SVGID_4_)" fill="none" stroke="#009FE3" stroke-width="2.5" stroke-miterlimit="10" cx="275.8" cy="434.5" rx="51.6" ry="24.2"/>
	
		<ellipse clip-path="url(#SVGID_4_)" fill="none" stroke="#009FE3" stroke-width="2.5" stroke-miterlimit="10" cx="275.8" cy="434.5" rx="75.3" ry="35.3"/>
	
		<ellipse clip-path="url(#SVGID_4_)" fill="none" stroke="#009FE3" stroke-width="2.5" stroke-miterlimit="10" cx="275.8" cy="434.5" rx="98.1" ry="46"/>
</g>
<g>
	<path fill="#878787" d="M122.3,345.3h2v5c0.6,0,1.1-0.1,1.3-0.4c0.3-0.2,0.6-0.9,1.1-2.1c0.4-0.9,0.7-1.5,0.9-1.8s0.5-0.5,0.8-0.6
		s0.8-0.2,1.5-0.2h0.4v1.6l-0.5,0c-0.5,0-0.9,0.1-1,0.2c-0.2,0.2-0.4,0.6-0.7,1.4c-0.3,0.8-0.6,1.3-0.8,1.6s-0.6,0.6-1.2,0.8
		c0.8,0.2,1.7,1,2.5,2.4l2.2,3.6h-2.2l-2.1-3.6c-0.4-0.7-0.8-1.2-1.1-1.4c-0.3-0.2-0.7-0.3-1.2-0.3v5.4h-2V345.3z"/>
	<path fill="#878787" d="M131.7,351.1c0-2.2,0.6-3.8,1.8-4.8c1-0.9,2.2-1.3,3.7-1.3c1.6,0,2.9,0.5,3.9,1.6s1.5,2.5,1.5,4.4
		c0,1.5-0.2,2.7-0.7,3.5c-0.5,0.9-1.1,1.5-2,2c-0.9,0.5-1.8,0.7-2.8,0.7c-1.6,0-3-0.5-4-1.6C132.2,354.6,131.7,353.1,131.7,351.1z
		 M133.7,351.1c0,1.5,0.3,2.6,1,3.4c0.7,0.7,1.5,1.1,2.5,1.1c1,0,1.8-0.4,2.4-1.1s1-1.9,1-3.4c0-1.4-0.3-2.5-1-3.3
		c-0.7-0.7-1.5-1.1-2.4-1.1c-1,0-1.8,0.4-2.5,1.1C134,348.5,133.7,349.6,133.7,351.1z"/>
	<path fill="#878787" d="M144.9,345.3h2v4.9h5.5v-4.9h2v11.7h-2v-5.2h-5.5v5.2h-2V345.3z"/>
	<path fill="#878787" d="M156.3,345.3h9.5v1.6H162v10h-2v-10h-3.8V345.3z"/>
	<path fill="#878787" d="M167.6,361.4v-16.1h1.8v1.5c0.4-0.6,0.9-1,1.4-1.3c0.5-0.3,1.2-0.4,1.9-0.4c1,0,1.9,0.3,2.6,0.8
		c0.8,0.5,1.3,1.2,1.7,2.2s0.6,2,0.6,3.1c0,1.2-0.2,2.3-0.6,3.2c-0.4,1-1.1,1.7-1.9,2.2c-0.8,0.5-1.7,0.8-2.6,0.8
		c-0.7,0-1.3-0.1-1.8-0.4c-0.5-0.3-1-0.6-1.3-1.1v5.7H167.6z M169.4,351.1c0,1.5,0.3,2.6,0.9,3.3s1.3,1.1,2.2,1.1
		c0.9,0,1.6-0.4,2.3-1.1c0.6-0.7,0.9-1.9,0.9-3.5c0-1.5-0.3-2.6-0.9-3.3c-0.6-0.7-1.3-1.1-2.2-1.1c-0.8,0-1.6,0.4-2.2,1.2
		C169.8,348.5,169.4,349.6,169.4,351.1z"/>
	<path fill="#878787" d="M179.4,351.1c0-2.2,0.6-3.8,1.8-4.8c1-0.9,2.2-1.3,3.7-1.3c1.6,0,2.9,0.5,3.9,1.6s1.5,2.5,1.5,4.4
		c0,1.5-0.2,2.7-0.7,3.5c-0.5,0.9-1.1,1.5-2,2c-0.9,0.5-1.8,0.7-2.8,0.7c-1.6,0-3-0.5-4-1.6C179.9,354.6,179.4,353.1,179.4,351.1z
		 M181.5,351.1c0,1.5,0.3,2.6,1,3.4c0.7,0.7,1.5,1.1,2.5,1.1c1,0,1.8-0.4,2.4-1.1s1-1.9,1-3.4c0-1.4-0.3-2.5-1-3.3
		c-0.7-0.7-1.5-1.1-2.4-1.1c-1,0-1.8,0.4-2.5,1.1C181.8,348.5,181.5,349.6,181.5,351.1z"/>
	<path fill="#878787" d="M193.1,345.3h9.2v11.7h-2v-10h-5.2v5.8c0,1.4,0,2.2-0.1,2.7c-0.1,0.4-0.3,0.8-0.7,1.1s-1,0.5-1.7,0.5
		c-0.5,0-1,0-1.6-0.1v-1.6h0.9c0.4,0,0.7,0,0.9-0.1s0.3-0.2,0.4-0.4c0.1-0.2,0.1-0.8,0.1-1.8V345.3z"/>
	<path fill="#878787" d="M205.3,345.3h2v8.9l5.5-8.9h2.1v11.7h-2v-8.8l-5.5,8.8h-2.1V345.3z"/>
	<path fill="#878787" d="M217.9,361.4v-16.1h1.8v1.5c0.4-0.6,0.9-1,1.4-1.3c0.5-0.3,1.2-0.4,1.9-0.4c1,0,1.9,0.3,2.6,0.8
		c0.8,0.5,1.3,1.2,1.7,2.2s0.6,2,0.6,3.1c0,1.2-0.2,2.3-0.6,3.2c-0.4,1-1.1,1.7-1.9,2.2c-0.8,0.5-1.7,0.8-2.6,0.8
		c-0.7,0-1.3-0.1-1.8-0.4c-0.5-0.3-1-0.6-1.3-1.1v5.7H217.9z M219.7,351.1c0,1.5,0.3,2.6,0.9,3.3s1.3,1.1,2.2,1.1
		c0.9,0,1.6-0.4,2.3-1.1c0.6-0.7,0.9-1.9,0.9-3.5c0-1.5-0.3-2.6-0.9-3.3c-0.6-0.7-1.3-1.1-2.2-1.1c-0.8,0-1.6,0.4-2.2,1.2
		C220,348.5,219.7,349.6,219.7,351.1z"/>
	<path fill="#878787" d="M230,361.4l-0.2-1.9c0.4,0.1,0.8,0.2,1.1,0.2c0.4,0,0.8-0.1,1.1-0.2s0.5-0.4,0.6-0.6
		c0.1-0.2,0.3-0.7,0.6-1.5c0-0.1,0.1-0.3,0.2-0.5l-4.4-11.7h2.1l2.4,6.8c0.3,0.9,0.6,1.8,0.8,2.7c0.2-0.9,0.5-1.8,0.8-2.7l2.5-6.8h2
		l-4.4,11.9c-0.5,1.3-0.8,2.2-1.1,2.6c-0.4,0.7-0.8,1.1-1.2,1.4c-0.5,0.3-1,0.5-1.6,0.5C230.9,361.7,230.5,361.6,230,361.4z"/>
	<path fill="#878787" d="M249.1,353.2l2,0.3c-0.3,1.2-0.9,2.1-1.8,2.8s-2,1-3.3,1c-1.7,0-3.1-0.5-4.1-1.6c-1-1.1-1.5-2.5-1.5-4.4
		c0-2,0.5-3.5,1.5-4.6s2.3-1.6,3.9-1.6c1.6,0,2.8,0.5,3.8,1.6c1,1.1,1.5,2.6,1.5,4.5c0,0.1,0,0.3,0,0.5h-8.7
		c0.1,1.3,0.4,2.3,1.1,2.9c0.7,0.7,1.5,1,2.4,1c0.7,0,1.3-0.2,1.9-0.6C248.4,354.6,248.8,354,249.1,353.2z M242.6,350h6.5
		c-0.1-1-0.3-1.7-0.7-2.2c-0.6-0.8-1.4-1.1-2.5-1.1c-0.9,0-1.7,0.3-2.3,0.9C243,348.1,242.7,348.9,242.6,350z"/>
	<path fill="#878787" d="M253.7,345.3h3.1l3.1,9.3l3.4-9.3h2.8v11.7h-2v-9.4l-3.4,9.4h-1.8l-3.3-9.8v9.8h-1.9V345.3z"/>
	<path fill="#878787" d="M269.2,345.3h2v4.6h2.5c1.6,0,2.9,0.3,3.8,1c0.9,0.6,1.3,1.5,1.3,2.6c0,1-0.4,1.8-1.1,2.5
		c-0.7,0.7-1.9,1-3.5,1h-4.9V345.3z M271.1,355.3h2.1c1.3,0,2.1-0.2,2.7-0.5s0.8-0.8,0.8-1.4c0-0.5-0.2-1-0.6-1.4s-1.3-0.6-2.6-0.6
		h-2.3V355.3z M280.2,345.3h2v11.7h-2V345.3z"/>
	<path fill="#878787" d="M285.3,345.3h2v8.9l5.5-8.9h2.1v11.7h-2v-8.8l-5.5,8.8h-2.1V345.3z M292.2,340.8h1.4
		c-0.1,0.9-0.4,1.6-1,2.1c-0.6,0.5-1.3,0.7-2.2,0.7c-0.9,0-1.7-0.2-2.2-0.7c-0.6-0.5-0.9-1.2-1-2.1h1.4c0.1,0.5,0.3,0.9,0.6,1.1
		c0.3,0.2,0.7,0.4,1.2,0.4c0.6,0,1-0.1,1.3-0.4C291.8,341.7,292,341.3,292.2,340.8z"/>
	<path fill="#878787" d="M173.5,373.6c0-2.2,0.6-3.8,1.8-4.8c1-0.9,2.2-1.3,3.7-1.3c1.6,0,2.9,0.5,3.9,1.6s1.5,2.5,1.5,4.4
		c0,1.5-0.2,2.7-0.7,3.5c-0.5,0.9-1.1,1.5-2,2c-0.9,0.5-1.8,0.7-2.8,0.7c-1.6,0-3-0.5-4-1.6C174,377.1,173.5,375.6,173.5,373.6z
		 M175.6,373.6c0,1.5,0.3,2.6,1,3.4c0.7,0.7,1.5,1.1,2.5,1.1c1,0,1.8-0.4,2.4-1.1s1-1.9,1-3.4c0-1.4-0.3-2.5-1-3.3
		c-0.7-0.7-1.5-1.1-2.4-1.1c-1,0-1.8,0.4-2.5,1.1C175.9,371,175.6,372.1,175.6,373.6z"/>
	<path fill="#878787" d="M195.3,362.9l1.7,0c-0.1,0.8-0.3,1.3-0.5,1.6c-0.3,0.3-0.6,0.5-1,0.6c-0.4,0.1-1.2,0.1-2.5,0.1
		c-1.6,0-2.7,0.2-3.3,0.5c-0.6,0.3-1,0.8-1.3,1.5c-0.3,0.7-0.4,1.6-0.4,2.7c0.5-0.7,1.1-1.3,1.7-1.7s1.4-0.6,2.3-0.6
		c1.5,0,2.8,0.5,3.8,1.6c1,1.1,1.5,2.5,1.5,4.3c0,1.4-0.3,2.5-0.8,3.4c-0.5,0.9-1.1,1.5-1.8,2c-0.7,0.5-1.6,0.7-2.8,0.7
		c-1.4,0-2.5-0.3-3.2-1s-1.4-1.4-1.8-2.4c-0.4-1-0.6-2.7-0.6-5.2c0-3.1,0.5-5.2,1.6-6.2c1-1.1,2.6-1.6,4.8-1.6c1.3,0,2.1,0,2.3-0.1
		S195.3,363.1,195.3,362.9z M195.2,373.5c0-1.2-0.3-2.2-0.9-3c-0.6-0.8-1.4-1.2-2.4-1.2c-1.1,0-1.9,0.4-2.5,1.2s-0.9,1.9-0.9,3.3
		c0,1.4,0.3,2.4,1,3.1c0.7,0.7,1.5,1.1,2.4,1.1c1,0,1.8-0.4,2.4-1.2C194.9,376,195.2,374.9,195.2,373.5z"/>
	<path fill="#878787" d="M197.9,367.8h5.2v4.6h2.5c1.8,0,3.1,0.3,3.9,1c0.8,0.7,1.2,1.5,1.2,2.5c0,1-0.4,1.9-1.2,2.5
		c-0.8,0.7-1.9,1-3.5,1h-5v-10h-3.2V367.8z M203.1,377.8h2.1c1.3,0,2.2-0.2,2.7-0.5s0.8-0.8,0.8-1.5c0-0.6-0.2-1.1-0.7-1.4
		c-0.5-0.3-1.3-0.5-2.5-0.5h-2.3V377.8z"/>
	<path fill="#878787" d="M221,375.7l2,0.3c-0.3,1.2-0.9,2.1-1.8,2.8s-2,1-3.3,1c-1.7,0-3.1-0.5-4.1-1.6c-1-1.1-1.5-2.5-1.5-4.4
		c0-2,0.5-3.5,1.5-4.6s2.3-1.6,3.9-1.6c1.6,0,2.8,0.5,3.8,1.6c1,1.1,1.5,2.6,1.5,4.5c0,0.1,0,0.3,0,0.5h-8.7
		c0.1,1.3,0.4,2.3,1.1,2.9c0.7,0.7,1.5,1,2.4,1c0.7,0,1.3-0.2,1.9-0.6C220.3,377.1,220.7,376.5,221,375.7z M214.5,372.5h6.5
		c-0.1-1-0.3-1.7-0.7-2.2c-0.6-0.8-1.4-1.1-2.5-1.1c-0.9,0-1.7,0.3-2.3,0.9C214.9,370.6,214.5,371.4,214.5,372.5z"/>
	<path fill="#878787" d="M225.5,367.8h2v5c0.6,0,1.1-0.1,1.3-0.4c0.3-0.2,0.6-0.9,1.1-2.1c0.4-0.9,0.7-1.5,0.9-1.8s0.5-0.5,0.8-0.6
		s0.8-0.2,1.5-0.2h0.4v1.6l-0.5,0c-0.5,0-0.9,0.1-1,0.2c-0.2,0.2-0.4,0.6-0.7,1.4c-0.3,0.8-0.6,1.3-0.8,1.6s-0.6,0.6-1.2,0.8
		c0.8,0.2,1.7,1,2.5,2.4l2.2,3.6h-2.2l-2.1-3.6c-0.4-0.7-0.8-1.2-1.1-1.4c-0.3-0.2-0.7-0.3-1.2-0.3v5.4h-2V367.8z"/>
	<path fill="#878787" d="M234.5,367.8h9.5v1.6h-3.8v10h-2v-10h-3.8V367.8z"/>
</g>
<rect x="163.5" y="413.9" transform="matrix(4.489837e-11 -1 1 4.489837e-11 -227.3243 644.9132)" fill="#009640" width="90.7" height="44.4"/>
</svg>
